<svg width="38" height="41" viewBox="0 0 38 41" fill="none" xmlns="http://www.w3.org/2000/svg">
<path d="M23.2841 5.76874H22.3564V2.20984C22.3564 1.90476 22.5493 1.63304 22.8371 1.53226L25.7618 0.508667C26.2285 0.345308 26.7168 0.691714 26.7168 1.18624V4.78804H25.7891V1.73226C25.7891 1.60992 25.6682 1.52413 25.5528 1.5646L23.5137 2.27828C23.3762 2.3264 23.2841 2.45617 23.2841 2.60195V5.76874Z" fill="#0073AA"/>
<path d="M22.2375 5.14355C21.6549 5.14355 21.1826 5.42348 21.1826 5.76879C21.1826 6.1141 21.6549 6.39402 22.2375 6.39402C22.82 6.39402 23.2923 6.1141 23.2923 5.76879C23.2923 5.42348 22.82 5.14355 22.2375 5.14355Z" fill="#41B4E6"/>
<path d="M25.6457 4.1626C25.0631 4.1626 24.5908 4.44252 24.5908 4.78783C24.5908 5.13314 25.0631 5.41307 25.6457 5.41307C26.2282 5.41307 26.7005 5.13314 26.7005 4.78783C26.7005 4.44252 26.2282 4.1626 25.6457 4.1626Z" fill="#41B4E6"/>
<path d="M33.7177 17.4234H32.79V13.9106C32.79 13.5779 33.0003 13.2815 33.3143 13.1716L35.0141 12.5767C35.1834 13.0602 34.9286 13.5894 34.445 13.7587L33.9891 13.9183C33.8265 13.9752 33.7177 14.1286 33.7177 14.3008V17.4234Z" fill="#0073AA"/>
<path d="M32.6711 16.7979C32.0885 16.7979 31.6162 17.0778 31.6162 17.4231C31.6162 17.7684 32.0885 18.0483 32.6711 18.0483C33.2536 18.0483 33.7259 17.7684 33.7259 17.4231C33.7259 17.0778 33.2536 16.7979 32.6711 16.7979Z" fill="#41B4E6"/>
<path d="M34.3306 1.75105C34.0137 1.59027 33.7558 1.33246 33.595 1.01551C33.5466 0.919961 33.4123 0.919961 33.3638 1.01551C33.2031 1.33246 32.9453 1.59027 32.6283 1.75105C32.5328 1.79949 32.5328 1.93379 32.6283 1.98223C32.9452 2.14301 33.2031 2.40082 33.3638 2.71777C33.4123 2.81332 33.5466 2.81332 33.595 2.71777C33.7558 2.40082 34.0136 2.14301 34.3306 1.98223C34.4262 1.93379 34.4262 1.79957 34.3306 1.75105Z" fill="#FFDA52"/>
<path d="M36.0231 5.43674C35.8236 5.32689 35.6592 5.16244 35.5493 4.96299C35.5048 4.88213 35.3895 4.88213 35.3449 4.96299C35.2351 5.16244 35.0706 5.32689 34.8712 5.43674C34.7903 5.48127 34.7903 5.5965 34.8712 5.64111C35.0706 5.75096 35.2351 5.91541 35.3449 6.11486C35.3895 6.19572 35.5047 6.19572 35.5493 6.11486C35.6592 5.91541 35.8236 5.75096 36.0231 5.64111C36.104 5.5965 36.104 5.48127 36.0231 5.43674Z" fill="#FFDA52"/>
<path d="M37.1119 2.40297C36.9682 2.32203 36.8493 2.2032 36.7684 2.05945C36.7333 1.99711 36.6421 1.99711 36.607 2.05945C36.5261 2.20312 36.4072 2.32203 36.2636 2.40297C36.2012 2.43805 36.2012 2.5293 36.2636 2.56437C36.4072 2.64531 36.5261 2.76414 36.607 2.90789C36.6421 2.97023 36.7333 2.97023 36.7684 2.90789C36.8493 2.76422 36.9682 2.64531 37.1119 2.56437C37.1743 2.52922 37.1743 2.43805 37.1119 2.40297Z" fill="#FFDA52"/>
<path d="M14.9614 40.242C14.0308 40.242 13.2764 39.4876 13.2764 38.557V25.0879C13.2764 24.1573 14.0307 23.4028 14.9614 23.4028C15.8921 23.4028 16.6465 24.1573 16.6465 25.0879V38.557C16.6465 39.4877 15.8921 40.242 14.9614 40.242Z" fill="#FFB69E"/>
<path d="M23.1426 39.2076L17.5051 25.7385C17.1458 24.88 17.5505 23.8928 18.4089 23.5335C19.2673 23.1741 20.2546 23.5788 20.614 24.4373L26.2515 37.9064C26.6108 38.7649 26.2061 39.7521 25.3477 40.1114C24.4938 40.4688 23.5039 40.0706 23.1426 39.2076Z" fill="#FFB69E"/>
<path d="M30.6181 4.23595C30.1143 3.6465 29.2278 3.57704 28.6383 4.08103L22.0859 9.68251L22.2393 11.507L23.6814 11.9218C23.6814 11.9218 28.3537 8.00431 30.4632 6.21579C31.0527 5.71181 31.122 4.8254 30.6181 4.23595Z" fill="#FFB69E"/>
<path d="M18.7865 11.873L18.7633 11.6304H15.5187L15.4944 11.8183C15.3662 12.8094 16.138 13.6876 17.1374 13.6876C18.1147 13.6876 18.8797 12.8458 18.7865 11.873Z" fill="#FFB69E"/>
<path d="M12.7586 9.08768L13.5874 7.86628L10.0669 1.00566C9.71295 0.31558 8.86631 0.0433145 8.17654 0.397377C7.48654 0.751439 7.2142 1.59784 7.56826 2.28784L11.1047 9.17971L12.7586 9.08768Z" fill="#FFB69E"/>
<path d="M23.9499 27.5252L20.7514 14.3714C20.7514 14.3714 21.9775 13.3482 23.6812 11.9216L22.0857 9.68238L19.8069 11.6305H18.7633C18.7553 12.4832 17.9561 13.1954 17.1228 13.1954C16.2399 13.1954 15.605 12.4725 15.5188 11.6305L13.5871 7.86621L11.1045 9.17965L13.2182 13.2989C13.2182 13.2989 11.4212 27.4884 11.4166 27.5251C11.3338 28.0031 11.7038 28.4393 12.1852 28.4393H23.1813C23.6642 28.4394 24.0328 28.0038 23.9499 27.5252Z" fill="#FF6473"/>
<path d="M17.0099 10.9554C18.6172 10.9554 19.9202 9.6524 19.9202 8.04508C19.9202 6.43776 18.6172 5.13477 17.0099 5.13477C15.4026 5.13477 14.0996 6.43776 14.0996 8.04508C14.0996 9.6524 15.4026 10.9554 17.0099 10.9554Z" fill="#FFB69E"/>
<path d="M3.72746 11.8969H2.7998V8.35935C2.7998 8.04154 3.00066 7.75842 3.30066 7.65342L5.02387 7.05029C5.19308 7.53389 4.93832 8.06303 4.45473 8.23225L3.93441 8.41435C3.81043 8.45779 3.72738 8.57482 3.72738 8.70615V11.8969H3.72746Z" fill="#0073AA"/>
<path d="M1.14314 4.10779C0.982363 4.42467 0.72455 4.68256 0.407598 4.84334C0.312051 4.89178 0.312051 5.02607 0.407598 5.07451C0.72455 5.23529 0.982363 5.4931 1.14314 5.81006C1.19158 5.9056 1.32588 5.9056 1.37432 5.81006C1.5351 5.49318 1.79291 5.23529 2.10986 5.07451C2.20541 5.02607 2.20541 4.89178 2.10986 4.84334C1.79291 4.68256 1.5351 4.42475 1.37432 4.10779C1.32588 4.01225 1.19166 4.01225 1.14314 4.10779Z" fill="#FFDA52"/>
<path d="M4.82834 2.41514C4.7185 2.61459 4.55404 2.77904 4.35459 2.88889C4.27373 2.93342 4.27373 3.04865 4.35459 3.09326C4.55404 3.2031 4.7185 3.36756 4.82834 3.56701C4.87287 3.64787 4.9881 3.64787 5.03271 3.56701C5.14256 3.36756 5.30701 3.2031 5.50646 3.09326C5.58732 3.04873 5.58732 2.9335 5.50646 2.88889C5.30701 2.77904 5.14256 2.61459 5.03271 2.41514C4.98818 2.33428 4.87295 2.33428 4.82834 2.41514Z" fill="#FFDA52"/>
<path d="M1.79457 1.32654C1.71363 1.47021 1.5948 1.58912 1.45105 1.67006C1.38871 1.70514 1.38871 1.79639 1.45105 1.83146C1.59473 1.91232 1.71363 2.03123 1.79457 2.1749C1.82965 2.23725 1.9209 2.23725 1.95598 2.1749C2.03691 2.03123 2.15574 1.91232 2.29949 1.83146C2.36183 1.79639 2.36183 1.70514 2.29949 1.67006C2.15582 1.58912 2.03691 1.47021 1.95598 1.32654C1.9209 1.2642 1.82973 1.2642 1.79457 1.32654Z" fill="#FFDA52"/>
<path d="M2.68082 12.5224C3.26339 12.5224 3.73566 12.2425 3.73566 11.8972C3.73566 11.5519 3.26339 11.272 2.68082 11.272C2.09825 11.272 1.62598 11.5519 1.62598 11.8972C1.62598 12.2425 2.09825 12.5224 2.68082 12.5224Z" fill="#41B4E6"/>
</svg>
