<svg width="37" height="41" viewBox="0 0 37 41" fill="none" xmlns="http://www.w3.org/2000/svg">
<path d="M27.4098 17.0827H27.4229C28.5457 17.0827 29.4555 16.1721 29.4555 15.05C29.4555 13.9272 28.5457 13.0166 27.4229 13.0166C27.4083 13.0166 27.3937 13.0166 27.3791 13.0174H8.76594C8.75133 13.0166 8.73672 13.0166 8.72211 13.0166C7.5993 13.0166 6.68945 13.9271 6.68945 15.05C6.68945 16.1721 7.5993 17.0827 8.72211 17.0827H8.73516" fill="#F1B986"/>
<path d="M26.9422 7.70877C21.029 7.13549 15.1159 7.13549 9.20266 7.70877C8.74383 11.3853 8.60868 15.062 8.79719 18.7385C8.93446 21.4149 11.0761 23.5452 13.753 23.6716C16.6326 23.8075 19.5122 23.8075 22.3918 23.6716C25.0687 23.5452 27.2103 21.4149 27.3476 18.7385C27.5363 15.0619 27.4011 11.3853 26.9422 7.70877Z" fill="#F1D0A5"/>
<path d="M9.20357 7.70842C12.1597 7.4217 15.1166 7.27881 18.0736 7.27881C16.5765 7.27881 15.0796 7.4235 13.5826 7.71279C13.3497 11.4248 13.2818 15.1369 13.377 18.8481C13.4397 21.2908 14.3324 23.2826 15.5039 23.7369C14.9208 23.7211 14.3368 23.699 13.7537 23.6716C11.0773 23.5455 8.93544 21.4151 8.79787 18.7387C8.6099 15.062 8.74482 11.3852 9.20357 7.70842Z" fill="#F1B986"/>
<path d="M22.9979 10.7661C19.5992 12.0791 14.7713 11.5001 12.3381 9.06703C12.3381 9.06703 11.7603 13.0175 8.76689 13.0175L7.46149 13.4565C3.97509 -0.22875 11.4114 3.42789 11.4114 3.42789C12.1134 2.06734 13.1361 1.50406 14.2045 1.3682C14.2986 1.35656 14.3927 1.34789 14.4874 1.34211C14.4949 1.34211 14.5024 1.34156 14.51 1.34094C15.2626 1.30086 16.0245 1.45359 16.7016 1.67133C16.9374 1.74742 17.1632 1.83102 17.3746 1.91758C18.2253 2.26539 18.8449 2.65625 18.975 2.73984C18.9919 2.75148 19.0006 2.75727 19.0006 2.75727C19.7658 1.74445 20.4957 0.828125 21.2982 0.828125C21.6274 0.828125 21.8551 0.954141 22.0078 1.15563C22.5868 1.91461 22.1112 3.73969 22.0728 3.88313L22.0711 3.88953C22.0717 3.88836 22.0723 3.88602 22.0735 3.88313L22.0775 3.87266C22.1803 3.61367 23.3301 0.828125 25.3921 0.828125C25.5222 0.828125 25.6389 0.840313 25.7428 0.863516C27.2799 1.2032 26.0767 3.8918 25.9443 4.17633L25.9408 4.18445C25.9373 4.19141 25.935 4.19664 25.9338 4.19898C25.9995 4.11539 28.5737 0.847266 29.7176 2.34656C29.7181 2.34773 29.7181 2.34773 29.7188 2.34828C30.8727 3.86922 26.3949 9.45367 22.9979 10.7661Z" fill="#F4DD45"/>
<path d="M29.7181 2.34663H29.7175C29.1392 1.76881 27.1358 4.49631 25.9326 4.20077L25.9414 4.18452C25.9379 4.19147 25.9356 4.1967 25.9344 4.19905C25.9999 4.11537 28.5741 0.84725 29.7181 2.34663Z" fill="#ECC32E"/>
<path d="M25.7431 0.863594C24.8742 0.66625 24.0688 2.32008 23.6138 3.49414C23.3938 4.06188 22.7121 4.28977 22.1946 3.96891L22.0703 3.89188L22.0715 3.88953L22.0732 3.88313H22.0738L22.0778 3.87266C22.1806 3.61367 23.3304 0.828125 25.3924 0.828125C25.5224 0.828203 25.6391 0.840391 25.7431 0.863594Z" fill="#ECC32E"/>
<path d="M14.2045 1.36816C11.718 1.8066 10.7784 7.50723 12.3382 9.06691C12.3382 9.06691 11.7604 13.0174 8.76692 13.0174L7.46153 13.4564C3.97505 -0.228789 11.4114 3.42785 11.4114 3.42785C12.1135 2.0673 13.1361 1.50402 14.2045 1.36816Z" fill="#ECC32E"/>
<path d="M22.0079 1.15563C21.1339 0.281719 20.5514 4.76344 18.5841 5.48117C16.6168 6.19891 16.4326 5.28141 16.4326 5.28141V5.28086C17.4012 4.92258 18.2188 3.79023 18.9999 2.75656C19.0004 2.75711 19.0004 2.75711 19.0004 2.75711C19.0243 2.72516 19.048 2.69383 19.0718 2.66242C19.1014 2.62234 19.1322 2.58227 19.1625 2.54281C19.8697 1.61906 20.5526 0.828125 21.2982 0.828125C21.6275 0.828125 21.8551 0.954141 22.0079 1.15563Z" fill="#ECC32E"/>
<path d="M14.5117 1.34137C14.5036 1.34137 14.4954 1.34137 14.4873 1.34199C14.4949 1.34199 14.5024 1.34137 14.51 1.34082L14.5117 1.34137Z" fill="#ECC32E"/>
<path d="M32.9336 22.1527V35.3589C32.9336 36.2043 32.3438 36.9355 31.518 37.1144L19.7875 39.6566H18.2734V22.7754H19.7875L30.757 20.398C31.8758 20.155 32.9336 21.0082 32.9336 22.1527Z" fill="#DA4A54"/>
<path d="M18.2736 22.7754V39.6566H16.6471L4.9166 37.1144C4.09082 36.9355 3.50098 36.2043 3.50098 35.3589V22.1527C3.50098 21.0082 4.55879 20.155 5.67754 20.398L16.6471 22.7754H18.2736Z" fill="#C32430"/>
<path d="M16.6475 39.6567V22.7754H19.7878V39.6567" fill="#DD636E"/>
<path d="M3.17891 28.5333H2.56453C1.65734 28.5333 0.921875 27.7978 0.921875 26.8906V25.4161C0.921875 24.5089 1.65734 23.7734 2.56453 23.7734H3.17891C4.08609 23.7734 4.82156 24.5089 4.82156 25.4161V26.8906C4.82156 27.7979 4.08617 28.5333 3.17891 28.5333Z" fill="#F1D0A5"/>
<path d="M3.49551 28.5023C3.39395 28.5234 3.2877 28.5336 3.17988 28.5336H2.56504C1.65801 28.5336 0.922852 27.7977 0.922852 26.8906V25.4164C0.922852 24.5086 1.65801 23.7734 2.56504 23.7734H3.17988C3.2877 23.7734 3.39395 23.7836 3.49551 23.8047C2.74004 23.9516 2.16973 24.6172 2.16973 25.4164V26.8906C2.16973 27.6898 2.74004 28.3555 3.49551 28.5023Z" fill="#F1B986"/>
<path d="M33.8703 28.5333H33.2559C32.3488 28.5333 31.6133 27.7978 31.6133 26.8906V25.4161C31.6133 24.5089 32.3488 23.7734 33.2559 23.7734H33.8703C34.7775 23.7734 35.513 24.5089 35.513 25.4161V26.8906C35.513 27.7979 34.7776 28.5333 33.8703 28.5333Z" fill="#F1D0A5"/>
<path d="M34.1869 28.5023C34.0854 28.5234 33.9791 28.5336 33.8713 28.5336H33.2564C32.3494 28.5336 31.6143 27.7977 31.6143 26.8906V25.4164C31.6143 24.5086 32.3494 23.7734 33.2564 23.7734H33.8713C33.9791 23.7734 34.0854 23.7836 34.1869 23.8047C33.4314 23.9516 32.8611 24.6172 32.8611 25.4164V26.8906C32.8611 27.6898 33.4314 28.3555 34.1869 28.5023Z" fill="#F1B986"/>
<path d="M20.5041 19.181C20.6429 18.8887 20.5184 18.5392 20.226 18.4005C19.9336 18.2617 19.5842 18.3863 19.4455 18.6786C19.1952 19.2059 18.6564 19.5467 18.0729 19.5467C17.4894 19.5467 16.9506 19.2059 16.7004 18.6786C16.5616 18.3863 16.2122 18.2617 15.9198 18.4005C15.6275 18.5392 15.503 18.8887 15.6416 19.181C16.0849 20.1151 17.0392 20.7186 18.0729 20.7186C19.1066 20.7186 20.0609 20.115 20.5041 19.181Z" fill="black"/>
<path d="M13.7448 16.7676C14.2122 16.7676 14.5911 16.2036 14.5911 15.5078C14.5911 14.8121 14.2122 14.248 13.7448 14.248C13.2774 14.248 12.8984 14.8121 12.8984 15.5078C12.8984 16.2036 13.2774 16.7676 13.7448 16.7676Z" fill="black"/>
<path d="M22.401 16.7676C22.8684 16.7676 23.2473 16.2036 23.2473 15.5078C23.2473 14.8121 22.8684 14.248 22.401 14.248C21.9336 14.248 21.5547 14.8121 21.5547 15.5078C21.5547 16.2036 21.9336 16.7676 22.401 16.7676Z" fill="black"/>
<path d="M30.81 25.1245C30.7415 24.8083 30.4298 24.6075 30.1133 24.676L23.625 26.0823C23.3088 26.1508 23.108 26.4627 23.1765 26.779C23.2359 27.0534 23.4788 27.2409 23.7485 27.2409C23.7896 27.2409 23.8314 27.2366 23.8732 27.2275L30.3615 25.8212C30.6777 25.7527 30.8785 25.4409 30.81 25.1245Z" fill="black"/>
<path d="M30.1133 26.8532L23.625 28.2595C23.3088 28.328 23.108 28.6399 23.1765 28.9562C23.2359 29.2307 23.4788 29.4182 23.7485 29.4182C23.7896 29.4182 23.8314 29.4138 23.8732 29.4047L30.3615 27.9985C30.6777 27.9299 30.8785 27.618 30.81 27.3017C30.7416 26.9855 30.4299 26.7848 30.1133 26.8532Z" fill="black"/>
<path d="M33.8708 23.1876H33.5201V22.1523C33.5201 21.4286 33.1967 20.7529 32.633 20.2984C32.0694 19.8441 31.3406 19.6715 30.6335 19.8251L27.5793 20.487C27.7827 19.9379 27.9036 19.3583 27.9341 18.7683C27.9539 18.3822 27.9693 17.9954 27.9819 17.6083C29.1584 17.3516 30.0422 16.3025 30.0422 15.0502C30.0422 13.7834 29.1384 12.7239 27.9419 12.4826C27.8712 11.0148 27.7496 9.54852 27.5779 8.09031C28.9489 6.62742 30.0266 4.99781 30.365 3.79945C30.5797 3.03914 30.5186 2.43078 30.1834 1.99141C29.874 1.58594 29.4523 1.37031 28.9637 1.36789C28.4043 1.36586 27.7931 1.63414 27.0969 2.1875C27.1233 1.68539 27.0352 1.27078 26.8328 0.948828C26.6302 0.626406 26.2158 0.242188 25.392 0.242188C24.2966 0.242188 23.4359 0.857031 22.807 1.56742C22.7455 1.28398 22.6409 1.01945 22.4752 0.801641C22.197 0.435703 21.7899 0.242188 21.2982 0.242188C20.3486 0.242188 19.5995 1.02977 18.8541 1.98461C18.5418 1.80844 18.1087 1.58461 17.5959 1.37453C17.3633 1.27977 17.1236 1.19211 16.8811 1.11312C16.0201 0.837031 15.2122 0.716719 14.4798 0.755469C14.4746 0.755703 14.4673 0.75625 14.4605 0.756875C14.4586 0.756953 14.4566 0.757031 14.4546 0.757187C14.3463 0.763359 14.241 0.772969 14.1313 0.786719C12.8688 0.947266 11.8719 1.58695 11.1611 2.69062C9.88961 2.24523 7.83789 2.08477 6.71984 3.89703C6.54992 4.17242 6.63539 4.53344 6.91086 4.70336C7.0068 4.7625 7.11297 4.7907 7.21797 4.7907C7.41453 4.7907 7.60648 4.69187 7.71719 4.51234C8.76219 2.81852 11.057 3.90742 11.1529 3.95391C11.4394 4.09484 11.7859 3.98055 11.9322 3.69688C12.4708 2.65328 13.2385 2.08156 14.2779 1.94937C14.3578 1.93937 14.4355 1.93227 14.5151 1.92758C14.5272 1.92711 14.5396 1.92625 14.5522 1.92523C15.1395 1.89562 15.8024 1.99797 16.5207 2.22828C16.7341 2.29773 16.947 2.37563 17.1527 2.45945C17.5383 2.61742 17.8759 2.78578 18.1368 2.92734C17.522 3.73156 16.8884 4.48883 16.229 4.73234C15.9254 4.84445 15.7702 5.18141 15.8823 5.485C15.9945 5.78859 16.3314 5.94375 16.6349 5.83172C17.7172 5.43203 18.548 4.33023 19.3515 3.26477C20.0056 2.39719 20.747 1.41406 21.2982 1.41406C21.4554 1.41406 21.5066 1.46398 21.5423 1.51078C21.8309 1.88969 21.6912 3.06234 21.506 3.735C21.4223 4.03688 21.5908 4.35117 21.8885 4.44852C22.1864 4.54602 22.5079 4.39188 22.6187 4.09891C22.6288 4.07203 23.6819 1.41406 25.392 1.41406C25.741 1.41406 25.816 1.53313 25.8406 1.57219C26.1123 2.00336 25.7409 3.24414 25.4047 3.94656C25.2748 4.21641 25.3694 4.5407 25.624 4.69852C25.8784 4.85633 26.2111 4.7968 26.395 4.56055C26.3991 4.55523 26.8123 4.02688 27.3707 3.50156C28.2919 2.63477 28.7846 2.53969 28.9556 2.53969H28.9579C29.0602 2.54023 29.1494 2.56805 29.2516 2.70211C29.3455 2.82523 29.3402 3.11633 29.2372 3.48094C28.662 5.51797 25.3674 9.22219 22.7862 10.2195C19.4187 11.5206 14.9176 10.8176 12.7524 8.65242C12.5957 8.4957 12.3641 8.44086 12.1537 8.51055C11.9434 8.58031 11.7904 8.76266 11.7584 8.98195C11.757 8.99086 11.623 9.88094 11.1562 10.7697C10.5771 11.8724 9.77305 12.4316 8.76641 12.4316C8.76562 12.4316 8.76492 12.4316 8.76422 12.4316C8.75031 12.4313 8.73648 12.4308 8.72258 12.4308C8.41711 12.4308 8.12391 12.4839 7.85102 12.5805C7.24969 10.0391 7.01578 7.98539 7.15797 6.47117C7.1882 6.14898 6.95156 5.86328 6.62937 5.83305C6.30726 5.80289 6.02148 6.03945 5.99125 6.36164C5.82945 8.08508 6.10586 10.4068 6.81055 13.2632C6.37273 13.7316 6.10398 14.3599 6.10398 15.0502C6.10398 16.3027 6.98812 17.3521 8.16492 17.6084C8.17766 17.9959 8.19305 18.3828 8.21289 18.7681C8.24164 19.3331 8.35367 19.8898 8.54203 20.4189L5.80211 19.8251C5.09492 19.6715 4.36602 19.844 3.80227 20.2984C3.23852 20.7529 2.91523 21.4286 2.91523 22.1523V23.1876H2.56453C1.3357 23.1876 0.335938 24.1873 0.335938 25.4162V26.8906C0.335938 28.1195 1.3357 29.1192 2.56453 29.1192H2.91523V35.3586C2.91523 36.4719 3.70484 37.451 4.79273 37.6867L16.5232 40.2289C16.5239 40.2291 16.5246 40.2291 16.5252 40.2292C16.5414 40.2327 16.558 40.2352 16.5746 40.2372C16.5784 40.2377 16.582 40.2385 16.5858 40.2389C16.6052 40.2409 16.6248 40.242 16.6448 40.242C16.6456 40.242 16.6465 40.2422 16.6473 40.2422H19.788C19.7888 40.2422 19.7897 40.242 19.7905 40.242C19.8105 40.242 19.8302 40.2409 19.8495 40.2389C19.8533 40.2385 19.857 40.2377 19.8607 40.2372C19.8773 40.2352 19.8938 40.2327 19.9101 40.2292C19.9108 40.2291 19.9115 40.2291 19.9121 40.2289L31.6425 37.6867C32.7304 37.451 33.52 36.4719 33.52 35.3586V34.5595C33.52 34.2359 33.2577 33.9736 32.9341 33.9736C32.6105 33.9736 32.3481 34.2359 32.3481 34.5595V35.3586C32.3481 35.9242 31.947 36.4216 31.3944 36.5414L20.3738 38.9298V23.2476L30.8819 20.9702C31.241 20.8923 31.6112 20.9799 31.8976 21.2108C32.184 21.4416 32.3483 21.7848 32.3483 22.1523V23.3818C31.571 23.7302 31.028 24.5107 31.028 25.4161V26.8906C31.028 27.7961 31.571 28.5766 32.3483 28.9249V32.2158C32.3483 32.5394 32.6106 32.8017 32.9342 32.8017C33.2578 32.8017 33.5202 32.5394 33.5202 32.2158V29.1192H33.8709C35.0997 29.1192 36.0994 28.1195 36.0994 26.8906V25.4161C36.0994 24.1873 35.0996 23.1876 33.8708 23.1876ZM28.8703 15.0502C28.8703 15.6391 28.5161 16.146 28.01 16.3716C28.0215 15.4881 28.0145 14.6032 27.9891 13.718C28.5065 13.9388 28.8703 14.4527 28.8703 15.0502ZM7.27601 15.0502C7.27601 14.4533 7.63914 13.9398 8.15586 13.7187C8.13062 14.6017 8.12476 15.4877 8.13648 16.3716C7.63023 16.1461 7.27601 15.6391 7.27601 15.0502ZM9.38336 18.708C9.29547 17.0057 9.27937 15.277 9.33375 13.561C10.531 13.3795 11.5123 12.6123 12.1938 11.3145C12.412 10.8992 12.5691 10.4854 12.6801 10.1325C13.874 11.0224 15.4498 11.6405 17.2205 11.9009C19.3059 12.2077 21.4326 11.9988 23.2087 11.3127C24.2968 10.8923 25.4521 10.0934 26.5144 9.13492C26.8419 12.3176 26.9263 15.5323 26.7638 18.708C26.7256 19.4462 26.5108 20.1639 26.1411 20.7987L19.7252 22.1891H16.7102L9.96437 20.7272C9.61992 20.1109 9.41953 19.4181 9.38336 18.708ZM17.2335 23.3609H19.202V39.0703H17.2335V23.3609ZM1.50797 26.8906V25.4161C1.50797 24.8334 1.98203 24.3594 2.56469 24.3594H3.17906C3.76172 24.3594 4.23578 24.8334 4.23578 25.4161V26.8906C4.23578 27.4733 3.76172 27.9473 3.17906 27.9473H2.56469C1.98203 27.9473 1.50797 27.4734 1.50797 26.8906ZM4.08727 35.3586V28.925C4.86453 28.5766 5.40758 27.7961 5.40758 26.8907V25.4162C5.40758 24.5107 4.86453 23.7302 4.08727 23.3819V22.1523C4.08727 21.7848 4.25156 21.4416 4.53797 21.2108C4.82437 20.9799 5.19453 20.8923 5.55383 20.9703L16.0616 23.2476V38.9298L5.04102 36.5414C4.48836 36.4216 4.08727 35.9242 4.08727 35.3586ZM34.9275 26.8906C34.9275 27.4733 34.4534 27.9473 33.8708 27.9473H33.2564C32.6737 27.9473 32.1997 27.4733 32.1997 26.8906V25.4161C32.1997 24.8334 32.6737 24.3594 33.2564 24.3594H33.8708C34.4534 24.3594 34.9275 24.8334 34.9275 25.4161V26.8906Z" fill="black"/>
</svg>
