<svg width="34" height="41" viewBox="0 0 34 41" fill="none" xmlns="http://www.w3.org/2000/svg">
<path d="M29.805 12.3968C28.6528 11.3907 27.3457 10.5303 25.9197 9.84814L24.9902 10.5216L27.2168 19.4081L28.0919 19.6404C31.3235 18.7871 32.3751 14.6411 29.805 12.3968Z" fill="#DBEDFF"/>
<path d="M26.7821 28.09C26.2255 27.4562 25.5146 26.9178 24.6462 26.5279C22.932 25.7582 21.8776 24.7372 21.8776 23.6063C21.8776 22.3903 23.0945 21.3046 25.0341 20.5201L25.9199 19.6406L22.6919 9.01142L21.0648 7.81348L19.9265 8.17355C9.73539 7.12607 0.921875 14.3782 0.921875 23.6062C0.921875 34.5193 12.9912 42.0259 24.1469 38.0977C26.4107 37.3006 27.7629 35.4816 28.1677 33.483L28.8251 32.9173L27.9917 28.3601L26.7821 28.09Z" fill="#DBEDFF"/>
<path d="M5.6614 23.6062C5.6614 15.3588 12.7016 8.69049 21.4731 8.11402L21.0648 7.81348L19.9265 8.17355C9.73539 7.12607 0.921875 14.3782 0.921875 23.6062C0.921875 33.2902 10.4259 40.2906 20.3616 39C12.345 37.9598 5.6614 31.727 5.6614 23.6062Z" fill="#B5DCFF"/>
<path d="M9.77112 19.0476C11.1802 19.0476 12.3225 17.9053 12.3225 16.4962C12.3225 15.0871 11.1802 13.9448 9.77112 13.9448C8.36202 13.9448 7.21973 15.0871 7.21973 16.4962C7.21973 17.9053 8.36202 19.0476 9.77112 19.0476Z" fill="#F87C68"/>
<path d="M16.6783 15.7638C18.0453 15.7638 19.1534 14.6556 19.1534 13.2886C19.1534 11.9216 18.0453 10.8135 16.6783 10.8135C15.3113 10.8135 14.2031 11.9216 14.2031 13.2886C14.2031 14.6556 15.3113 15.7638 16.6783 15.7638Z" fill="#FFD064"/>
<path d="M11.0308 33.9122C12.3978 33.9122 13.5059 32.804 13.5059 31.4371C13.5059 30.0701 12.3978 28.9619 11.0308 28.9619C9.66382 28.9619 8.55566 30.0701 8.55566 31.4371C8.55566 32.804 9.66382 33.9122 11.0308 33.9122Z" fill="#5291D9"/>
<path d="M18.2388 36.2252C19.6058 36.2252 20.714 35.117 20.714 33.75C20.714 32.3831 19.6058 31.2749 18.2388 31.2749C16.8718 31.2749 15.7637 32.3831 15.7637 33.75C15.7637 35.117 16.8718 36.2252 18.2388 36.2252Z" fill="#95D6A4"/>
<path d="M6.94041 27.2065C8.58971 27.2065 9.92672 25.8695 9.92672 24.2202C9.92672 22.5709 8.58971 21.2339 6.94041 21.2339C5.29112 21.2339 3.9541 22.5709 3.9541 24.2202C3.9541 25.8695 5.29112 27.2065 6.94041 27.2065Z" fill="#FF94D5"/>
<path d="M9.7594 16.4962C9.7594 15.5496 10.2753 14.724 11.041 14.2836C10.6669 14.0685 10.2336 13.9448 9.77112 13.9448C8.36206 13.9448 7.21973 15.0871 7.21973 16.4962C7.21973 17.9053 8.36198 19.0476 9.77112 19.0476C10.2336 19.0476 10.6669 18.9239 11.041 18.7088C10.2753 18.2684 9.7594 17.4428 9.7594 16.4962Z" fill="#EC625E"/>
<path d="M16.7428 13.2886C16.7428 12.3859 17.2262 11.5964 17.9481 11.164C17.5769 10.9416 17.1426 10.8135 16.6783 10.8135C15.3112 10.8135 14.2031 11.9217 14.2031 13.2886C14.2031 14.6556 15.3112 15.7638 16.6783 15.7638C17.1426 15.7638 17.5768 15.6356 17.9481 15.4132C17.2262 14.9809 16.7428 14.1913 16.7428 13.2886Z" fill="#FFC250"/>
<path d="M11.0953 31.4371C11.0953 30.5343 11.5788 29.7448 12.3006 29.3124C11.9293 29.09 11.4951 28.9619 11.0308 28.9619C9.66386 28.9619 8.55566 30.07 8.55566 31.4371C8.55566 32.8041 9.66386 33.9122 11.0308 33.9122C11.4951 33.9122 11.9293 33.7841 12.3006 33.5617C11.5788 33.1293 11.0953 32.3397 11.0953 31.4371Z" fill="#2E82D4"/>
<path d="M18.3033 33.7501C18.3033 32.8474 18.7868 32.0579 19.5087 31.6254C19.1374 31.403 18.7031 31.2749 18.2388 31.2749C16.8718 31.2749 15.7637 32.3831 15.7637 33.75C15.7637 35.117 16.8718 36.2252 18.2388 36.2252C18.7031 36.2252 19.1373 36.0971 19.5087 35.8747C18.7868 35.4424 18.3033 34.6529 18.3033 33.7501Z" fill="#78C2A4"/>
<path d="M6.49377 24.2202C6.49377 23.025 7.19611 21.9944 8.21025 21.5171C7.82486 21.3357 7.39463 21.2339 6.94041 21.2339C5.29112 21.2339 3.9541 22.5709 3.9541 24.2202C3.9541 25.8695 5.29112 27.2065 6.94041 27.2065C7.39455 27.2065 7.82486 27.1046 8.21025 26.9232C7.19604 26.446 6.49377 25.4153 6.49377 24.2202Z" fill="#FF72C7"/>
<path d="M26.1932 4.86941C25.6179 2.75335 23.6609 2.7796 21.8703 0.9976C21.559 0.687762 21.0613 0.823072 20.9497 1.24791C20.3079 3.69123 18.607 4.65949 19.1824 6.77555C19.6454 8.47856 21.1627 9.2366 22.0109 9.53464L22.4907 9.92581L24.9907 9.33988L25.1511 8.6809C25.7317 7.99428 26.6563 6.57235 26.1932 4.86941Z" fill="#E39B74"/>
<path d="M24.3095 9.24824C23.4612 8.9502 21.944 8.19208 21.481 6.48914C20.9829 4.65746 22.19 3.68513 22.9398 1.87243C22.5848 1.63095 22.2244 1.34994 21.8703 0.9976C21.559 0.687762 21.0613 0.823072 20.9497 1.24791C20.3079 3.69123 18.607 4.65949 19.1824 6.77555C19.6454 8.47856 21.1627 9.2366 22.0109 9.53464L22.4907 9.9258L24.5489 9.44339L24.3095 9.24824Z" fill="#DD8858"/>
<path d="M25.7549 9.24243C25.6416 8.82579 25.212 8.57978 24.7953 8.69314L22.323 9.36532C21.9064 9.4786 21.6603 9.90821 21.7737 10.3249L23.0331 14.9571L23.4863 15.2873L26.8717 14.4801L27.0144 13.8747L25.7549 9.24243Z" fill="#477B9E"/>
<path d="M25.1588 14.5251L23.8153 9.58332C23.7531 9.35465 23.7929 9.12277 23.9061 8.93457L22.323 9.36496C21.9064 9.47824 21.6603 9.90785 21.7737 10.3246L23.0331 14.9567L23.4863 15.287L25.5343 14.7986L25.1588 14.5251Z" fill="#3F6D8E"/>
<path d="M32.5293 37.6638C32.5023 35.0355 32.0935 32.4253 31.3158 29.9146L27.0511 16.3209L26.4947 15.9316L24.3808 16.4101L24.2412 17.0849L27.4467 30.9665C28.0472 33.5253 29.0164 35.9833 30.3239 38.2634L30.8638 39.2048C31.067 39.5593 31.4839 39.7318 31.8782 39.6246C32.2725 39.5174 32.5447 39.1575 32.5404 38.7489L32.5293 37.6638Z" fill="#FFD064"/>
<path d="M32.1618 37.4822C30.8543 35.2021 29.8851 32.7442 29.2846 30.1854L26.0791 16.3038L26.1394 16.0122L24.3808 16.4102L24.2412 17.085L27.4467 30.9666C28.0472 33.5254 29.0164 35.9834 30.3239 38.2635L30.8638 39.2049C31.067 39.5594 31.4839 39.7319 31.8782 39.6247C32.2725 39.5175 32.5447 39.1576 32.5404 38.749L32.5341 38.1316L32.1618 37.4822Z" fill="#FFC250"/>
<path d="M26.898 13.8945L23.1447 14.915C22.7905 15.0113 22.5814 15.3765 22.6778 15.7306L22.9538 16.746C23.0502 17.1002 23.4153 17.3092 23.7695 17.2129L27.5229 16.1925C27.8771 16.0961 28.0861 15.731 27.9898 15.3769L27.7137 14.3615C27.6174 14.0073 27.2522 13.7983 26.898 13.8945Z" fill="#5895B7"/>
<path d="M25.3106 16.1211L25.0158 15.0369C24.948 14.7874 25.0227 14.5333 25.1896 14.3594L23.1447 14.9154C22.7905 15.0117 22.5814 15.3769 22.6778 15.731L22.9538 16.7464C23.0502 17.1005 23.4153 17.3096 23.7695 17.2133L25.8908 16.6366C25.6209 16.5962 25.3868 16.4014 25.3106 16.1211Z" fill="#477B9E"/>
<path d="M9.77111 19.6335C11.501 19.6335 12.9084 18.2261 12.9084 16.4962C12.9084 14.7663 11.5009 13.3589 9.77111 13.3589C8.04112 13.3589 6.63379 14.7663 6.63379 16.4962C6.63379 18.2261 8.04112 19.6335 9.77111 19.6335ZM9.77111 14.5308C10.8549 14.5308 11.7365 15.4125 11.7365 16.4962C11.7365 17.58 10.8549 18.4617 9.77111 18.4617C8.68737 18.4617 7.80566 17.58 7.80566 16.4962C7.80566 15.4125 8.68737 14.5308 9.77111 14.5308Z" fill="black"/>
<path d="M16.6783 16.3497C18.3661 16.3497 19.7394 14.9765 19.7394 13.2886C19.7394 11.6007 18.3662 10.2275 16.6783 10.2275C14.9905 10.2275 13.6172 11.6007 13.6172 13.2886C13.6172 14.9765 14.9905 16.3497 16.6783 16.3497ZM16.6783 11.3994C17.7201 11.3994 18.5676 12.2469 18.5676 13.2886C18.5676 14.3303 17.7201 15.1778 16.6783 15.1778C15.6366 15.1778 14.7891 14.3303 14.7891 13.2886C14.7891 12.2469 15.6366 11.3994 16.6783 11.3994Z" fill="black"/>
<path d="M11.0299 34.4981C12.7177 34.4981 14.091 33.1249 14.091 31.4371C14.091 29.7492 12.7178 28.376 11.0299 28.376C9.34202 28.376 7.96875 29.7492 7.96875 31.4371C7.96875 33.1249 9.34202 34.4981 11.0299 34.4981ZM11.0299 29.5479C12.0716 29.5479 12.9191 30.3954 12.9191 31.4371C12.9191 32.4788 12.0716 33.3263 11.0299 33.3263C9.98819 33.3263 9.14062 32.4788 9.14062 31.4371C9.14062 30.3954 9.98819 29.5479 11.0299 29.5479Z" fill="black"/>
<path d="M18.2389 36.8111C19.9267 36.8111 21.3 35.4379 21.3 33.75C21.3 32.0622 19.9268 30.689 18.2389 30.689C16.551 30.689 15.1777 32.0622 15.1777 33.75C15.1777 35.4379 16.5509 36.8111 18.2389 36.8111ZM18.2389 31.8608C19.2806 31.8608 20.1281 32.7083 20.1281 33.75C20.1281 34.7918 19.2806 35.6393 18.2389 35.6393C17.1972 35.6393 16.3496 34.7918 16.3496 33.75C16.3496 32.7083 17.1972 31.8608 18.2389 31.8608Z" fill="black"/>
<path d="M3.36816 24.2206C3.36816 26.1904 4.97064 27.7928 6.94037 27.7928C8.9101 27.7928 10.5126 26.1904 10.5126 24.2206C10.5126 22.2509 8.9101 20.6484 6.94037 20.6484C4.97064 20.6484 3.36816 22.2509 3.36816 24.2206ZM6.94037 21.8203C8.26386 21.8203 9.34072 22.8971 9.34072 24.2206C9.34072 25.5442 8.26394 26.621 6.94037 26.621C5.6168 26.621 4.54002 25.5442 4.54002 24.2206C4.54002 22.8971 5.6168 21.8203 6.94037 21.8203Z" fill="black"/>
<path d="M0.335938 23.6061C0.335938 32.4449 7.95042 39.1635 16.8359 39.7047C16.848 39.7054 16.8601 39.7058 16.8721 39.7058C17.1794 39.7058 17.4374 39.4664 17.4563 39.1555C17.476 38.8326 17.2301 38.5548 16.9071 38.5351C8.27197 38.0091 1.50779 31.4515 1.50779 23.6061C1.50779 14.7173 9.97116 7.85857 19.6428 8.73464C20.0828 9.19315 20.6242 9.56065 21.1907 9.82963C21.1442 10.0438 21.1524 10.2722 21.2086 10.4787L22.3683 14.744C22.0983 15.0595 22.0045 15.4891 22.1122 15.8847L22.3882 16.9001C22.5561 17.5186 23.1741 17.9143 23.8058 17.8047L24.3532 20.1749C22.374 21.0765 21.2917 22.2839 21.2917 23.6062C21.2917 24.9331 22.3978 26.1606 24.4062 27.0623C25.1204 27.3829 25.7385 27.8224 26.2454 28.3695C26.8899 31.1988 27.0881 32.0965 27.5605 33.5188C27.1232 35.4264 25.8156 36.8888 23.9522 37.5449C22.5306 38.0455 21.0509 38.3662 19.5544 38.4981C19.2321 38.5266 18.9937 38.8108 19.0222 39.1332C19.0505 39.4556 19.3359 39.6935 19.6572 39.6654C21.2513 39.525 22.8273 39.1834 24.3415 38.6502C26.0651 38.0433 27.426 36.8136 28.1935 35.228C28.9771 37.1505 29.6913 38.3385 30.3553 39.4964C30.6909 40.0819 31.3802 40.3672 32.0317 40.1901C32.683 40.013 33.133 39.418 33.1262 38.743C33.106 36.7803 33.1577 33.8298 31.7787 29.4337C31.6818 29.1249 31.3531 28.9531 31.0442 29.05C30.7355 29.1469 30.5638 29.4757 30.6606 29.7844C31.9551 33.9106 31.9327 36.6481 31.9544 38.7551C31.9559 38.8969 31.8613 39.022 31.7244 39.0593C31.5877 39.0965 31.4425 39.0365 31.3719 38.9134C28.9066 34.6142 28.596 33.339 27.3532 27.958C27.3532 27.958 24.9389 17.5025 24.9389 17.5024L26.6606 17.0343L27.5333 19.8158V19.8159L29.8418 27.1745C29.9387 27.4832 30.2673 27.655 30.5763 27.5581C30.885 27.4613 31.0568 27.1325 30.9599 26.8237L28.8232 20.0127C32.0515 18.7046 32.9545 14.3689 30.1907 11.9554C29.0582 10.9665 27.7886 10.1229 26.4164 9.44112L26.3206 9.08862C26.2621 8.87316 26.1538 8.67996 26.0066 8.52051C26.5981 7.64716 27.1882 6.29641 26.7584 4.71565C26.3459 3.19841 25.3316 2.61303 24.2579 1.99336C23.6066 1.6175 22.9332 1.22884 22.2835 0.582208C21.6522 -0.0458277 20.6094 0.236277 20.3828 1.09892C20.15 1.98554 19.7659 2.6617 19.3947 3.3156C18.7757 4.40566 18.0219 5.67423 18.8203 7.50678C8.87407 7.07858 0.335938 14.2928 0.335938 23.6061ZM25.8124 26.4948C25.5203 26.3075 25.2118 26.1394 24.8862 25.9933C23.3466 25.3019 22.4635 24.4319 22.4635 23.6061C22.4635 22.82 23.2415 22.0125 24.6227 21.3425L25.8124 26.4948ZM29.4198 12.8382C31.4941 14.6495 30.8251 17.8803 28.4715 18.892C27.8662 16.9629 28.0304 17.486 27.7905 16.7212C28.4033 16.4866 28.7196 15.8298 28.5548 15.2234L28.2788 14.208C28.1706 13.8104 27.8704 13.4885 27.4803 13.354L26.8388 10.9944C27.7625 11.5286 28.6269 12.1458 29.4198 12.8382ZM27.0515 14.4602L27.0517 14.4601C27.0894 14.4499 27.1358 14.4706 27.1479 14.5154L27.4239 15.5308C27.4353 15.5727 27.4105 15.6159 27.3687 15.6273C26.5846 15.8405 24.3302 16.4533 23.6154 16.6477C23.5744 16.6591 23.5305 16.6351 23.5189 16.5925L23.2429 15.577C23.2308 15.5323 23.2615 15.4905 23.2981 15.4805L27.0515 14.4602ZM26.2925 13.4521L23.4422 14.227L22.3395 10.1711C22.3109 10.0668 22.3763 9.95814 22.4771 9.93064L24.9494 9.25846C25.0454 9.23214 25.1595 9.28456 25.1898 9.39612C25.5525 10.7301 25.2981 9.79447 26.2925 13.4521ZM20.4137 3.89442C20.7951 3.22287 21.2262 2.46358 21.5006 1.45618C22.2447 2.18468 23.0023 2.62186 23.6722 3.00849C24.6415 3.56794 25.3419 3.97207 25.6277 5.0233C25.977 6.30781 25.3757 7.42779 24.8775 8.08536C24.8021 8.09216 24.7137 8.10825 24.6418 8.12778L22.1695 8.79996C22.0942 8.82043 22.0077 8.853 21.9451 8.88261C20.9086 8.45723 20.044 7.71232 19.7476 6.62203C19.4618 5.57079 19.8611 4.8676 20.4137 3.89442Z" fill="black"/>
</svg>
