<svg width="37" height="66" viewBox="0 0 37 66" fill="none" xmlns="http://www.w3.org/2000/svg">
<ellipse cx="3.11321" cy="3.11056" rx="3.11321" ry="3.11056" fill="url(#paint0_linear_1_7178)"/>
<ellipse cx="18.0566" cy="3.11056" rx="3.11321" ry="3.11056" fill="url(#paint1_linear_1_7178)"/>
<ellipse cx="32.9999" cy="3.11056" rx="3.11321" ry="3.11056" fill="url(#paint2_linear_1_7178)"/>
<ellipse cx="3.11321" cy="18.0398" rx="3.11321" ry="3.11056" fill="url(#paint3_linear_1_7178)"/>
<ellipse cx="18.0566" cy="18.0398" rx="3.11321" ry="3.11056" fill="url(#paint4_linear_1_7178)"/>
<ellipse cx="32.9999" cy="18.0398" rx="3.11321" ry="3.11056" fill="url(#paint5_linear_1_7178)"/>
<ellipse cx="3.11321" cy="32.969" rx="3.11321" ry="3.11056" fill="url(#paint6_linear_1_7178)"/>
<ellipse cx="18.0566" cy="32.9685" rx="3.11321" ry="3.11056" fill="url(#paint7_linear_1_7178)"/>
<ellipse cx="32.9999" cy="32.969" rx="3.11321" ry="3.11056" fill="url(#paint8_linear_1_7178)"/>
<ellipse cx="3.11321" cy="47.8977" rx="3.11321" ry="3.11056" fill="url(#paint9_linear_1_7178)"/>
<ellipse cx="18.0566" cy="47.8977" rx="3.11321" ry="3.11056" fill="url(#paint10_linear_1_7178)"/>
<ellipse cx="32.9999" cy="47.8977" rx="3.11321" ry="3.11056" fill="url(#paint11_linear_1_7178)"/>
<ellipse cx="3.11321" cy="62.8269" rx="3.11321" ry="3.11056" fill="url(#paint12_linear_1_7178)"/>
<ellipse cx="18.0566" cy="62.8269" rx="3.11321" ry="3.11056" fill="url(#paint13_linear_1_7178)"/>
<ellipse cx="32.9999" cy="62.8269" rx="3.11321" ry="3.11056" fill="url(#paint14_linear_1_7178)"/>
<defs>
<linearGradient id="paint0_linear_1_7178" x1="5.05896" y1="-1.62808e-07" x2="1.40556" y2="6.22384" gradientUnits="userSpaceOnUse">
<stop stop-color="#F188E0"/>
<stop offset="0.598958" stop-color="#F4648B"/>
</linearGradient>
<linearGradient id="paint1_linear_1_7178" x1="20.0023" y1="-1.62808e-07" x2="16.3489" y2="6.22384" gradientUnits="userSpaceOnUse">
<stop stop-color="#F188E0"/>
<stop offset="0.598958" stop-color="#F4648B"/>
</linearGradient>
<linearGradient id="paint2_linear_1_7178" x1="34.9457" y1="-1.62808e-07" x2="31.2923" y2="6.22384" gradientUnits="userSpaceOnUse">
<stop stop-color="#F188E0"/>
<stop offset="0.598958" stop-color="#F4648B"/>
</linearGradient>
<linearGradient id="paint3_linear_1_7178" x1="5.05896" y1="14.9292" x2="1.40556" y2="21.153" gradientUnits="userSpaceOnUse">
<stop stop-color="#F188E0"/>
<stop offset="0.598958" stop-color="#F4648B"/>
</linearGradient>
<linearGradient id="paint4_linear_1_7178" x1="20.0023" y1="14.9292" x2="16.3489" y2="21.153" gradientUnits="userSpaceOnUse">
<stop stop-color="#F188E0"/>
<stop offset="0.598958" stop-color="#F4648B"/>
</linearGradient>
<linearGradient id="paint5_linear_1_7178" x1="34.9457" y1="14.9292" x2="31.2923" y2="21.153" gradientUnits="userSpaceOnUse">
<stop stop-color="#F188E0"/>
<stop offset="0.598958" stop-color="#F4648B"/>
</linearGradient>
<linearGradient id="paint6_linear_1_7178" x1="5.05896" y1="29.8584" x2="1.40556" y2="36.0822" gradientUnits="userSpaceOnUse">
<stop stop-color="#F188E0"/>
<stop offset="0.598958" stop-color="#F4648B"/>
</linearGradient>
<linearGradient id="paint7_linear_1_7178" x1="20.0023" y1="29.8579" x2="16.3489" y2="36.0817" gradientUnits="userSpaceOnUse">
<stop stop-color="#F188E0"/>
<stop offset="0.598958" stop-color="#F4648B"/>
</linearGradient>
<linearGradient id="paint8_linear_1_7178" x1="34.9457" y1="29.8584" x2="31.2923" y2="36.0822" gradientUnits="userSpaceOnUse">
<stop stop-color="#F188E0"/>
<stop offset="0.598958" stop-color="#F4648B"/>
</linearGradient>
<linearGradient id="paint9_linear_1_7178" x1="5.05896" y1="44.7871" x2="1.40556" y2="51.0109" gradientUnits="userSpaceOnUse">
<stop stop-color="#F188E0"/>
<stop offset="0.598958" stop-color="#F4648B"/>
</linearGradient>
<linearGradient id="paint10_linear_1_7178" x1="20.0023" y1="44.7871" x2="16.3489" y2="51.0109" gradientUnits="userSpaceOnUse">
<stop stop-color="#F188E0"/>
<stop offset="0.598958" stop-color="#F4648B"/>
</linearGradient>
<linearGradient id="paint11_linear_1_7178" x1="34.9457" y1="44.7871" x2="31.2923" y2="51.0109" gradientUnits="userSpaceOnUse">
<stop stop-color="#F188E0"/>
<stop offset="0.598958" stop-color="#F4648B"/>
</linearGradient>
<linearGradient id="paint12_linear_1_7178" x1="5.05896" y1="59.7163" x2="1.40556" y2="65.9401" gradientUnits="userSpaceOnUse">
<stop stop-color="#F188E0"/>
<stop offset="0.598958" stop-color="#F4648B"/>
</linearGradient>
<linearGradient id="paint13_linear_1_7178" x1="20.0023" y1="59.7163" x2="16.3489" y2="65.9401" gradientUnits="userSpaceOnUse">
<stop stop-color="#F188E0"/>
<stop offset="0.598958" stop-color="#F4648B"/>
</linearGradient>
<linearGradient id="paint14_linear_1_7178" x1="34.9457" y1="59.7163" x2="31.2923" y2="65.9401" gradientUnits="userSpaceOnUse">
<stop stop-color="#F188E0"/>
<stop offset="0.598958" stop-color="#F4648B"/>
</linearGradient>
</defs>
</svg>
