<svg width="40" height="40" viewBox="0 0 40 40" fill="none" xmlns="http://www.w3.org/2000/svg">
<path d="M10.3232 11.613C10.3232 6.27103 14.6587 1.93555 20.0007 1.93555C22.6716 1.93555 25.091 3.01942 26.8394 4.77426C28.5942 6.52264 29.6781 8.942 29.6781 11.613V13.5484C29.6781 12.4775 28.8136 11.613 27.7426 11.613H27.0974H26.7103C25.4071 11.613 24.1361 11.3162 22.9878 10.7614C21.8458 10.213 20.8136 9.40651 20.0007 8.38716C18.3684 10.4259 15.8974 11.613 13.291 11.613H12.9039H12.2587C11.7232 11.613 11.2394 11.8323 10.891 12.1807C10.5426 12.5291 10.3232 13.013 10.3232 13.5484V11.613Z" fill="#656D78"/>
<path d="M27.9746 25.6193L26.4004 25.2967L22.794 24.5612C22.7294 24.458 22.6585 24.3612 22.5811 24.2645C22.5811 24.2645 22.5811 24.2645 22.5811 24.258V22.9548C22.5811 22.7225 22.7036 22.5096 22.9036 22.3935L23.8456 21.858C25.8585 20.7096 27.0972 18.5741 27.0972 16.258V15.4838H27.7423C28.2778 15.4838 28.7617 15.2645 29.1101 14.9161C29.4585 14.5677 29.6778 14.0838 29.6778 13.5483L31.4649 15.3354C31.9746 15.8451 32.2585 16.5354 32.2585 17.258V17.2903C32.2391 18.2 31.7875 19.0258 31.0456 19.5161L30.323 20V20.5096C30.323 21.8064 29.6778 23.0129 28.6004 23.729L28.3875 23.8709C28.3875 24.4967 28.2391 25.0903 27.9746 25.6129V25.6193Z" fill="#656D78"/>
<path d="M10.3228 13.5483C10.3228 14.6193 11.1873 15.4838 12.2583 15.4838H12.9035V16.258C12.9035 18.5741 14.1422 20.7096 16.1551 21.858L17.097 22.3935C17.297 22.5096 17.4196 22.7225 17.4196 22.9548V24.258V24.2645C17.3486 24.3483 17.2841 24.4387 17.2261 24.529L15.5809 24.6451C15.168 24.6709 14.768 24.7354 14.3809 24.8258C13.5615 25.0129 12.7938 25.329 12.1035 25.7548C11.7938 25.2 11.6132 24.5548 11.6132 23.8709L11.4003 23.729C10.3228 23.0129 9.67767 21.8064 9.67767 20.5096V20L8.95509 19.5161C8.1938 19.0129 7.74219 18.1612 7.74219 17.258C7.74219 16.5354 8.02606 15.8451 8.53574 15.3354L10.3228 13.5483Z" fill="#656D78"/>
<path d="M27.0972 37.9551V39.3551H13.5488V37.9551C13.5488 37.2841 13.7037 36.6325 13.9875 36.0389V36.0325L18.7101 34.0131V35.4841C18.7101 35.8389 18.8521 36.1615 19.0908 36.3938C19.323 36.6325 19.6456 36.7744 20.0004 36.7744C20.7101 36.7744 21.2908 36.1938 21.2908 35.4841V31.4196V31.2841C21.2908 30.7809 21.1295 30.3228 20.8521 29.9486L22.5682 27.8906C22.994 27.3744 23.2262 26.7357 23.2262 26.0712C23.2262 25.5164 23.0714 25.0002 22.794 24.5615L26.4004 25.297L26.6521 26.1744C26.9488 27.2131 27.0972 28.2906 27.0972 29.3744C27.0972 29.5228 27.0972 29.6777 27.0843 29.826C27.0391 31.1486 26.7553 32.4583 26.265 33.697L25.8069 34.8389C26.6327 35.6647 27.0972 36.7873 27.0972 37.9551V37.9551Z" fill="#FCD770"/>
<path d="M17.4327 27.8906L18.4521 29.1099C17.7359 29.3035 17.1488 29.8454 16.9101 30.568L16.7746 30.968L13.7875 31.7164C13.6262 30.9487 13.5488 30.1616 13.5488 29.3745C13.5488 28.2906 13.6972 27.2132 13.994 26.1745L14.3811 24.8261C14.7682 24.7357 15.1682 24.6712 15.5811 24.6454L17.2262 24.5293C16.9424 24.9745 16.7746 25.5035 16.7746 26.0712C16.7746 26.7357 17.0069 27.3745 17.4327 27.8906V27.8906Z" fill="#FCD770"/>
<path d="M21.2906 31.4194V35.4839C21.2906 36.1936 20.71 36.7743 20.0003 36.7743C19.6454 36.7743 19.3229 36.6323 19.0906 36.3936C18.8519 36.1614 18.71 35.8388 18.71 35.4839V34.013L19.9293 33.4904C20.7551 33.1356 21.2906 32.3227 21.2906 31.4194V31.4194Z" fill="#969FAA"/>
<path d="M22.7938 24.5616C23.0712 25.0003 23.226 25.5164 23.226 26.0712C23.226 26.7358 22.9938 27.3745 22.568 27.8906L20.8518 29.9487C20.7873 29.8583 20.7099 29.768 20.6325 29.6906C20.226 29.2841 19.6647 29.0325 19.0389 29.0325C18.8389 29.0325 18.6389 29.0583 18.4518 29.1099L17.4325 27.8906C17.0067 27.3745 16.7744 26.7358 16.7744 26.0712C16.7744 25.5035 16.9422 24.9745 17.226 24.5293C17.2841 24.439 17.3486 24.3487 17.4196 24.2648C17.4196 24.2648 17.4196 24.2648 17.4196 24.2583C17.9422 23.6261 18.7357 23.2261 19.6196 23.2261H20.3809C21.168 23.2261 21.8776 23.5422 22.3938 24.0583C22.4583 24.1228 22.5228 24.1874 22.5809 24.2583V24.2648C22.6583 24.3616 22.7293 24.4583 22.7938 24.5616V24.5616Z" fill="#CCD1D9"/>
<path d="M21.2909 31.2837V31.4192C21.2909 32.3225 20.7554 33.1354 19.9296 33.4902L18.7103 34.0128L13.9877 36.0321V36.0386L12.8651 36.516C12.4651 36.6837 12.0329 36.7741 11.6006 36.7741C10.7103 36.7741 9.91028 36.4128 9.32963 35.8321C8.74899 35.2515 8.3877 34.4515 8.3877 33.5612V32.3676C8.3877 29.5805 9.86511 27.1225 12.1038 25.7547C12.7941 25.3289 13.5619 25.0128 14.3812 24.8257L13.9941 26.1741C13.6974 27.2128 13.549 28.2902 13.549 29.3741C13.549 30.1612 13.6264 30.9483 13.7877 31.716L16.7748 30.9676L16.9103 30.5676C17.149 29.845 17.7361 29.3031 18.4522 29.1096C18.6393 29.0579 18.8393 29.0321 19.0393 29.0321C19.6651 29.0321 20.2264 29.2837 20.6329 29.6902C20.7103 29.7676 20.7877 29.8579 20.8522 29.9483C21.1296 30.3225 21.2909 30.7805 21.2909 31.2837V31.2837Z" fill="#F0D0B4"/>
<path d="M27.0972 29.8261H27.0843C27.0972 29.6777 27.0972 29.5229 27.0972 29.3745C27.0972 28.2906 26.9488 27.2132 26.652 26.1745L26.4004 25.2971L27.9746 25.6197L32.0714 26.4519L33.5488 19.3551L32.6391 18.4455C32.3939 18.2003 32.2585 17.8713 32.2585 17.5293V17.4197C32.2585 17.3745 32.2585 17.3293 32.2649 17.2906C32.3294 16.639 32.8843 16.1293 33.5488 16.1293V15.4842C33.5488 14.7745 34.1294 14.1938 34.8391 14.1938H36.1294C36.8391 14.1938 37.4197 14.7745 37.4197 15.4842V26.0842C37.4197 28.7809 35.2327 30.968 32.5359 30.968C32.2262 30.968 31.9165 30.9358 31.6133 30.8777L27.0972 29.8261Z" fill="#F0D0B4"/>
<path d="M27.7428 11.6128C28.8138 11.6128 29.6783 12.4773 29.6783 13.5483C29.6783 14.0838 29.4589 14.5676 29.1106 14.916C28.7622 15.2644 28.2783 15.4838 27.7428 15.4838H27.0977V11.6128H27.7428Z" fill="#F0D0B4"/>
<path d="M27.0969 11.613V15.484V16.2582C27.0969 18.5743 25.8582 20.7098 23.8453 21.8582L22.9033 22.3937C22.7033 22.5098 22.5807 22.7227 22.5807 22.9549V24.2582C22.5227 24.1872 22.4582 24.1227 22.3936 24.0582C21.8775 23.542 21.1678 23.2259 20.3807 23.2259H19.6194C18.7356 23.2259 17.942 23.6259 17.4194 24.2582V22.9549C17.4194 22.7227 17.2969 22.5098 17.0969 22.3937L16.1549 21.8582C14.142 20.7098 12.9033 18.5743 12.9033 16.2582V15.484V11.613H13.2904C15.8969 11.613 18.3678 10.4259 20.0001 8.38721C20.813 9.40656 21.8453 10.213 22.9872 10.7614C24.1356 11.3162 25.4065 11.613 26.7098 11.613H27.0969Z" fill="#F0D0B4"/>
<path d="M12.9039 11.6128V15.4838H12.2587C11.1878 15.4838 10.3232 14.6192 10.3232 13.5483C10.3232 13.0128 10.5426 12.5289 10.891 12.1805C11.2394 11.8321 11.7232 11.6128 12.2587 11.6128H12.9039Z" fill="#F0D0B4"/>
<path d="M1.93583 39.3551C2.64846 39.3551 3.22615 38.7774 3.22615 38.0647C3.22615 37.3521 2.64846 36.7744 1.93583 36.7744C1.2232 36.7744 0.645508 37.3521 0.645508 38.0647C0.645508 38.7774 1.2232 39.3551 1.93583 39.3551Z" fill="#FF826E"/>
<path d="M5.65237 10.284V10.2969C5.42656 10.6969 5.00076 10.9679 4.51689 10.9679C3.80721 10.9679 3.22656 10.3872 3.22656 9.67753C3.22656 8.96785 3.80721 8.38721 4.51689 8.38721C5.22656 8.38721 5.80721 8.96785 5.80721 9.67753C5.80721 9.89688 5.75559 10.1033 5.65237 10.284Z" fill="#FF826E"/>
<path d="M35.4847 9.03231C36.1973 9.03231 36.775 8.45461 36.775 7.74198C36.775 7.02936 36.1973 6.45166 35.4847 6.45166C34.772 6.45166 34.1943 7.02936 34.1943 7.74198C34.1943 8.45461 34.772 9.03231 35.4847 9.03231Z" fill="#FF826E"/>
<path d="M17.4199 18.0645H22.5812C22.5812 18.7741 22.2909 19.4193 21.8264 19.8903C21.3554 20.3548 20.7102 20.6451 20.0006 20.6451C18.5748 20.6451 17.4199 19.4903 17.4199 18.0645Z" fill="#FF826E"/>
<path d="M36.1289 13.5486H34.8386C33.7715 13.5486 32.9031 14.417 32.9031 15.4841V15.5944C32.7747 15.6402 32.6554 15.7028 32.5412 15.7731C32.3799 15.4454 32.178 15.137 31.918 14.8763L30.3225 13.2815V11.6131C30.3225 5.9215 25.6915 1.29053 19.9999 1.29053C14.3083 1.29053 9.67732 5.9215 9.67732 11.6131V13.2815L8.08184 14.877C7.45603 15.5028 7.09668 16.3699 7.09668 17.255C7.09668 18.3821 7.65668 19.4286 8.5941 20.0538L9.03216 20.3454V20.5092C9.03216 21.9976 9.75926 23.3802 10.9812 24.2254C11.0167 24.6763 11.1238 25.1183 11.2902 25.5376C9.14249 27.0673 7.74184 29.5725 7.74184 32.3705V33.5628C7.74184 35.6892 9.47216 37.4196 11.5993 37.4196C12.0735 37.4196 12.5341 37.3299 12.9747 37.1609C12.9322 37.4234 12.9031 37.6886 12.9031 37.9538V40.0002H27.7418V37.9538C27.7418 36.7692 27.3141 35.6067 26.5554 34.7028L26.8638 33.9338C27.2902 32.8673 27.5599 31.7576 27.6754 30.6241L31.4864 31.5092C31.8276 31.5776 32.1805 31.6131 32.5341 31.6131C35.5831 31.6131 38.0644 29.1318 38.0644 26.0828V15.4841C38.0644 14.417 37.196 13.5486 36.1289 13.5486V13.5486ZM32.8457 19.5647L31.5683 25.6912L28.8509 25.137C28.9373 24.8402 28.9954 24.5363 29.0193 24.2247C30.2405 23.3802 30.9676 21.9976 30.9676 20.5092V20.3454L31.4057 20.0538C31.7947 19.7944 32.1141 19.4596 32.3605 19.0789L32.8457 19.5647ZM31.0057 15.7892C31.3915 16.175 31.6128 16.7092 31.6128 17.255C31.6128 17.9499 31.2676 18.5944 30.6896 18.9802L29.6773 19.655V20.5092C29.6773 21.5899 29.1405 22.5931 28.2405 23.1931L27.7418 23.526V23.8712C27.7418 24.2189 27.6838 24.555 27.578 24.8776L23.2257 23.9899V22.955L24.1657 22.4183C26.3709 21.1583 27.7412 18.7976 27.7412 16.257V16.1292H27.7418C28.7173 16.1292 29.5573 15.5796 29.996 14.7796L31.0057 15.7892ZM19.3547 34.4344L20.1805 34.0802C20.3464 34.0092 20.4986 33.9202 20.6451 33.8228V35.4841C20.6451 35.8402 20.356 36.1292 19.9999 36.1292C19.6438 36.1292 19.3547 35.8402 19.3547 35.4841V34.4344ZM20.7999 28.9996C20.3102 28.6215 19.7051 28.3873 19.0405 28.3873C18.9289 28.3873 18.8199 28.4009 18.7109 28.4131L17.9289 27.4738C17.5999 27.0809 17.4193 26.5809 17.4193 26.0679C17.4193 24.8563 18.4044 23.8712 19.616 23.8712H20.3831C21.5954 23.8712 22.5805 24.8563 22.5805 26.0679C22.5805 26.5809 22.3999 27.0802 22.0709 27.4744L20.7999 28.9996ZM14.316 30.9176C14.2431 30.4054 14.1935 29.8892 14.1935 29.3718C14.1935 28.3499 14.336 27.3338 14.6167 26.3518L14.8935 25.3834C15.1335 25.3409 15.376 25.3086 15.6238 25.2905L16.2302 25.2473C16.1664 25.5112 16.1289 25.7854 16.1289 26.0679C16.1289 26.8821 16.416 27.675 16.9373 28.3002L17.4251 28.8854C16.9083 29.2338 16.5018 29.7441 16.2941 30.3667L16.2741 30.4279L14.316 30.9176ZM22.5864 21.835C22.1876 22.0621 21.9393 22.4886 21.936 22.9505C21.4676 22.7157 20.9418 22.5809 20.3838 22.5809H19.6167C19.0586 22.5809 18.5328 22.7157 18.0644 22.9499C18.0618 22.4892 17.8128 22.0621 17.4147 21.835L16.4747 21.2983C14.6702 20.2667 13.5496 18.335 13.5496 16.2576L13.5483 12.2544C16.0154 12.1867 18.318 11.1518 19.9999 9.36988C21.6818 11.1518 23.9844 12.186 26.4515 12.2544L26.4509 16.257C26.4509 18.335 25.3302 20.2667 23.5257 21.2976L22.5864 21.835ZM27.7418 12.2583C28.4535 12.2583 29.0322 12.837 29.0322 13.5486C29.0322 14.2602 28.4535 14.8389 27.7418 14.8389H27.7412L27.7418 12.2583ZM19.9999 2.58085C24.8812 2.58085 28.8599 6.47504 29.0173 11.3189C28.6393 11.1015 28.2076 10.9679 27.7418 10.9679H27.0967H26.7115C24.2831 10.9679 22.0205 9.88021 20.5038 7.98408L19.9999 7.3544L19.496 7.98408C17.9793 9.88021 15.716 10.9679 13.2883 10.9679H12.9031H12.258C11.7922 10.9679 11.3606 11.1015 10.9825 11.3189C11.1399 6.47504 15.1186 2.58085 19.9999 2.58085V2.58085ZM12.2586 14.8389C11.5464 14.8389 10.9676 14.2602 10.9676 13.5486C10.9676 12.837 11.5464 12.2583 12.258 12.2583L12.2586 14.8389ZM12.258 23.8712V23.526L11.7593 23.1931C10.8593 22.5938 10.3225 21.5899 10.3225 20.5092V19.655L9.31023 18.9802C8.73216 18.5944 8.387 17.9499 8.387 17.255C8.387 16.7092 8.60829 16.175 8.9941 15.7892L10.0038 14.7796C10.4425 15.5796 11.2825 16.1292 12.258 16.1292H12.2586V16.257C12.2586 18.7976 13.6289 21.1583 15.8341 22.4183L16.7741 22.955V23.9157L15.5315 24.0047C14.418 24.0841 13.3676 24.3841 12.418 24.8563C12.3167 24.5389 12.258 24.2073 12.258 23.8712V23.8712ZM11.5993 36.1292C10.1838 36.1292 9.03216 34.9776 9.03216 33.5621V32.3699C9.03216 29.4409 10.8438 26.8912 13.427 25.8176L13.376 25.997C13.0631 27.0938 12.9038 28.2292 12.9038 29.3712C12.9038 29.9938 12.967 30.615 13.0612 31.2305L11.1689 31.7034L10.3909 33.2589L11.5451 33.8363L12.0573 32.8112L17.2747 31.5073L17.5186 30.7738C17.738 30.1176 18.3489 29.677 19.0405 29.677C19.9251 29.6776 20.6451 30.3976 20.6451 31.2821V31.4202C20.6451 32.0628 20.2631 32.6415 19.6728 32.8944L12.6102 35.9215C12.2889 36.0596 11.9489 36.1292 11.5993 36.1292V36.1292ZM25.3502 35.295C26.0502 35.995 26.4515 36.9641 26.4515 37.9538V38.7099H14.1935V37.9538C14.1935 37.4647 14.2967 36.9757 14.4838 36.5221L18.0644 34.9873V35.4841C18.0644 36.5512 18.9328 37.4196 19.9999 37.4196C21.067 37.4196 21.9354 36.5512 21.9354 35.4841V31.4202V31.2821C21.9354 30.8267 21.8199 30.4009 21.6322 30.017L23.0625 28.3009C23.5838 27.675 23.8709 26.8821 23.8709 26.0679C23.8709 25.8479 23.8483 25.6338 23.8089 25.4254L25.8844 25.8486L26.0283 26.3531C26.3089 27.3338 26.4515 28.3499 26.4515 29.3718C26.4515 30.777 26.187 32.1505 25.6651 33.4544L25.0489 34.9944L25.3502 35.295ZM36.7741 26.0828C36.7741 28.4209 34.8722 30.3228 32.5341 30.3228C32.2664 30.3228 31.9993 30.2963 31.7593 30.2486L27.7399 29.315C27.7347 28.2402 27.587 27.1731 27.3044 26.1383L31.6096 27.0163L32.3109 28.6421L33.4954 28.1318L32.7425 26.3834L34.2509 19.1447L33.0922 17.986C32.9715 17.866 32.9031 17.7002 32.9031 17.5305V17.4196C32.9031 17.0634 33.1922 16.7744 33.5483 16.7744H34.1935V15.4841C34.1935 15.1279 34.4825 14.8389 34.8386 14.8389H36.1289C36.4851 14.8389 36.7741 15.1279 36.7741 15.4841V26.0828Z" fill="black"/>
<path d="M16.7744 18.0646C16.7744 19.8433 18.2215 21.2904 20.0002 21.2904C21.7789 21.2904 23.226 19.8433 23.226 18.0646V17.4194H16.7744V18.0646ZM21.8254 18.7098C21.5589 19.4607 20.8415 20.0001 20.0002 20.0001C19.1589 20.0001 18.4415 19.4607 18.1751 18.7098H21.8254Z" fill="black"/>
<path d="M2.58065 32.2582V36.2479C2.37806 36.1757 2.16258 36.1292 1.93548 36.1292C0.868387 36.1292 0 36.9976 0 38.0647C0 39.1318 0.868387 40.0002 1.93548 40.0002C3.00258 40.0002 3.87097 39.1318 3.87097 38.0647V32.2582C3.87097 31.9021 4.16 31.6131 4.51613 31.6131H6.45161V30.3228H4.51613C3.44903 30.3228 2.58065 31.1911 2.58065 32.2582ZM1.93548 38.7099C1.57935 38.7099 1.29032 38.4208 1.29032 38.0647C1.29032 37.7086 1.57935 37.4195 1.93548 37.4195C2.29161 37.4195 2.58065 37.7086 2.58065 38.0647C2.58065 38.4208 2.29161 38.7099 1.93548 38.7099Z" fill="black"/>
<path d="M38.065 0C36.9979 0 36.1295 0.868387 36.1295 1.93548V5.92516C35.9269 5.8529 35.7114 5.80645 35.4843 5.80645C34.4172 5.80645 33.5488 6.67484 33.5488 7.74194C33.5488 8.80903 34.4172 9.67742 35.4843 9.67742C36.5514 9.67742 37.4198 8.80903 37.4198 7.74194V1.93548C37.4198 1.57935 37.7088 1.29032 38.065 1.29032H40.0004V0L38.065 0ZM35.4843 8.3871C35.1282 8.3871 34.8392 8.09807 34.8392 7.74194C34.8392 7.38581 35.1282 7.09677 35.4843 7.09677C35.8404 7.09677 36.1295 7.38581 36.1295 7.74194C36.1295 8.09807 35.8404 8.3871 35.4843 8.3871Z" fill="black"/>
<path d="M4.51654 7.7417C3.44944 7.7417 2.58105 8.61009 2.58105 9.67718C2.58105 10.7443 3.44944 11.6127 4.51654 11.6127C4.56622 11.6127 4.61331 11.6017 4.66234 11.5978L3.24557 17.263L4.49654 17.5752L6.26944 10.4849C6.38363 10.2385 6.45202 9.96622 6.45202 9.67718C6.45202 8.61009 5.58363 7.7417 4.51654 7.7417V7.7417ZM3.87138 9.67718C3.87138 9.32105 4.16041 9.03202 4.51654 9.03202C4.87267 9.03202 5.1617 9.32105 5.1617 9.67718C5.1617 10.0333 4.87267 10.3223 4.51654 10.3223C4.16041 10.3223 3.87138 10.0333 3.87138 9.67718Z" fill="black"/>
<path d="M16.7741 14.1936C17.1304 14.1936 17.4192 13.9048 17.4192 13.5485C17.4192 13.1922 17.1304 12.9033 16.7741 12.9033C16.4178 12.9033 16.1289 13.1922 16.1289 13.5485C16.1289 13.9048 16.4178 14.1936 16.7741 14.1936Z" fill="black"/>
<path d="M23.2262 14.1936C23.5825 14.1936 23.8714 13.9048 23.8714 13.5485C23.8714 13.1922 23.5825 12.9033 23.2262 12.9033C22.8699 12.9033 22.5811 13.1922 22.5811 13.5485C22.5811 13.9048 22.8699 14.1936 23.2262 14.1936Z" fill="black"/>
<path d="M19.6432 16.7065L20.3561 16.3498C20.6645 16.1956 20.8941 15.9311 21.0032 15.604C21.1122 15.2769 21.0877 14.9265 20.9335 14.6188L20.6451 14.0414V12.9033H19.3548V14.1936C19.3548 14.2936 19.378 14.393 19.4225 14.482L19.7793 15.1949L19.0664 15.5517L19.6432 16.7065Z" fill="black"/>
</svg>
