<svg width="14" height="14" viewBox="0 0 14 14" fill="none" xmlns="http://www.w3.org/2000/svg">
<path d="M0.660377 11.4404C0.295638 11.4404 0 11.7073 0 12.0363V13.4043C0 13.7333 0.295638 14.0001 0.660377 14.0001C1.02506 14.0001 1.32075 13.7333 1.32075 13.4043V12.0363C1.32075 11.7073 1.02501 11.4404 0.660377 11.4404Z" fill="#900CEA"/>
<path d="M3.8303 8.58008C3.46561 8.58008 3.16992 8.84692 3.16992 9.17593V13.404C3.16992 13.733 3.46561 13.9999 3.8303 13.9999C4.19499 13.9999 4.49068 13.733 4.49068 13.404V9.17593C4.49068 8.84692 4.19493 8.58008 3.8303 8.58008Z" fill="#900CEA"/>
<path d="M7.00022 5.71973C6.63553 5.71973 6.33984 5.98652 6.33984 6.31557V13.4038C6.33984 13.7328 6.63553 13.9996 7.00022 13.9996C7.36486 13.9996 7.6606 13.7328 7.6606 13.4038V6.31557C7.6606 5.98652 7.36486 5.71973 7.00022 5.71973Z" fill="#900CEA"/>
<path d="M10.1701 2.86035C9.80546 2.86035 9.50977 3.12715 9.50977 3.4562V13.4045C9.50977 13.7335 9.80546 14.0003 10.1701 14.0003C10.5348 14.0003 10.8305 13.7335 10.8305 13.4045V3.4562C10.8305 3.12715 10.5348 2.86035 10.1701 2.86035Z" fill="#900CEA"/>
<path d="M13.3401 0C12.9754 0 12.6797 0.266797 12.6797 0.595848V13.4042C12.6797 13.7333 12.9754 14 13.3401 14C13.7048 14 14.0004 13.7333 14.0004 13.4042V0.595848C14.0004 0.266797 13.7048 0 13.3401 0Z" fill="#900CEA"/>
</svg>
