<svg width="35" height="35" viewBox="0 0 35 35" fill="none" xmlns="http://www.w3.org/2000/svg">
<g clip-path="url(#clip0_82_314)">
<path d="M16.9274 6.67334C16.6434 6.67334 16.4131 6.90364 16.4131 7.1877C16.4131 7.47177 16.6434 7.70207 16.9274 7.70207H24.9043C25.1885 7.70207 25.4187 7.47177 25.4187 7.1877C25.4187 6.90364 25.1885 6.67334 24.9043 6.67334H16.9274Z" fill="white"/>
<path d="M35 13.4654C34.9406 11.8703 33.8836 10.4797 32.3953 9.91033C31.4782 9.4018 30.6897 8.72201 30.051 7.88963C29.8781 7.66427 29.5552 7.62168 29.3298 7.79465C29.1044 7.96754 29.0619 8.29043 29.2348 8.51586C29.9613 9.4629 30.8589 10.2358 31.9028 10.8136C31.9318 10.8317 31.9631 10.8471 31.9963 10.8594C33.1156 11.2735 33.8675 12.3114 33.9119 13.5037L33.9517 14.5702H29.0769C27.2709 11.6057 24.0077 9.62215 20.2899 9.62215C16.5721 9.62215 13.3089 11.6057 11.5029 14.5702H1.25745L2.12638 12.2605C2.39351 11.5505 2.96219 11.0138 3.68656 10.788C3.69746 10.7845 3.70823 10.7808 3.71879 10.7767L11.0539 8.72908C12.5715 8.30545 13.8064 7.23564 14.4419 5.7939C15.0597 4.39229 16.4487 3.48667 17.9804 3.48667H24.2383C25.7865 3.48667 27.1814 4.40601 27.7919 5.82881L28.1508 6.66538C28.2628 6.9264 28.5652 7.04731 28.8263 6.93525C29.0874 6.82325 29.2082 6.52074 29.0963 6.25971L28.7374 5.42322C27.9644 3.62191 26.1984 2.45801 24.2383 2.45801H17.9804C16.0412 2.45801 14.2828 3.60456 13.5005 5.37905C13.1492 6.17604 12.5699 6.83169 11.8456 7.27418L11.734 6.87736C11.4825 5.98278 10.5499 5.4595 9.65525 5.71119L7.1147 6.42561C6.22018 6.6771 5.69704 7.60968 5.9486 8.50433L6.10037 9.04387L3.38651 9.80143C3.36258 9.80808 3.33946 9.81638 3.31724 9.82618C2.31821 10.1582 1.53535 10.9101 1.16363 11.8982L0.0329879 14.9034C0.0113846 14.9606 0 15.0235 0 15.0846V26.2426C0 26.5267 0.230298 26.757 0.514365 26.757C0.798432 26.757 1.02873 26.5267 1.02873 26.2426V15.5989H6.52373V31.5137H2.57182C1.72093 31.5137 1.02873 30.8215 1.02873 29.9706V28.3C1.02873 28.016 0.798432 27.7857 0.514365 27.7857C0.230298 27.7857 0 28.016 0 28.3V29.9706C0 31.3887 1.15369 32.5424 2.57182 32.5424H32.4282C33.8463 32.5424 35 31.3887 35 29.9706V13.4654ZM6.93892 8.22582C6.89146 8.05697 6.91252 7.87976 6.99838 7.72675C7.08418 7.57381 7.22443 7.4634 7.39328 7.41587L9.93383 6.70145C10.2825 6.60331 10.6458 6.80727 10.7438 7.15581L10.8973 7.70124C10.8574 7.71365 10.8178 7.72703 10.7774 7.73834L7.09124 8.76735L6.93892 8.22582ZM30.3723 17.887C31.3484 18.0391 32.0978 18.8853 32.0978 19.9035C32.0978 20.9216 31.3484 21.7679 30.3723 21.9199C30.5025 21.2676 30.5714 20.5934 30.5714 19.9035C30.5714 19.2135 30.5025 18.5393 30.3723 17.887ZM20.2901 10.6508C25.392 10.6508 29.5427 14.8015 29.5427 19.9034C29.5427 25.0053 25.392 29.156 20.2901 29.156C15.1882 29.156 11.0374 25.0053 11.0374 19.9034C11.0374 14.8015 15.1881 10.6508 20.2901 10.6508ZM32.4282 31.5137H7.55246V15.5989H10.9545C10.3479 16.9091 10.0087 18.3673 10.0087 19.9035C10.0087 25.5727 14.6209 30.1848 20.2901 30.1848C24.8909 30.1848 28.7955 27.147 30.1037 22.9718C31.7748 22.9467 33.1266 21.5804 33.1266 19.9035C33.1266 18.2265 31.7748 16.8602 30.1037 16.8351C29.9707 16.4105 29.8104 15.9979 29.6256 15.5989H33.9713V29.9706C33.9713 30.8215 33.279 31.5137 32.4282 31.5137Z" fill="white"/>
<path d="M20.2905 27.9703C24.7386 27.9703 28.3575 24.3515 28.3575 19.9034C28.3575 15.4553 24.7386 11.8364 20.2905 11.8364C18.8816 11.8364 17.4946 12.2052 16.2794 12.9029C16.0331 13.0444 15.948 13.3587 16.0895 13.6051C16.2309 13.8514 16.5453 13.9365 16.7917 13.7951C17.8513 13.1867 19.0612 12.8652 20.2906 12.8652C24.1715 12.8652 27.3288 16.0225 27.3288 19.9034C27.3288 23.7842 24.1715 26.9416 20.2906 26.9416C16.4097 26.9416 13.2524 23.7842 13.2524 19.9034C13.2524 18.0234 13.9845 16.2559 15.3138 14.9266C15.5147 14.7257 15.5147 14.4 15.3138 14.1991C15.1129 13.9983 14.7872 13.9983 14.5864 14.1991C13.0628 15.7228 12.2236 17.7485 12.2236 19.9033C12.2235 24.3515 15.8424 27.9703 20.2905 27.9703Z" fill="white"/>
<path d="M24.3438 19.9034C24.3438 17.6679 22.5251 15.8491 20.2896 15.8491C18.054 15.8491 16.2354 17.6679 16.2354 19.9034C16.2354 22.1389 18.0541 23.9576 20.2896 23.9576C22.5251 23.9577 24.3438 22.1389 24.3438 19.9034ZM17.264 19.9034C17.264 18.2351 18.6213 16.8779 20.2895 16.8779C21.9578 16.8779 23.315 18.2351 23.315 19.9034C23.315 21.5716 21.9578 22.9289 20.2895 22.9289C18.6213 22.9289 17.264 21.5717 17.264 19.9034Z" fill="white"/>
<path d="M4.18262 12.4457C4.18262 13.3747 4.93853 14.1306 5.86754 14.1306C6.79662 14.1306 7.55246 13.3747 7.55246 12.4457C7.55246 11.5166 6.79662 10.7607 5.86754 10.7607C4.93846 10.7607 4.18262 11.5166 4.18262 12.4457ZM6.52373 12.4457C6.52373 12.8075 6.22938 13.1019 5.86754 13.1019C5.5057 13.1019 5.21135 12.8074 5.21135 12.4457C5.21135 12.0838 5.5057 11.7895 5.86754 11.7895C6.22938 11.7895 6.52373 12.0838 6.52373 12.4457Z" fill="white"/>
</g>
<defs>
<clipPath id="clip0_82_314">
<rect width="35" height="35" fill="white"/>
</clipPath>
</defs>
</svg>
