<svg width="35" height="35" viewBox="0 0 35 35" fill="none" xmlns="http://www.w3.org/2000/svg">
<path d="M33.9062 26.7969H31.7188V10.1172C31.7182 9.60972 31.5163 9.12319 31.1575 8.76436C30.7987 8.40553 30.3122 8.20369 29.8047 8.20312H28.4375V3.28125C28.4375 3.13621 28.3799 2.99711 28.2773 2.89455C28.1748 2.79199 28.0357 2.73438 27.8906 2.73438H14.7656C14.6206 2.73438 14.4815 2.79199 14.3789 2.89455C14.2764 2.99711 14.2188 3.13621 14.2188 3.28125V8.20312H5.19531C4.68784 8.20369 4.20132 8.40553 3.84249 8.76436C3.48365 9.12319 3.28181 9.60972 3.28125 10.1172V26.7969H1.09375C0.94871 26.7969 0.80961 26.8545 0.707051 26.9571C0.604492 27.0596 0.546875 27.1987 0.546875 27.3438V30.3516C0.547436 30.859 0.749276 31.3456 1.10811 31.7044C1.46695 32.0632 1.95347 32.2651 2.46094 32.2656H32.5391C33.0465 32.2651 33.5331 32.0632 33.8919 31.7044C34.2507 31.3456 34.4526 30.859 34.4531 30.3516V27.3438C34.4531 27.1987 34.3955 27.0596 34.2929 26.9571C34.1904 26.8545 34.0513 26.7969 33.9062 26.7969ZM15.3125 3.82812H27.3438V11.4844H19.1406C18.9956 11.4843 18.8564 11.5419 18.7537 11.6443L17.5 12.8987V12.0312C17.5 11.8862 17.4424 11.7471 17.3398 11.6446C17.2373 11.542 17.0982 11.4844 16.9531 11.4844H15.3125V3.82812ZM14.7656 12.5781H16.4062V14.2188C16.4062 14.327 16.4382 14.4328 16.4983 14.5228C16.5584 14.6128 16.6438 14.683 16.7438 14.7244C16.8438 14.7658 16.9538 14.7767 17.0599 14.7555C17.1661 14.7344 17.2636 14.6822 17.34 14.6057L19.3669 12.5781H27.8906C28.0357 12.5781 28.1748 12.5205 28.2773 12.4179C28.3799 12.3154 28.4375 12.1763 28.4375 12.0312V10.9375H28.9844V25.1562H17.5V24.0625C17.4991 23.1925 17.1531 22.3585 16.5379 21.7433C15.9228 21.1282 15.0887 20.7822 14.2188 20.7812H13.6719V20.3396C14.1703 20.0518 14.5843 19.6378 14.8723 19.1394C15.1603 18.641 15.3121 18.0756 15.3125 17.5V15.3125C15.3125 15.2968 15.3118 15.2817 15.3104 15.266C15.2821 14.4292 14.9425 13.6331 14.3582 13.0334C14.0584 12.7175 13.6975 12.4658 13.2976 12.2936C12.8976 12.1213 12.4668 12.0321 12.0312 12.0312C11.1613 12.0322 10.3272 12.3782 9.71208 12.9933C9.09692 13.6085 8.75092 14.4425 8.75 15.3125V17.5C8.75043 18.0756 8.90225 18.641 9.19021 19.1394C9.47818 19.6378 9.89216 20.0518 10.3906 20.3396V20.7812H9.84375C8.97379 20.7822 8.13973 21.1282 7.52458 21.7433C6.90942 22.3585 6.56342 23.1925 6.5625 24.0625V25.1562H6.01562V10.9375H14.2188V12.0312C14.2188 12.1763 14.2764 12.3154 14.3789 12.4179C14.4815 12.5205 14.6206 12.5781 14.7656 12.5781ZM14.7656 24.0625C14.6206 24.0625 14.4815 24.1201 14.3789 24.2227C14.2764 24.3252 14.2188 24.4643 14.2188 24.6094V25.1562H9.84375V24.6094C9.84375 24.4643 9.78613 24.3252 9.68357 24.2227C9.58102 24.1201 9.44192 24.0625 9.29688 24.0625C9.15183 24.0625 9.01273 24.1201 8.91018 24.2227C8.80762 24.3252 8.75 24.4643 8.75 24.6094V25.1562H7.65625V24.0625C7.6569 23.4825 7.88758 22.9265 8.29767 22.5164C8.70777 22.1063 9.26379 21.8757 9.84375 21.875H10.485C10.5979 22.1948 10.8073 22.4718 11.0843 22.6676C11.3612 22.8635 11.692 22.9687 12.0312 22.9687C12.3705 22.9687 12.7013 22.8635 12.9782 22.6676C13.2552 22.4718 13.4646 22.1948 13.5775 21.875H14.2188C14.7987 21.8757 15.3547 22.1063 15.7648 22.5164C16.1749 22.9265 16.4056 23.4825 16.4062 24.0625V25.1562H15.3125V24.6094C15.3125 24.4643 15.2549 24.3252 15.1523 24.2227C15.0498 24.1201 14.9107 24.0625 14.7656 24.0625ZM10.2778 16.4254C11.1624 16.4254 12.5296 16.2654 14.2188 15.5511V17.5C14.2188 18.0802 13.9883 18.6366 13.578 19.0468C13.1678 19.457 12.6114 19.6875 12.0312 19.6875C11.4511 19.6875 10.8947 19.457 10.4845 19.0468C10.0742 18.6366 9.84375 18.0802 9.84375 17.5V16.4117C9.97227 16.4199 10.1165 16.4254 10.2778 16.4254ZM9.84375 15.3152V15.3125C9.8444 14.7325 10.0751 14.1765 10.4852 13.7664C10.8953 13.3563 11.4513 13.1257 12.0312 13.125C12.896 13.125 13.6623 13.6746 14.0144 14.4471C12.6581 15.0514 11.5452 15.2517 10.8213 15.3098C10.4961 15.3368 10.1692 15.3387 9.84375 15.3152ZM12.5781 20.7348V21.3281C12.5781 21.4732 12.5205 21.6123 12.4179 21.7148C12.3154 21.8174 12.1763 21.875 12.0312 21.875C11.8862 21.875 11.7471 21.8174 11.6446 21.7148C11.542 21.6123 11.4844 21.4732 11.4844 21.3281V20.7348C11.8463 20.7967 12.2162 20.7967 12.5781 20.7348ZM4.375 10.1172C4.37518 9.89968 4.46166 9.69114 4.61546 9.53734C4.76926 9.38354 4.97781 9.29706 5.19531 9.29688H14.2188V9.84375H5.46875C5.32371 9.84375 5.18461 9.90137 5.08205 10.0039C4.97949 10.1065 4.92188 10.2456 4.92188 10.3906V25.7031C4.92188 25.8482 4.97949 25.9873 5.08205 26.0898C5.18461 26.1924 5.32371 26.25 5.46875 26.25H29.5312C29.6763 26.25 29.8154 26.1924 29.9179 26.0898C30.0205 25.9873 30.0781 25.8482 30.0781 25.7031V10.3906C30.0781 10.2456 30.0205 10.1065 29.9179 10.0039C29.8154 9.90137 29.6763 9.84375 29.5312 9.84375H28.4375V9.29688H29.8047C30.0222 9.29706 30.2307 9.38354 30.3845 9.53734C30.5383 9.69114 30.6248 9.89968 30.625 10.1172V26.7969H4.375V10.1172ZM20.5693 27.8906L20.3868 28.4375H14.6132L14.4307 27.8906H20.5693ZM33.3594 30.3516C33.3592 30.5691 33.2727 30.7776 33.1189 30.9314C32.9651 31.0852 32.7566 31.1717 32.5391 31.1719H2.46094C2.24343 31.1717 2.03489 31.0852 1.88109 30.9314C1.72729 30.7776 1.64081 30.5691 1.64062 30.3516V27.8906H13.2774L13.6999 29.1573C13.7362 29.2662 13.8058 29.3609 13.899 29.428C13.9921 29.4951 14.104 29.5313 14.2188 29.5312H20.7812C20.896 29.5313 21.0079 29.4951 21.101 29.428C21.1942 29.3609 21.2638 29.2662 21.3001 29.1573L21.7226 27.8906H33.3594V30.3516Z" fill="white"/>
</svg>
