<svg width="36" height="36" viewBox="0 0 36 36" fill="none" xmlns="http://www.w3.org/2000/svg">
<path d="M35.6739 16.936C35.4765 16.8541 35.2492 16.8993 35.098 17.0504L33.5155 18.633V7.87294C33.5155 7.58107 33.2789 7.34454 32.9871 7.34454H28.9272L30.4009 5.87079C30.4011 5.87057 30.4014 5.87029 30.4016 5.87008L31.8216 4.45005C32.1258 4.14581 32.2934 3.74109 32.2934 3.31077C32.2934 2.88046 32.1258 2.47588 31.8216 2.1715L30.1795 0.529415C29.8753 0.225172 29.4706 0.0576172 29.0402 0.0576172C28.6099 0.0576172 28.2053 0.225172 27.901 0.529415L26.4802 1.95015L24.7635 3.66691L21.0859 7.34447H4.68423V2.11707C4.68423 1.82521 4.44763 1.58867 4.15583 1.58867C1.86434 1.58882 0 3.45302 0 5.74464V28.1875C0 28.2265 0.00450001 28.2644 0.0125157 28.301C0.0855002 29.2734 0.506181 30.1768 1.20924 30.8626C1.96074 31.5956 2.95278 31.9992 4.00269 31.9992H20.1491L17.1082 35.0402C16.9571 35.1914 16.9119 35.4185 16.9937 35.6161C17.0754 35.8135 17.2682 35.9422 17.4818 35.9422H35.4717C35.7635 35.9422 36.0001 35.7057 36.0001 35.4138V17.4241C36.0001 17.2105 35.8713 17.0177 35.6739 16.936ZM28.6484 1.27677C28.8644 1.06063 29.2163 1.06063 29.4323 1.27677L31.0745 2.91892C31.2906 3.13499 31.2906 3.48676 31.0745 3.70291L30.0274 4.75L27.6012 2.32386L28.6484 1.27677ZM26.8539 3.07115L29.2801 5.49721L28.3105 6.46675L25.8845 4.04069L26.8539 3.07115ZM34.9434 23.3615H33.9685C33.6767 23.3615 33.4401 23.598 33.4401 23.8899C33.4401 24.1817 33.6767 24.4183 33.9685 24.4183H34.9434V26.0106H33.9685C33.6767 26.0106 33.4401 26.2471 33.4401 26.539C33.4401 26.8308 33.6767 27.0674 33.9685 27.0674H34.9434V28.6596H33.9685C33.6767 28.6596 33.4401 28.8961 33.4401 29.188C33.4401 29.4799 33.6767 29.7164 33.9685 29.7164H34.9434V31.3087H33.9685C33.6767 31.3087 33.4401 31.5453 33.4401 31.8371C33.4401 32.129 33.6767 32.3655 33.9685 32.3655H34.9434V34.8856H18.7574L24.0947 29.5484C24.3011 29.342 24.3011 29.0075 24.0947 28.8011C24.071 28.7774 24.0456 28.7569 24.0189 28.7386C23.8132 28.5977 23.5301 28.6185 23.3474 28.8011L21.2059 30.9426H4.00276C2.40019 30.9426 1.1101 29.6914 1.05933 28.0918C1.06235 27.9914 1.07016 27.8918 1.08267 27.7934C1.08274 27.7928 1.08281 27.7922 1.08289 27.7917C1.08879 27.7449 1.09589 27.6984 1.10398 27.6521C1.10489 27.6468 1.10588 27.6415 1.10679 27.6363C1.11417 27.595 1.12247 27.5539 1.13154 27.513C1.13407 27.5016 1.13674 27.4902 1.13942 27.4789C1.14743 27.4443 1.15608 27.4099 1.16536 27.3757C1.17042 27.3571 1.1757 27.3388 1.18111 27.3203C1.18885 27.2934 1.19686 27.2666 1.20537 27.2401C1.21388 27.2136 1.22295 27.1874 1.23216 27.1612C1.23856 27.1428 1.24489 27.1245 1.25178 27.1063C1.26464 27.0717 1.27828 27.0374 1.29235 27.0035C1.29635 26.9937 1.30029 26.9838 1.30444 26.974C1.32251 26.9318 1.34128 26.8901 1.36111 26.8489C1.36196 26.8472 1.36273 26.8454 1.36357 26.8436C1.77687 25.9884 2.57176 25.3507 3.52569 25.1528C3.52836 25.1523 3.53103 25.1516 3.5337 25.1511C3.57744 25.1421 3.62159 25.1345 3.66603 25.1274C3.67341 25.1262 3.6808 25.1247 3.68832 25.1236C3.72847 25.1175 3.76904 25.1127 3.80961 25.1081C3.821 25.1068 3.83232 25.1051 3.84378 25.104C3.88295 25.1 3.92246 25.0974 3.96198 25.095C3.97449 25.0942 3.98701 25.0929 3.99952 25.0922C4.05127 25.0896 4.10345 25.0883 4.15583 25.0883C4.44763 25.0883 4.68423 24.8518 4.68423 24.5599V20.7286C4.68423 20.4368 4.44763 20.2002 4.15583 20.2002C3.86403 20.2002 3.62743 20.4368 3.62743 20.7286V24.0647C2.73516 24.1776 1.90695 24.5756 1.25389 25.2133C1.18519 25.2804 1.12008 25.3501 1.05666 25.421V5.74464C1.05666 4.21598 2.16943 2.94212 3.62736 2.69054V7.87294V18.6151V18.6152C3.62736 18.907 3.86396 19.1436 4.15576 19.1436C4.44756 19.1436 4.68416 18.907 4.68416 18.6152V18.6151V8.40134H20.0292L17.1081 11.3224C16.9018 11.5288 16.9018 11.8633 17.1081 12.0697C17.3145 12.276 17.649 12.276 17.8553 12.0697L21.6784 8.24658C21.6786 8.24644 21.6787 8.2463 21.6788 8.24623L25.1371 4.7879L27.5631 7.21404L27.2785 7.49866C27.2783 7.49887 27.278 7.49908 27.2778 7.4993L16.6235 18.1538L14.1974 15.7277L16.2975 13.6276C16.5039 13.4212 16.5039 13.0867 16.2975 12.8803C16.0911 12.674 15.7566 12.674 15.5503 12.8803L13.0765 15.3541C13.0632 15.3673 13.0509 15.3813 13.0393 15.3956C13.0354 15.4004 13.032 15.4055 13.0283 15.4105C13.0208 15.4204 13.0135 15.4304 13.0067 15.4408C13.0028 15.4469 12.9993 15.4531 12.9957 15.4593C12.9898 15.4692 12.9842 15.4791 12.9791 15.4893C12.9757 15.496 12.9727 15.5026 12.9696 15.5095C12.9649 15.5199 12.9605 15.5304 12.9565 15.541C12.9551 15.5447 12.9533 15.5482 12.9519 15.5519L11.9225 18.4681L11.2206 20.4565C11.2114 20.4829 11.2047 20.5098 11.1997 20.5369H9.44243C9.15063 20.5369 8.91403 20.7734 8.91403 21.0653C8.91403 21.3571 9.15063 21.5937 9.44243 21.5937H24.0755C24.3673 21.5937 24.6039 21.3571 24.6039 21.0653C24.6039 20.7734 24.3673 20.5369 24.0755 20.5369H13.5769L16.7993 19.3994C16.802 19.3984 16.8045 19.397 16.8072 19.3961C16.8197 19.3914 16.832 19.3862 16.8442 19.3807C16.849 19.3784 16.8539 19.3763 16.8586 19.374C16.8712 19.3676 16.8837 19.3607 16.8959 19.3532C16.8999 19.3508 16.9039 19.3487 16.9078 19.3462C16.9205 19.338 16.9329 19.3291 16.9451 19.3197C16.9481 19.3174 16.9513 19.3153 16.9542 19.3129C16.9689 19.3011 16.9833 19.2884 16.997 19.2748L27.8704 8.40141H32.4586V19.6898L24.9003 27.2482C24.6939 27.4547 24.6939 27.7891 24.9003 27.9955C24.9132 28.0084 24.9266 28.0205 24.9405 28.0318C25.0373 28.1107 25.1557 28.1503 25.2739 28.1503C25.3922 28.1503 25.5106 28.1107 25.6074 28.0318C25.6213 28.0205 25.6347 28.0084 25.6476 27.9955C25.6478 27.9953 25.6476 27.9955 25.6478 27.9953L34.9434 18.6996V23.3615ZM15.657 18.6817L14.1435 19.2161L13.135 18.2076L13.6693 16.6941L15.657 18.6817Z" fill="#FFF3F3"/>
</svg>
