<svg width="35" height="35" viewBox="0 0 35 35" fill="none" xmlns="http://www.w3.org/2000/svg">
<path d="M30.625 18.3367V7.6125C32.4773 7.34562 33.9062 5.75258 33.9062 3.82812C33.9062 1.71773 32.1891 0 30.0781 0C27.9672 0 26.25 1.71773 26.25 3.82812H0V25.7031H16.4341C16.7185 30.2728 20.5166 33.9062 25.1562 33.9062C29.9808 33.9062 33.9062 29.9808 33.9062 25.1562C33.9062 22.4005 32.6227 19.9418 30.625 18.3367ZM30.0781 1.09375C31.5859 1.09375 32.8125 2.32039 32.8125 3.82812C32.8125 5.33586 31.5859 6.5625 30.0781 6.5625C28.5704 6.5625 27.3438 5.33586 27.3438 3.82812C27.3438 2.32039 28.5704 1.09375 30.0781 1.09375ZM1.09375 4.92188H26.4113C26.542 5.35828 26.7498 5.76023 27.0167 6.1168L23.672 9.46148C23.4577 9.35867 23.2214 9.29688 22.9688 9.29688C22.7161 9.29688 22.4798 9.35867 22.266 9.46148L21.1641 8.35953C21.2663 8.14516 21.3281 7.90891 21.3281 7.65625C21.3281 6.75172 20.592 6.01562 19.6875 6.01562C18.783 6.01562 18.0469 6.75172 18.0469 7.65625C18.0469 7.90891 18.1087 8.14516 18.2115 8.35898L15.4689 11.1016C15.2545 10.9993 15.0183 10.9375 14.7656 10.9375C13.8611 10.9375 13.125 11.6736 13.125 12.5781C13.125 13.4827 13.8611 14.2188 14.7656 14.2188C15.6702 14.2188 16.4062 13.4827 16.4062 12.5781C16.4062 12.3255 16.3445 12.0892 16.2416 11.8754L18.9842 9.13281C19.1986 9.23508 19.4348 9.29688 19.6875 9.29688C19.9402 9.29688 20.1764 9.23508 20.3902 9.13227L21.4922 10.2342C21.3899 10.4486 21.3281 10.6848 21.3281 10.9375C21.3281 11.842 22.0642 12.5781 22.9688 12.5781C23.8733 12.5781 24.6094 11.842 24.6094 10.9375C24.6094 10.6848 24.5476 10.4486 24.4448 10.2348L27.79 6.89008C28.2904 7.26523 28.8843 7.51953 29.5312 7.61305V17.5908C28.2423 16.8421 26.7509 16.4062 25.1562 16.4062C22.5422 16.4062 20.1983 17.5645 18.5938 19.3884V16.9531H15.3125V23.5156H16.5659C16.4981 23.8727 16.4571 24.2386 16.4341 24.6094H1.09375V4.92188ZM22.9688 10.3906C23.2701 10.3906 23.5156 10.6356 23.5156 10.9375C23.5156 11.2394 23.2701 11.4844 22.9688 11.4844C22.6674 11.4844 22.4219 11.2394 22.4219 10.9375C22.4219 10.6356 22.6674 10.3906 22.9688 10.3906ZM19.1406 7.65625C19.1406 7.35437 19.3862 7.10938 19.6875 7.10938C19.9888 7.10938 20.2344 7.35437 20.2344 7.65625C20.2344 7.95813 19.9888 8.20312 19.6875 8.20312C19.3862 8.20312 19.1406 7.95813 19.1406 7.65625ZM15.3125 12.5781C15.3125 12.88 15.067 13.125 14.7656 13.125C14.4643 13.125 14.2188 12.88 14.2188 12.5781C14.2188 12.2762 14.4643 12.0312 14.7656 12.0312C15.067 12.0312 15.3125 12.2762 15.3125 12.5781ZM25.1562 29.5312C22.744 29.5312 20.7812 27.5685 20.7812 25.1562C20.7812 22.744 22.744 20.7812 25.1562 20.7812C27.5685 20.7812 29.5312 22.744 29.5312 25.1562C29.5312 27.5685 27.5685 29.5312 25.1562 29.5312ZM17.5 20.9295C17.238 21.402 17.0215 21.9013 16.8498 22.4219H16.4062V18.0469H17.5V20.9295ZM24.6094 17.5279V19.7154C21.8498 19.991 19.6875 22.3256 19.6875 25.1562C19.6875 25.9563 19.8647 26.7148 20.1748 27.4006L18.2777 28.496C17.7844 27.4854 17.5 26.3545 17.5 25.1562C17.5 21.1192 20.6429 17.8101 24.6094 17.5279ZM25.1562 32.8125C22.5236 32.8125 20.1972 31.4765 18.8191 29.4465L20.7238 28.3467C21.718 29.7237 23.3319 30.625 25.1562 30.625C26.9806 30.625 28.5945 29.7237 29.5887 28.3467L31.4934 29.4465C30.1153 31.4765 27.7889 32.8125 25.1562 32.8125ZM32.0348 28.496L30.1377 27.4006C30.4478 26.7148 30.625 25.9563 30.625 25.1562C30.625 22.3256 28.4627 19.9905 25.7031 19.7154V17.5279C29.6696 17.8101 32.8125 21.1192 32.8125 25.1562C32.8125 26.3545 32.5281 27.4854 32.0348 28.496Z" fill="white"/>
<path d="M25.1562 21.875C23.3466 21.875 21.875 23.3466 21.875 25.1562C21.875 26.9659 23.3466 28.4375 25.1562 28.4375C26.9659 28.4375 28.4375 26.9659 28.4375 25.1562C28.4375 23.3466 26.9659 21.875 25.1562 21.875ZM25.1562 27.3438C23.9498 27.3438 22.9688 26.3627 22.9688 25.1562C22.9688 23.9498 23.9498 22.9688 25.1562 22.9688C26.3627 22.9688 27.3438 23.9498 27.3438 25.1562C27.3438 26.3627 26.3627 27.3438 25.1562 27.3438Z" fill="white"/>
<path d="M2.1875 6.01562H3.28125V7.10938H2.1875V6.01562Z" fill="white"/>
<path d="M4.375 6.01562H12.0312V7.10938H4.375V6.01562Z" fill="white"/>
<path d="M2.1875 8.20312H3.28125V9.29688H2.1875V8.20312Z" fill="white"/>
<path d="M4.375 8.20312H12.0312V9.29688H4.375V8.20312Z" fill="white"/>
<path d="M2.1875 10.3906H3.28125V11.4844H2.1875V10.3906Z" fill="white"/>
<path d="M4.375 10.3906H12.0312V11.4844H4.375V10.3906Z" fill="white"/>
<path d="M2.1875 12.5781H3.28125V13.6719H2.1875V12.5781Z" fill="white"/>
<path d="M4.375 12.5781H12.0312V13.6719H4.375V12.5781Z" fill="white"/>
<path d="M2.1875 23.5156H5.46875V18.0469H2.1875V23.5156ZM3.28125 19.1406H4.375V22.4219H3.28125V19.1406Z" fill="white"/>
<path d="M6.5625 23.5156H9.84375V19.1406H6.5625V23.5156ZM7.65625 20.2344H8.75V22.4219H7.65625V20.2344Z" fill="white"/>
<path d="M10.9375 23.5156H14.2188V14.7656H10.9375V23.5156ZM12.0312 15.8594H13.125V22.4219H12.0312V15.8594Z" fill="white"/>
</svg>
