<svg width="56" height="57" viewBox="0 0 56 57" fill="none" xmlns="http://www.w3.org/2000/svg">
<path d="M28.0312 56.2002C43.2055 56.2002 55.5067 43.7202 55.5067 28.3254C55.5067 12.9306 43.2055 0.450684 28.0312 0.450684C12.8569 0.450684 0.555664 12.9306 0.555664 28.3254C0.555664 43.7202 12.8569 56.2002 28.0312 56.2002Z" fill="#27D1B3"/>
<path d="M55.5069 28.3254C55.5069 43.7199 43.2054 56.2002 28.0314 56.2002C27.441 56.2002 26.8549 56.1811 26.2745 56.1441C40.6259 55.221 51.9854 43.1187 51.9854 28.3254C51.9854 13.5322 40.6259 1.4299 26.2744 0.50676C26.8548 0.469739 27.4408 0.450684 28.0313 0.450684C43.2054 0.450684 55.5069 12.9309 55.5069 28.3254Z" fill="#20B69F"/>
<path d="M28.032 51.1094C40.4351 51.1094 50.4898 40.9087 50.4898 28.3253C50.4898 15.742 40.4351 5.54126 28.032 5.54126C15.6289 5.54126 5.57422 15.742 5.57422 28.3253C5.57422 40.9087 15.6289 51.1094 28.032 51.1094Z" fill="#F2EFF2"/>
<path d="M50.4895 28.3252C50.4895 40.9087 40.4346 51.1096 28.0314 51.1096C27.2917 51.1096 26.5609 51.0737 25.84 51.0019C37.2138 49.8847 46.1055 40.1582 46.1055 28.3252C46.1055 16.4922 37.2138 6.76564 25.8398 5.64846C26.5608 5.5767 27.2916 5.54077 28.0313 5.54077C40.4346 5.54077 50.4895 15.7417 50.4895 28.3252Z" fill="#E1DDE1"/>
<path d="M11.9433 18.4004C12.0851 18.497 12.2458 18.5434 12.4048 18.5434C12.6718 18.5434 12.934 18.4128 13.094 18.171C15.6275 14.3431 19.4439 11.6485 23.84 10.5837C24.2856 10.4758 24.5604 10.0219 24.4541 9.57003C24.3477 9.11805 23.9007 8.83897 23.455 8.94709C20.7563 9.60074 18.2581 10.8161 16.0962 12.4971L14.4429 10.4982C14.1486 10.1422 13.6255 10.0957 13.2747 10.3945C12.9238 10.6931 12.8781 11.2238 13.1725 11.5798L14.8245 13.5772C13.659 14.6537 12.6139 15.8778 11.7171 17.233C11.4618 17.6187 11.5629 18.1414 11.9433 18.4004Z" fill="#27D1B3"/>
<path d="M39.8095 28.8862C39.3719 28.8654 38.9983 29.194 38.9467 29.6353C38.6809 31.9056 37.7283 34.057 36.2207 35.7629C35.9149 36.1089 35.9435 36.6408 36.2844 36.9509C36.4428 37.0949 36.6407 37.1658 36.8377 37.1658C37.0652 37.1658 37.2916 37.0714 37.4554 36.8862C39.1944 34.9184 40.2919 32.4364 40.5953 29.8178C40.6513 29.3361 40.2871 28.9089 39.8095 28.8862Z" fill="#B5ADB6"/>
<path d="M20.559 17.9796L19.2057 16.3434C19.8559 15.8488 20.5471 15.4075 21.2727 15.0271C21.6796 14.8136 21.839 14.3061 21.6287 13.8933C21.4183 13.4803 20.9177 13.3193 20.5114 13.5322C17.2757 15.2288 14.6544 18.0098 13.1301 21.3625C12.9383 21.7845 13.1199 22.2844 13.5359 22.4788C13.6483 22.5314 13.7665 22.5564 13.8826 22.5564C14.1961 22.5564 14.4962 22.3749 14.6362 22.0671C15.4319 20.3168 16.5621 18.7416 17.9381 17.4281L19.2895 19.0621C17.3973 20.9067 16.0847 23.3303 15.5975 26.0045C15.5888 26.0344 15.5813 26.065 15.5758 26.0965C15.5712 26.1229 15.5682 26.1494 15.566 26.1756C15.4805 26.6836 15.4239 27.2 15.3997 27.7233C15.3783 28.1874 15.7318 28.5814 16.1892 28.6032C16.2025 28.6037 16.2156 28.604 16.2287 28.604C16.6688 28.604 17.0355 28.2529 17.0564 27.8022C17.0654 27.608 17.0812 27.4154 17.1 27.2234L19.808 27.7079C19.8569 27.7167 19.9052 27.7208 19.953 27.7208C20.3479 27.7208 20.6977 27.4336 20.7687 27.0256C20.8482 26.568 20.5472 26.1316 20.0961 26.051L17.3889 25.5666C18.3228 21.8771 21.0869 18.8421 24.7584 17.6791C25.1955 17.5406 25.4393 17.0689 25.3028 16.6253C25.1662 16.1818 24.7016 15.9345 24.264 16.0729C22.9098 16.5021 21.664 17.1542 20.559 17.9796Z" fill="#B5ADB6"/>
<path d="M23.0815 42.4205C21.6737 41.9113 20.3692 41.1975 19.201 40.3126L20.5562 38.674C22.5512 40.1575 24.9464 41.024 27.4404 41.1429C27.6429 41.1526 27.8448 41.1574 28.0462 41.1574C29.4004 41.1574 30.7326 40.9397 32.0142 40.5083C32.4489 40.3621 32.6845 39.886 32.5401 39.4449C32.396 39.0041 31.9269 38.7648 31.4921 38.9114C30.638 39.1987 29.7576 39.3745 28.8623 39.4417V36.5237C28.8623 36.059 28.4911 35.6823 28.0331 35.6823C27.5752 35.6823 27.2039 36.059 27.2039 36.5237V39.44C24.7114 39.2484 22.3496 38.2009 20.5241 36.4657C20.1897 36.1477 19.6648 36.1655 19.3521 36.5043C19.0728 36.8067 19.0569 37.2625 19.2937 37.5829L17.9303 39.2314C16.2917 37.6693 15.0088 35.7281 14.2046 33.5296C14.0452 33.094 13.568 32.8716 13.1386 33.0337C12.7092 33.1954 12.4903 33.6795 12.6497 34.1151C14.3426 38.7435 17.942 42.3483 22.5246 44.0054C22.6167 44.0387 22.7106 44.0545 22.8031 44.0545C23.1438 44.0545 23.4633 43.8398 23.5842 43.4955C23.7379 43.0577 23.5129 42.5764 23.0815 42.4205Z" fill="#B5ADB6"/>
<path d="M28.0316 10.0855C32.027 10.0855 35.823 11.3999 38.9416 13.8255L37.9241 15.0557C36.3958 13.8821 34.6705 12.9779 32.8362 12.4087C32.398 12.2728 31.9347 12.5228 31.8006 12.967C31.6665 13.4114 31.913 13.8817 32.3511 14.0177C35.3844 14.9591 38.0883 16.9189 39.9645 19.5358C40.1268 19.7623 40.3795 19.8824 40.6358 19.8824C40.8049 19.8824 40.9757 19.8301 41.1228 19.7214C41.4933 19.4481 41.5751 18.9219 41.3057 18.5462C40.6801 17.6736 39.9711 16.8673 39.1948 16.1368L40.2102 14.9091C40.3908 15.0782 40.5693 15.2505 40.7442 15.4278C40.906 15.592 41.1183 15.6741 41.3305 15.6741C41.5427 15.6741 41.755 15.592 41.9169 15.4277C42.2407 15.0992 42.2407 14.5666 41.9169 14.2379C40.0557 12.3497 37.8865 10.8874 35.5244 9.89884L36.4864 7.21729C36.6431 6.78065 36.421 6.29796 35.9907 6.13898C35.5604 5.98033 35.0845 6.20529 34.9279 6.64182L33.9652 9.32544C32.0705 8.71883 30.0751 8.40284 28.0314 8.40284C27.5733 8.40284 27.2021 8.77948 27.2021 9.2441C27.2021 9.70872 27.5735 10.0855 28.0316 10.0855Z" fill="#27D1B3"/>
<path d="M41.2781 43.0327C41.5272 42.8012 41.7716 42.5628 42.0106 42.317C42.3323 41.9863 42.3287 41.4537 42.0028 41.1273C41.677 40.8012 41.152 40.8044 40.83 41.1353C39.1235 42.8901 37.1306 44.2495 34.9569 45.1694L34.4157 43.6611C35.7608 43.0852 37.0241 42.3271 38.1901 41.3931C38.5494 41.1052 38.6107 40.5761 38.3269 40.2115C38.0431 39.8468 37.5215 39.7848 37.1622 40.0728C35.5099 41.3965 33.6412 42.3282 31.6085 42.842C31.164 42.9542 30.8935 43.4108 31.0042 43.8616C31.0981 44.2442 31.4363 44.4998 31.8082 44.4998C31.8746 44.4998 31.942 44.4916 32.0092 44.4746C32.2948 44.4024 32.5774 44.3227 32.857 44.2358L33.3976 45.7431C31.6837 46.2841 29.8797 46.5652 28.0314 46.5652C27.5733 46.5652 27.2021 46.9419 27.2021 47.4065C27.2021 47.8711 27.5734 48.2477 28.0314 48.2477C32.4261 48.2477 36.5923 46.7956 40.0087 44.1157L41.6075 46.0486C41.7715 46.2469 42.0064 46.3491 42.2432 46.3491C42.4312 46.3491 42.6204 46.2844 42.7759 46.1522C43.1267 45.8537 43.1724 45.3228 42.878 44.967L41.2781 43.0327Z" fill="#27D1B3"/>
<path d="M44.0685 25.4566C43.9891 24.9991 43.5587 24.6932 43.1079 24.7742L36.2254 26.0055C35.7744 26.0861 35.4732 26.5226 35.5528 26.9802C35.6237 27.3884 35.9736 27.6754 36.3685 27.6754C36.4163 27.6754 36.4647 27.6713 36.5135 27.6625L43.3959 26.4312C43.8469 26.3506 44.1481 25.9142 44.0685 25.4566Z" fill="#B5ADB6"/>
<path d="M10.7164 33.2512C10.593 32.8038 10.1349 32.5421 9.69447 32.6677C9.25335 32.7929 8.99588 33.2571 9.1193 33.7045C9.48808 35.0417 9.99337 36.3299 10.6231 37.5508L8.18137 38.9809C7.7848 39.2133 7.64881 39.7278 7.87785 40.1301C8.03143 40.4 8.31016 40.5509 8.59673 40.5509C8.73743 40.5509 8.88007 40.5145 9.01058 40.438L11.4555 39.0061C12.3596 40.4475 13.446 41.7753 14.6981 42.9508C14.8576 43.1005 15.0595 43.1746 15.261 43.1746C15.484 43.1746 15.7064 43.0839 15.8699 42.9047C16.1809 42.5636 16.1605 42.0314 15.8244 41.7158C13.376 39.4174 11.6098 36.4903 10.7164 33.2512Z" fill="#27D1B3"/>
<path d="M30.5519 21.2987C30.6455 21.3332 30.7413 21.3497 30.8354 21.3497C31.1743 21.3497 31.4923 21.1374 31.6147 20.796L32.5577 18.1676C33.8098 18.7424 34.9563 19.5529 35.9245 20.5673C36.0871 20.7376 36.3035 20.8233 36.5202 20.8233C36.728 20.8233 36.9359 20.7446 37.097 20.5864C37.426 20.2631 37.4345 19.7305 37.1158 19.3967C35.0751 17.2588 32.3493 15.9009 29.4404 15.5729C28.9839 15.5213 28.5751 15.8544 28.5247 16.3162C28.474 16.7778 28.802 17.1938 29.2573 17.2452C29.8487 17.3118 30.4309 17.4294 30.9993 17.5914L30.0561 20.2205C29.8996 20.657 30.1216 21.1397 30.5519 21.2987Z" fill="#B5ADB6"/>
<path d="M13.4333 26.9596C13.5119 25.4268 12.5736 24.1313 11.3375 24.066C10.1013 24.0007 9.03549 25.1904 8.95685 26.7232C8.87821 28.256 9.81654 29.5515 11.0527 29.6167C12.2888 29.682 13.3546 28.4924 13.4333 26.9596Z" fill="#27D1B3"/>
<path d="M13.4333 26.9596C13.5119 25.4268 12.5736 24.1313 11.3375 24.066C10.1013 24.0007 9.03549 25.1904 8.95685 26.7232C8.87821 28.256 9.81654 29.5515 11.0527 29.6167C12.2888 29.682 13.3546 28.4924 13.4333 26.9596Z" fill="#27D1B3"/>
<path d="M13.4333 26.9596C13.5119 25.4268 12.5736 24.1313 11.3375 24.066C10.1013 24.0007 9.03549 25.1904 8.95685 26.7232C8.87821 28.256 9.81654 29.5515 11.0527 29.6167C12.2888 29.682 13.3546 28.4924 13.4333 26.9596Z" fill="#FC9744"/>
<path d="M13.42 26.9506C13.3416 28.4829 12.2768 29.673 11.0407 29.608C10.7156 29.5912 10.4115 29.4891 10.1406 29.3186C10.9323 28.9193 11.5139 27.9837 11.5702 26.8654C11.6278 25.7369 11.1335 24.7363 10.375 24.263C10.668 24.1149 10.9898 24.0408 11.3237 24.0588C12.5587 24.1239 13.4974 25.4184 13.42 26.9506Z" fill="#FB7722"/>
<path d="M11.1766 27.8117C11.1622 27.8117 11.1477 27.8114 11.1332 27.8106C10.6758 27.7867 10.3242 27.3911 10.3478 26.927L10.3618 26.6534C10.3854 26.1894 10.7739 25.8307 11.2327 25.8565C11.6901 25.8805 12.0417 26.2761 12.0181 26.7402L12.0042 27.0138C11.9812 27.463 11.6149 27.8117 11.1766 27.8117Z" fill="#FDD330"/>
<path d="M45.1698 27.84C46.3986 27.6918 47.25 26.3367 47.0715 24.8131C46.893 23.2895 45.7523 22.1745 44.5236 22.3226C43.2949 22.4707 42.4435 23.8259 42.622 25.3495C42.8004 26.8731 43.9411 27.9881 45.1698 27.84Z" fill="#27D1B3"/>
<path d="M45.1698 27.84C46.3986 27.6918 47.25 26.3367 47.0715 24.8131C46.893 23.2895 45.7523 22.1745 44.5236 22.3226C43.2949 22.4707 42.4435 23.8259 42.622 25.3495C42.8004 26.8731 43.9411 27.9881 45.1698 27.84Z" fill="#27D1B3"/>
<path d="M45.1698 27.84C46.3986 27.6918 47.25 26.3367 47.0715 24.8131C46.893 23.2895 45.7523 22.1745 44.5236 22.3226C43.2949 22.4707 42.4435 23.8259 42.622 25.3495C42.8004 26.8731 43.9411 27.9881 45.1698 27.84Z" fill="#FC9744"/>
<path d="M45.1661 27.8511C44.7482 27.9016 44.3391 27.805 43.9764 27.5953C44.788 27.1096 45.2811 26.0193 45.1418 24.8247C45.0246 23.8197 44.4884 22.9918 43.7852 22.588C44.0085 22.4534 44.255 22.3647 44.5205 22.3333C45.7488 22.1852 46.8899 23.3002 47.0679 24.8246C47.2459 26.348 46.3945 27.703 45.1661 27.8511Z" fill="#FB7722"/>
<path d="M44.8581 26.0696C44.4439 26.0696 44.0858 25.7551 44.0358 25.3274L44.0039 25.0553C43.9498 24.594 44.2747 24.1755 44.7296 24.1208C45.1849 24.0657 45.5968 24.3955 45.6508 24.8569L45.6826 25.129C45.7367 25.5904 45.4119 26.0089 44.9571 26.0636C44.9237 26.0677 44.8909 26.0696 44.8581 26.0696Z" fill="#FDD330"/>
<path d="M45.4396 36.4621C45.9659 35.0244 45.4527 33.5048 44.2933 33.0679C43.1339 32.6311 41.7673 33.4424 41.241 34.88C40.7147 36.3177 41.228 37.8373 42.3874 38.2742C43.5468 38.711 44.9133 37.8997 45.4396 36.4621Z" fill="#27D1B3"/>
<path d="M45.4396 36.4621C45.9659 35.0244 45.4527 33.5048 44.2933 33.0679C43.1339 32.6311 41.7673 33.4424 41.241 34.88C40.7147 36.3177 41.228 37.8373 42.3874 38.2742C43.5468 38.711 44.9133 37.8997 45.4396 36.4621Z" fill="#27D1B3"/>
<path d="M45.4396 36.4621C45.9659 35.0244 45.4527 33.5048 44.2933 33.0679C43.1339 32.6311 41.7673 33.4424 41.241 34.88C40.7147 36.3177 41.228 37.8373 42.3874 38.2742C43.5468 38.711 44.9133 37.8997 45.4396 36.4621Z" fill="#FC9744"/>
<path d="M45.4687 36.4613C44.9423 37.8994 43.5747 38.7115 42.4149 38.2741C42.0998 38.1552 41.8333 37.9567 41.6221 37.702C42.4934 37.5606 43.3237 36.845 43.7073 35.7973C44.0921 34.7496 43.9229 33.6582 43.3535 32.974C43.6786 32.9202 44.0081 32.9471 44.3232 33.066C45.4831 33.5033 45.9961 35.0232 45.4687 36.4613Z" fill="#FB7722"/>
<path d="M43.3225 36.6397C43.2264 36.6397 43.1288 36.6226 43.0335 36.5867C42.6043 36.4246 42.3857 35.9403 42.5454 35.5048L42.6396 35.248C42.7992 34.8126 43.2767 34.5911 43.706 34.7529C44.1352 34.9149 44.3537 35.3992 44.194 35.8348L44.0999 36.0916C43.9756 36.4302 43.6591 36.6397 43.3225 36.6397Z" fill="#FDD330"/>
<path d="M28.0326 37.017C32.7633 37.017 36.5984 33.1262 36.5984 28.3267C36.5984 23.5272 32.7633 19.6365 28.0326 19.6365C23.3018 19.6365 19.4668 23.5272 19.4668 28.3267C19.4668 33.1262 23.3018 37.017 28.0326 37.017Z" fill="#27D1B3"/>
<path d="M36.5984 28.3262C36.5984 33.1263 32.7637 37.0167 28.0324 37.0167C27.13 37.0167 26.2592 36.8752 25.4424 36.6112C29.917 36.5696 33.5314 32.8765 33.5314 28.3262C33.5314 23.7759 29.9171 20.0828 25.4424 20.0412C26.2592 19.7773 27.13 19.6357 28.0324 19.6357C32.7636 19.6357 36.5984 23.5262 36.5984 28.3262Z" fill="#20B69F"/>
<path d="M28.0324 31.2708C29.6355 31.2708 30.935 29.9524 30.935 28.3261C30.935 26.6997 29.6355 25.3813 28.0324 25.3813C26.4294 25.3813 25.1299 26.6997 25.1299 28.3261C25.1299 29.9524 26.4294 31.2708 28.0324 31.2708Z" fill="#FC9744"/>
<path d="M30.9363 28.3263C30.9363 29.9528 29.6366 31.2714 28.0334 31.2714C27.4568 31.2714 26.92 31.1014 26.4688 30.8065C27.588 30.552 28.4236 29.539 28.4236 28.3263C28.4236 27.1135 27.588 26.1004 26.4688 25.846C26.92 25.5512 27.4567 25.3811 28.0334 25.3811C29.6366 25.3811 30.9363 26.6997 30.9363 28.3263Z" fill="#FB7722"/>
</svg>
