<svg width="64" height="49" viewBox="0 0 64 49" fill="none" xmlns="http://www.w3.org/2000/svg">
<path d="M56.1621 12.0388H60.3531V44.9221H56.1621V12.0388Z" fill="#FB8627"/>
<path d="M56.1621 12.0388H60.3531V17.551H56.1621V12.0388Z" fill="#F2671F"/>
<path d="M24.4746 12.0388H28.6656V44.9221H24.4746V12.0388Z" fill="#FB8627"/>
<path d="M24.4746 12.0388H28.6656V17.551H24.4746V12.0388Z" fill="#F2671F"/>
<path d="M51.2522 34.2348C48.5397 34.2348 46.3408 32.0039 46.3408 29.252V3.91943H56.1638V29.2519C56.1638 32.0038 53.9647 34.2348 51.2522 34.2348Z" fill="#C4E1FF"/>
<path d="M56.1649 3.91943V29.2515C56.1649 32.0036 53.9653 34.2353 51.2525 34.2353C50.5919 34.2353 49.96 34.1028 49.3838 33.862C51.1693 33.1155 52.4261 31.3319 52.4261 29.2515V3.91943H56.1649Z" fill="#8DCAFC"/>
<path d="M46.3408 12.9944V29.2513C46.3408 32.0032 48.5397 34.2341 51.2522 34.2341C53.9647 34.2341 56.1636 32.0032 56.1636 29.2513V12.9944H46.3408Z" fill="#5169CD"/>
<path d="M46.3408 12.9944H56.1638V17.5486H46.3408V12.9944Z" fill="#3351C5"/>
<path d="M56.1649 12.9944V29.2509C56.1649 32.003 53.9653 34.2347 51.2525 34.2347C50.5919 34.2347 49.96 34.1022 49.3838 33.8614C51.1693 33.1148 52.4261 31.3313 52.4261 29.2509V12.9944H56.1649Z" fill="#3351C5"/>
<path d="M56.1649 13.9689H46.342C45.8117 13.9689 45.3818 13.5328 45.3818 12.9948C45.3818 12.4569 45.8117 12.0208 46.342 12.0208H56.1649C56.6952 12.0208 57.1251 12.4569 57.1251 12.9948C57.1251 13.5328 56.6953 13.9689 56.1649 13.9689Z" fill="black"/>
<path d="M56.0605 5.0815H46.4461C45.1507 5.0815 44.1006 4.01613 44.1006 2.70188C44.1006 1.38763 45.1507 0.322266 46.4461 0.322266H56.0605C57.356 0.322266 58.4061 1.38763 58.4061 2.70188C58.4061 4.01601 57.356 5.0815 56.0605 5.0815Z" fill="#EAF6FF"/>
<path d="M58.4067 2.70226C58.4067 3.35926 58.1444 3.95385 57.7203 4.38416C57.296 4.81459 56.7099 5.08062 56.0624 5.08062H52.9327C53.5803 5.08062 54.1664 4.81446 54.592 4.38416C55.0162 3.95385 55.2785 3.35913 55.2785 2.70226C55.2785 1.38688 54.2278 0.322266 52.9326 0.322266H56.0623C57.3574 0.322266 58.4067 1.38675 58.4067 2.70226Z" fill="#C4E1FF"/>
<path d="M51.5993 20.5014H50.964C50.4338 20.5014 50.0039 20.0653 50.0039 19.5273C50.0039 18.9893 50.4338 18.5532 50.964 18.5532H51.5993C52.1296 18.5532 52.5595 18.9893 52.5595 19.5273C52.5595 20.0653 52.1296 20.5014 51.5993 20.5014Z" fill="#8897DC"/>
<path d="M53.0925 25.0021H52.4572C51.9269 25.0021 51.4971 24.566 51.4971 24.028C51.4971 23.4899 51.9269 23.054 52.4572 23.054H53.0925C53.6228 23.054 54.0526 23.4901 54.0526 24.028C54.0526 24.566 53.6228 25.0021 53.0925 25.0021Z" fill="#8897DC"/>
<path d="M50.9655 30.4186H50.3303C49.8 30.4186 49.3701 29.9825 49.3701 29.4445C49.3701 28.9066 49.8 28.4705 50.3303 28.4705H50.9655C51.4958 28.4705 51.9257 28.9066 51.9257 29.4445C51.9257 29.9825 51.4959 30.4186 50.9655 30.4186Z" fill="#6D81D5"/>
<path d="M33.5764 34.2348C30.8639 34.2348 28.665 32.0039 28.665 29.252V3.91943H38.488V29.2519C38.4879 32.0038 36.289 34.2348 33.5764 34.2348Z" fill="#C4E1FF"/>
<path d="M38.4881 3.91943V29.2515C38.4881 32.0036 36.2885 34.2353 33.5757 34.2353C32.9151 34.2353 32.2833 34.1028 31.707 33.862C33.4926 33.1155 34.7494 31.3319 34.7494 29.2515V3.91943H38.4881Z" fill="#8DCAFC"/>
<path d="M28.665 12.9944V29.2513C28.665 32.0032 30.8639 34.2341 33.5764 34.2341C36.289 34.2341 38.4879 32.0032 38.4879 29.2513V12.9944H28.665Z" fill="#5169CD"/>
<path d="M28.665 12.9944H38.488V17.5486H28.665V12.9944Z" fill="#3351C5"/>
<path d="M38.4881 12.9944V29.2509C38.4881 32.003 36.2885 34.2347 33.5757 34.2347C32.9151 34.2347 32.2833 34.1022 31.707 33.8614C33.4926 33.1148 34.7494 31.3313 34.7494 29.2509V12.9944H38.4881Z" fill="#3351C5"/>
<path d="M38.4882 13.9689H28.6652C28.1349 13.9689 27.7051 13.5328 27.7051 12.9948C27.7051 12.4569 28.1349 12.0208 28.6652 12.0208H38.4882C39.0184 12.0208 39.4483 12.4569 39.4483 12.9948C39.4483 13.5328 39.0184 13.9689 38.4882 13.9689Z" fill="black"/>
<path d="M38.3838 5.0815H28.7694C27.4739 5.0815 26.4238 4.01613 26.4238 2.70188C26.4238 1.38763 27.4739 0.322266 28.7694 0.322266H38.3838C39.6792 0.322266 40.7293 1.38763 40.7293 2.70188C40.7294 4.01601 39.6792 5.0815 38.3838 5.0815Z" fill="#EAF6FF"/>
<path d="M40.729 2.70226C40.729 3.35926 40.4667 3.95385 40.0425 4.38416C39.6183 4.81459 39.0322 5.08062 38.3847 5.08062H35.255C35.9026 5.08062 36.4887 4.81446 36.9143 4.38416C37.3385 3.95385 37.6008 3.35913 37.6008 2.70226C37.6008 1.38688 36.5501 0.322266 35.2549 0.322266H38.3846C39.6798 0.322266 40.729 1.38675 40.729 2.70226Z" fill="#C4E1FF"/>
<path d="M33.9245 20.5014H33.2892C32.759 20.5014 32.3291 20.0653 32.3291 19.5273C32.3291 18.9893 32.759 18.5532 33.2892 18.5532H33.9245C34.4548 18.5532 34.8847 18.9893 34.8847 19.5273C34.8847 20.0653 34.4548 20.5014 33.9245 20.5014Z" fill="#6D81D5"/>
<path d="M35.4157 25.0021H34.7805C34.2502 25.0021 33.8203 24.566 33.8203 24.028C33.8203 23.4899 34.2502 23.054 34.7805 23.054H35.4157C35.946 23.054 36.3759 23.4901 36.3759 24.028C36.376 24.566 35.946 25.0021 35.4157 25.0021Z" fill="#6D81D5"/>
<path d="M33.2898 30.4186H32.6545C32.1242 30.4186 31.6943 29.9825 31.6943 29.4445C31.6943 28.9066 32.1242 28.4705 32.6545 28.4705H33.2898C33.82 28.4705 34.2499 28.9066 34.2499 29.4445C34.2499 29.9825 33.82 30.4186 33.2898 30.4186Z" fill="#8897DC"/>
<path d="M62.3923 14.6291H22.434C21.7057 14.6291 21.1152 14.0301 21.1152 13.2911V10.7784C21.1152 10.0394 21.7057 9.44043 22.434 9.44043H62.3923C63.1207 9.44043 63.7111 10.0394 63.7111 10.7784V13.2911C63.7111 14.0301 63.1207 14.6291 62.3923 14.6291Z" fill="#FCB982"/>
<path d="M63.7112 10.7808V13.2935C63.7112 14.032 63.1204 14.6314 62.3924 14.6314H58.3398C59.0691 14.6314 59.6586 14.032 59.6586 13.2935V10.7808C59.6586 10.0423 59.0692 9.44287 58.3398 9.44287H62.3924C63.1204 9.443 63.7112 10.0424 63.7112 10.7808Z" fill="#FC9744"/>
<path d="M62.3923 48.3271H22.434C21.7057 48.3271 21.1152 47.7281 21.1152 46.9891V44.4764C21.1152 43.7374 21.7057 43.1384 22.434 43.1384H62.3923C63.1207 43.1384 63.7111 43.7374 63.7111 44.4764V46.9891C63.7111 47.7281 63.1207 48.3271 62.3923 48.3271Z" fill="#FCB982"/>
<path d="M63.7112 44.4764V46.989C63.7112 47.7276 63.1204 48.327 62.3924 48.327H58.3398C59.0691 48.327 59.6586 47.7276 59.6586 46.989V44.4764C59.6586 43.7378 59.0692 43.1384 58.3398 43.1384H62.3924C63.1204 43.1384 63.7112 43.7378 63.7112 44.4764Z" fill="#FC9744"/>
<path d="M28.5747 36.2483L21.3223 21.5641V7.75098H11.1266V21.5641L3.87402 36.2483H28.5747Z" fill="#C4E1FF"/>
<path d="M11.127 7.75098H21.3227V13.9833H11.127V7.75098Z" fill="#8DCAFC"/>
<path d="M28.5748 36.2479L21.3228 21.5634V7.75098H17.5273V22.2771L24.428 36.2479H28.5748Z" fill="#8DCAFC"/>
<path d="M27.8156 34.7126H4.63304L0.460188 43.1615C-0.711586 45.534 0.988723 48.3279 3.60455 48.3279H28.8442C31.4599 48.3279 33.1604 45.534 31.9886 43.1615L27.8156 34.7126Z" fill="#64E0C4"/>
<path d="M13.7133 38.1378C15.5786 38.1378 17.0907 36.6037 17.0907 34.7114C17.0907 32.819 15.5786 31.2849 13.7133 31.2849C11.848 31.2849 10.3359 32.819 10.3359 34.7114C10.3359 36.6037 11.848 38.1378 13.7133 38.1378Z" fill="#EAF6FF"/>
<path d="M17.0907 34.7126C17.0907 36.6051 15.5785 38.1391 13.7133 38.1391C11.8481 38.1391 10.3359 36.605 10.3359 34.7126H17.0907Z" fill="#C7F1E6"/>
<path d="M27.8158 34.7126H23.6689L28.1942 43.8743C29.0014 45.5103 28.4439 47.346 27.1638 48.3273H28.8438C31.4604 48.3273 33.1608 45.5335 31.9879 43.1607L27.8158 34.7126Z" fill="#27D1B3"/>
<path d="M21.8637 10.9666H10.5847C9.06493 10.9666 7.83301 9.71677 7.83301 8.17494C7.83301 6.63312 9.06493 5.3833 10.5847 5.3833H21.8637C23.3835 5.3833 24.6154 6.63312 24.6154 8.17494C24.6155 9.71677 23.3835 10.9666 21.8637 10.9666Z" fill="#EAF6FF"/>
<path d="M24.6152 8.17483C24.6152 8.94556 24.3075 9.64315 23.8098 10.148C23.3121 10.6529 22.6246 10.9651 21.8649 10.9651H18.1934C18.953 10.9651 19.6405 10.6529 20.14 10.148C20.6376 9.64315 20.9454 8.94556 20.9454 8.17483C20.9454 6.63163 19.7127 5.38281 18.1934 5.38281H21.8649C23.3843 5.38294 24.6152 6.63175 24.6152 8.17483Z" fill="#C4E1FF"/>
<path d="M7.74679 42.497H7.1115C6.58123 42.497 6.15137 42.0609 6.15137 41.5229C6.15137 40.9849 6.58123 40.5488 7.1115 40.5488H7.74679C8.27706 40.5488 8.70693 40.9849 8.70693 41.5229C8.70693 42.0609 8.27706 42.497 7.74679 42.497Z" fill="#27D1B3"/>
<path d="M12.4929 44.6591H11.8576C11.3273 44.6591 10.8975 44.223 10.8975 43.685C10.8975 43.147 11.3273 42.7109 11.8576 42.7109H12.4929C13.0232 42.7109 13.453 43.147 13.453 43.685C13.453 44.223 13.0232 44.6591 12.4929 44.6591Z" fill="#C7F1E6"/>
<path d="M21.3224 43.3401C22.5537 43.3401 23.552 42.3274 23.552 41.0781C23.552 39.8289 22.5537 38.8162 21.3224 38.8162C20.091 38.8162 19.0928 39.8289 19.0928 41.0781C19.0928 42.3274 20.091 43.3401 21.3224 43.3401Z" fill="#C7F1E6"/>
</svg>
