<svg width="56" height="57" viewBox="0 0 56 57" fill="none" xmlns="http://www.w3.org/2000/svg">
<g clip-path="url(#clip0_1_9954)">
<path d="M37.3693 9.68902C37.5655 7.41417 40.9197 4.70651 37.0798 0.719223C36.776 0.403781 36.2872 0.360336 35.934 0.617524C31.47 3.86776 34.3098 7.12519 34.1136 9.40003L37.3693 9.68902Z" fill="#FDDD45"/>
<path d="M37.3709 9.69008L35.4005 9.51521C35.8212 7.35372 38.6053 4.78227 35.3135 1.11064C35.5033 0.946335 35.7098 0.781918 35.9355 0.618045C36.289 0.360856 36.7776 0.404846 37.0813 0.720179C40.9209 4.70714 37.5673 7.41535 37.3709 9.69008Z" fill="#F8C52D"/>
<path d="M37.3689 9.69368L34.1138 9.4048C34.2484 7.84446 32.9543 5.82102 33.5689 3.65527C33.8324 4.98184 34.8016 6.00678 36.0373 6.11643C37.2722 6.22608 38.4012 5.38831 38.8885 4.12926C39.1233 6.36938 37.5035 8.13333 37.3689 9.69368Z" fill="#FC9744"/>
<path d="M37.3699 9.70029L35.3994 9.52542C35.5997 8.49852 36.3332 7.37819 36.695 6.09225C37.6611 5.91564 38.4899 5.16694 38.8893 4.13623C39.1241 6.37601 37.5048 8.13974 37.3699 9.70029Z" fill="#FB7722"/>
<path d="M32.9228 42.2385C32.1563 42.1705 31.5805 41.499 31.6201 40.7195L32.8311 16.8923L37.3515 17.2936L34.4657 40.972C34.3713 41.7467 33.6893 42.3066 32.9228 42.2385Z" fill="#3351C5"/>
<path d="M37.0117 20.0959L37.3532 17.2935L32.8328 16.8923L32.6895 19.7123L37.0117 20.0959Z" fill="#2944AE"/>
<path d="M37.3524 17.295L34.4672 40.9738C34.3728 41.7484 33.6902 42.3086 32.9243 42.2406C32.4652 42.1998 32.0737 41.9421 31.8428 41.5745C32.0374 41.3589 32.1683 41.0832 32.2067 40.7731L35.0928 17.0945L37.3524 17.295Z" fill="#2944AE"/>
<path d="M37.0392 18.269L32.9697 17.9078C32.7249 17.886 32.5438 17.6672 32.5652 17.4188L33.294 8.96682C33.3155 8.71845 33.5312 8.53476 33.776 8.55642L37.8455 8.9176C38.0903 8.93938 38.2714 9.15824 38.25 9.40661L37.5212 17.8586C37.4998 18.107 37.284 18.2908 37.0392 18.269Z" fill="#EEF4F5"/>
<path d="M38.2498 9.40745L37.521 17.8595C37.4996 18.1078 37.2837 18.2916 37.039 18.2699L35.04 18.0924C35.2847 18.1141 35.5007 17.9303 35.522 17.6821L36.2509 9.22997C36.2722 8.98171 36.0911 8.76263 35.8464 8.74097L37.8453 8.91845C38.09 8.94023 38.2713 9.1593 38.2498 9.40745Z" fill="#CBE5E7"/>
<path d="M37.9689 11.9958C37.9446 11.9958 37.9201 11.9947 37.8957 11.9926L33.1574 11.5719C32.7012 11.5314 32.3638 11.1233 32.4036 10.6604C32.4435 10.1974 32.8478 9.85663 33.3019 9.89561L38.0401 10.3162C38.4965 10.3567 38.8338 10.7649 38.794 11.2277C38.7562 11.6657 38.3942 11.9958 37.9689 11.9958Z" fill="#A9D3D8"/>
<path d="M37.5608 16.7396C37.5365 16.7396 37.5121 16.7385 37.4876 16.7363L32.7493 16.3157C32.293 16.2752 31.9556 15.8671 31.9954 15.4042C32.0353 14.9412 32.4401 14.5995 32.8937 14.6394L37.6321 15.06C38.0883 15.1005 38.4258 15.5086 38.3859 15.9715C38.3483 16.4095 37.9861 16.7396 37.5608 16.7396Z" fill="#A9D3D8"/>
<path d="M40.9689 39.1685C40.6504 41.4235 43.3025 44.8263 38.6803 47.8149C38.3145 48.0514 37.83 47.981 37.5444 47.6497C33.9358 43.4642 37.4233 40.9542 37.7419 38.6992L40.9689 39.1685Z" fill="#F8C52D"/>
<path d="M40.969 39.1684L37.7423 38.6992C37.5238 40.2459 35.8138 41.9133 35.9262 44.1586C36.479 42.9307 37.65 42.1584 38.8749 42.3366C40.099 42.5146 41.0081 43.5884 41.1997 44.9237C41.9291 42.8017 40.7504 40.7151 40.969 39.1684Z" fill="#FC9744"/>
<path d="M41.2005 45.7633C40.7955 45.7633 40.4412 45.4618 40.381 45.0431C40.2373 44.0415 39.5855 43.2878 38.7591 43.1677C37.9321 43.0474 37.0971 43.5854 36.6824 44.5064C36.4921 44.9289 36.0005 45.1154 35.5836 44.922C35.167 44.729 34.9835 44.2298 35.1738 43.8073C35.8967 42.2012 37.4313 41.2751 38.9945 41.502C40.5549 41.7289 41.7716 43.0546 42.0222 44.8006C42.0883 45.2603 41.7743 45.6874 41.3212 45.7543C41.2806 45.7603 41.2404 45.7633 41.2005 45.7633Z" fill="black"/>
<path d="M38.2126 48.7795C37.731 48.7795 37.2536 48.5762 36.9208 48.1902C33.9362 44.7285 35.2641 42.1428 36.2336 40.2548C36.5525 39.6339 36.8537 39.0475 36.9216 38.5664C36.9528 38.3456 37.0692 38.1464 37.2452 38.0125C37.4212 37.8787 37.6426 37.8213 37.86 37.853L41.0871 38.3223C41.3047 38.354 41.5011 38.4721 41.633 38.6507C41.7649 38.8293 41.8215 39.0537 41.7903 39.2745C41.7223 39.7556 41.849 40.4042 41.9831 41.0909C42.1914 42.1573 42.4273 43.366 42.1346 44.6574C41.7933 46.1624 40.8093 47.423 39.1264 48.5111C38.8465 48.6919 38.5287 48.7795 38.2126 48.7795ZM38.3542 39.6247C38.1865 40.0937 37.9498 40.5545 37.7044 41.0323C36.7923 42.8085 35.9308 44.4862 38.1692 47.0825C38.1848 47.1008 38.2154 47.1049 38.2352 47.0921C41.1023 45.2383 40.74 43.3826 40.3564 41.4179C40.2532 40.8895 40.1537 40.3797 40.1225 39.8819L38.3542 39.6247Z" fill="black"/>
<path d="M43.933 6.53068C43.1732 6.42016 42.4636 6.93976 42.3275 7.70621L38.1709 31.1305L42.6518 31.782L45.1484 8.11638C45.23 7.34209 44.6929 6.6412 43.933 6.53068Z" fill="#3351C5"/>
<path d="M42.9472 28.978L42.6518 31.7789L38.1709 31.1272L38.6629 28.355L42.9472 28.978Z" fill="#2944AE"/>
<path d="M42.6511 31.7826L45.1482 8.11693C45.2298 7.34276 44.6921 6.64131 43.9329 6.5309C43.4777 6.4647 43.0399 6.62487 42.7333 6.92866C42.874 7.18291 42.9396 7.48093 42.9074 7.79104L40.4111 31.4568L42.6511 31.7826Z" fill="#2944AE"/>
<path d="M42.5691 30.7665L38.5352 30.1799C38.2926 30.1446 38.0677 30.3156 38.033 30.5618L36.8493 38.9397C36.8145 39.1859 36.983 39.414 37.2257 39.4493L41.2595 40.0358C41.5021 40.0711 41.727 39.9002 41.7618 39.654L42.9454 31.276C42.9802 31.0299 42.8117 30.8017 42.5691 30.7665Z" fill="#EEF4F5"/>
<path d="M41.7601 39.6477L42.9438 31.2694C42.9786 31.0233 42.81 30.795 42.5675 30.7598L40.586 30.4717C40.8285 30.507 40.9971 30.7353 40.9624 30.9813L39.7787 39.3595C39.7439 39.6056 39.5188 39.7767 39.2764 39.7414L41.2578 40.0295C41.5004 40.0647 41.7255 39.8936 41.7601 39.6477Z" fill="#CBE5E7"/>
<path d="M41.3225 40.8839C41.2626 40.8839 41.2021 40.8796 41.1411 40.8707L37.1071 40.2841C36.4123 40.1831 35.928 39.5273 36.0276 38.8223L37.2113 30.4442C37.2595 30.1027 37.436 29.8008 37.7082 29.5939C37.9801 29.387 38.3159 29.3002 38.6521 29.3489L42.6862 29.9355H42.6863C43.3811 30.0366 43.8652 30.6924 43.7656 31.3972L42.582 39.7753C42.4911 40.4185 41.9452 40.8839 41.3225 40.8839ZM37.724 38.6739L40.995 39.1496L42.0692 31.5456L38.7984 31.07L37.724 38.6739Z" fill="black"/>
<path d="M38.8032 46.2138C38.7101 46.2138 38.6155 46.1978 38.523 46.1641C38.0919 46.0071 37.8678 45.5253 38.0227 45.0881L38.0991 44.8721C38.2539 44.4347 38.7294 44.2078 39.1598 44.3646C39.5908 44.5216 39.8149 45.0034 39.66 45.4406L39.5836 45.6567C39.4622 46 39.1432 46.2138 38.8032 46.2138Z" fill="black"/>
<path d="M41.8767 38.7312C41.8375 38.7312 41.7979 38.7284 41.7579 38.7226L37.0612 38.0397C36.608 37.9737 36.2931 37.5474 36.3581 37.0876C36.4232 36.6277 36.8434 36.3088 37.2966 36.3742L41.9933 37.0571C42.4465 37.1231 42.7614 37.5494 42.6964 38.0092C42.6371 38.4286 42.2825 38.7312 41.8767 38.7312Z" fill="black"/>
<path d="M42.542 34.0334C42.5028 34.0334 42.4632 34.0306 42.4232 34.0248L37.7263 33.3418C37.273 33.2758 36.9581 32.8495 37.0232 32.3897C37.0882 31.9297 37.5086 31.6106 37.9616 31.6763L42.6585 32.3593C43.1118 32.4253 43.4267 32.8516 43.3617 33.3114C43.3025 33.7308 42.9478 34.0334 42.542 34.0334Z" fill="black"/>
<path d="M26.7945 10.9356C26.3277 8.24943 29.3726 4.07333 23.7273 0.677291C23.2806 0.408561 22.7034 0.511784 22.3743 0.919344C18.2144 6.06953 22.4835 8.93715 22.9503 11.6234L26.7945 10.9356Z" fill="#FDDD45"/>
<path d="M26.7862 10.9351L24.4595 11.3514C24.2862 8.72561 26.715 4.88553 21.7979 1.68168C21.9669 1.43255 22.155 1.17808 22.3655 0.918171C22.695 0.510503 23.2722 0.40815 23.7186 0.676663C29.3639 4.07237 26.3196 8.24891 26.7862 10.9351Z" fill="#F8C52D"/>
<path d="M26.7868 10.9549L22.9431 11.6425C22.6228 9.79998 20.5132 7.87128 20.5624 5.17974C21.2706 6.62759 22.7011 7.50619 24.1603 7.24508C25.6185 6.98419 26.6657 5.66352 26.8443 4.05811C27.7979 6.56934 26.4666 9.11247 26.7868 10.9549Z" fill="#FC9744"/>
<path d="M26.7878 10.9389L24.4611 11.3552C24.3792 10.1074 24.8842 8.58479 24.9096 6.98776C25.9704 6.4809 26.6985 5.3573 26.8452 4.04272C27.7987 6.5532 26.4679 9.0959 26.7878 10.9389Z" fill="#FB7722"/>
<path d="M31.5728 49.8771C30.6677 50.039 29.7987 49.4449 29.6068 48.533L23.7432 20.662L29.0811 19.707L32.9671 47.9318C33.0943 48.8554 32.4779 49.7152 31.5728 49.8771Z" fill="#3351C5"/>
<path d="M29.5408 23.0474L29.0809 19.707L23.7432 20.662L24.4371 23.9604L29.5408 23.0474Z" fill="#2944AE"/>
<path d="M29.0814 19.707L32.968 47.9318C33.095 48.8552 32.4783 49.7156 31.5738 49.8774C31.0316 49.9744 30.5016 49.7999 30.1231 49.4482C30.2819 49.1384 30.349 48.7792 30.2987 48.4093L26.4131 20.1843L29.0814 19.707Z" fill="#2944AE"/>
<path d="M29.0172 20.9273L24.2119 21.7869C23.9229 21.8387 23.6471 21.6429 23.5963 21.3495L21.8617 11.3692C21.8107 11.076 22.0037 10.7963 22.2928 10.7447L27.0981 9.885C27.3871 9.83327 27.6628 10.0291 27.7137 10.3224L29.4483 20.3027C29.4993 20.5959 29.3062 20.8756 29.0172 20.9273Z" fill="#EEF4F5"/>
<path d="M27.7143 10.3216L29.4489 20.3022C29.4999 20.5953 29.3067 20.8751 29.0178 20.9267L26.6574 21.349C26.9463 21.2973 27.1394 21.0174 27.0885 20.7244L25.3539 10.7439C25.3029 10.4508 25.0271 10.2549 24.7383 10.3065L27.0987 9.88423C27.3875 9.83262 27.6634 10.0285 27.7143 10.3216Z" fill="#CBE5E7"/>
<path d="M24.0592 4.69098C23.729 4.69098 23.4168 4.48944 23.288 4.15897L23.1883 3.90342C23.0198 3.47136 23.2284 2.98258 23.6543 2.81163C24.0802 2.64079 24.5619 2.85235 24.7303 3.28441L24.83 3.53996C24.9985 3.97202 24.7899 4.4608 24.364 4.63175C24.2639 4.67193 24.1606 4.69098 24.0592 4.69098Z" fill="#FB7722"/>
<path d="M22.3275 14.2862C21.9326 14.2862 21.5827 13.9991 21.5118 13.5909C21.4322 13.1333 21.7333 12.6969 22.1844 12.6162L27.7794 11.6154C28.2299 11.5351 28.6605 11.8401 28.74 12.2979C28.8196 12.7554 28.5185 13.1918 28.0674 13.2725L22.4725 14.2734C22.4237 14.282 22.3753 14.2862 22.3275 14.2862Z" fill="#A9D3D8"/>
<path d="M23.2991 19.8707C22.9043 19.8707 22.5544 19.5834 22.4834 19.1753C22.4039 18.7178 22.705 18.2814 23.1561 18.2007L28.751 17.1998C29.2021 17.1196 29.6321 17.4247 29.7117 17.8823C29.7912 18.3399 29.4902 18.7763 29.0391 18.857L23.4441 19.8578C23.3955 19.8664 23.347 19.8707 23.2991 19.8707Z" fill="#A9D3D8"/>
<path d="M40.3125 56.1885H27.5585C26.6607 56.1885 25.9112 55.4933 25.8309 54.5861L23.6602 30.0527H44.2109L42.04 54.5861C41.9597 55.4933 41.2103 56.1885 40.3125 56.1885Z" fill="#F2EFF2"/>
<path d="M43.6505 36.3851L44.2108 30.0527H23.6602L24.2204 36.3851H43.6505Z" fill="#E1DDE1"/>
<path d="M44.2115 30.0527L42.0412 54.5858C41.9603 55.4926 41.2109 56.1883 40.3137 56.1883H36.7002C37.5974 56.1883 38.3468 55.4926 38.4277 54.5858L40.5981 30.0527H44.2115Z" fill="#E1DDE1"/>
<path d="M44.5187 33.907H23.3534C22.709 33.907 22.1865 33.3771 22.1865 32.7232V29.6806C22.1865 29.0269 22.7089 28.4968 23.3534 28.4968H44.5188C45.1632 28.4968 45.6856 29.0268 45.6856 29.6806V32.7232C45.6855 33.377 45.1632 33.907 44.5187 33.907Z" fill="#FCCA9F"/>
<path d="M45.6842 29.6806V32.7234C45.6842 33.3769 45.1614 33.9072 44.5173 33.9072H40.2246C40.8687 33.9072 41.3915 33.3769 41.3915 32.7234V29.6806C41.3915 29.0272 40.8687 28.4968 40.2246 28.4968H44.5173C45.1615 28.4968 45.6842 29.0271 45.6842 29.6806Z" fill="#FCB982"/>
<path d="M29.2758 49.1055V45.8515C29.2758 45.2263 28.7763 44.7195 28.16 44.7195H19.1626C18.5465 44.7195 18.0469 45.2262 18.0469 45.8515V49.1055H29.2758Z" fill="#918291"/>
<path d="M26.2691 45.8507V49.1046H29.2764V45.8507C29.2764 45.2256 28.7769 44.7188 28.1606 44.7188H25.1533C25.7693 44.7189 26.2691 45.2259 26.2691 45.8507Z" fill="#7A6E79"/>
<path d="M18.0469 47.9854V55.0841C18.0469 55.7092 18.5464 56.2161 19.1625 56.2161H28.16C28.7762 56.2161 29.2758 55.7093 29.2758 55.0841V47.9854H18.0469Z" fill="#F2EFF2"/>
<path d="M26.2691 47.9854V55.0841C26.2691 55.7089 25.7693 56.2161 25.1533 56.2161H28.1606C28.7768 56.2161 29.2764 55.7093 29.2764 55.0841V47.9854H26.2691Z" fill="#E1DDE1"/>
<path d="M28.16 44.7165H19.1626C18.5465 44.7165 18.0469 44.2097 18.0469 43.5845V40.4232C18.0469 39.7981 18.5464 39.2913 19.1626 39.2913H28.16C28.7762 39.2913 29.2758 39.798 29.2758 40.4232V43.5845C29.2758 44.2097 28.7763 44.7165 28.16 44.7165Z" fill="#FEE265"/>
<path d="M29.2764 40.4225V43.5836C29.2764 44.2087 28.7769 44.7155 28.1606 44.7155H25.1533C25.7692 44.7155 26.2691 44.2085 26.2691 43.5836V40.4225C26.2691 39.7977 25.7693 39.2905 25.1533 39.2905H28.1606C28.7769 39.2906 29.2764 39.7974 29.2764 40.4225Z" fill="#FDD330"/>
<path d="M24.3115 51.6901H20.7501C20.292 51.6901 19.9209 51.3134 19.9209 50.8488C19.9209 50.3842 20.2921 50.0076 20.7501 50.0076H24.3115C24.7696 50.0076 25.1407 50.3842 25.1407 50.8488C25.1407 51.3134 24.7695 51.6901 24.3115 51.6901Z" fill="#FDD330"/>
<path d="M21.395 49.1055V45.8515C21.395 45.2263 20.8955 44.7195 20.2792 44.7195H11.2818C10.6656 44.7195 10.166 45.2262 10.166 45.8515V49.1055H21.395Z" fill="#918291"/>
<path d="M18.3882 45.8507V49.1046H21.3955V45.8507C21.3955 45.2256 20.896 44.7188 20.2797 44.7188H17.2725C17.8884 44.7189 18.3882 45.2259 18.3882 45.8507Z" fill="#7A6E79"/>
<path d="M10.166 47.9854V55.0841C10.166 55.7092 10.6655 56.2161 11.2817 56.2161H20.2792C20.8953 56.2161 21.3948 55.7093 21.3948 55.0841V47.9854H10.166Z" fill="#F2EFF2"/>
<path d="M18.3882 47.9854V55.0841C18.3882 55.7089 17.8884 56.2161 17.2725 56.2161H20.2797C20.8959 56.2161 21.3954 55.7093 21.3954 55.0841V47.9854H18.3882Z" fill="#E1DDE1"/>
<path d="M20.2871 44.7165H11.2896C10.6734 44.7165 10.1738 44.2097 10.1738 43.5845V40.4232C10.1738 39.7981 10.6733 39.2913 11.2896 39.2913H20.2871C20.9032 39.2913 21.4028 39.798 21.4028 40.4232V43.5845C21.4027 44.2097 20.9032 44.7165 20.2871 44.7165Z" fill="#27D1B3"/>
<path d="M21.3955 40.4225V43.5836C21.3955 44.2087 20.896 44.7155 20.2797 44.7155H17.2725C17.8883 44.7155 18.3882 44.2085 18.3882 43.5836V40.4225C18.3882 39.7977 17.8884 39.2905 17.2725 39.2905H20.2797C20.896 39.2906 21.3955 39.7974 21.3955 40.4225Z" fill="#20B69F"/>
<path d="M16.4306 51.6901H12.8692C12.4112 51.6901 12.04 51.3134 12.04 50.8488C12.04 50.3842 12.4113 50.0076 12.8692 50.0076H16.4306C16.8887 50.0076 17.2598 50.3842 17.2598 50.8488C17.2598 51.3134 16.8887 51.6901 16.4306 51.6901Z" fill="#27D1B3"/>
</g>
<defs>
<clipPath id="clip0_1_9954">
<rect width="54.9511" height="55.7495" fill="white" transform="translate(0.451172 0.450684)"/>
</clipPath>
</defs>
</svg>
