<svg width="43" height="56" viewBox="0 0 43 56" fill="none" xmlns="http://www.w3.org/2000/svg">
<path d="M31.499 26.4888H42.348V51.0078H31.499V26.4888Z" fill="#FB8627"/>
<path d="M31.499 26.4888H42.348V51.0078H31.499V26.4888Z" fill="#FB8627"/>
<path d="M38.3809 26.4888H42.348V51.0078H38.3809V26.4888Z" fill="#FB7722"/>
<path d="M31.499 5.02173H42.348V27.916H31.499V5.02173Z" fill="#31A7FB"/>
<path d="M38.3809 5.02173H42.348V27.916H38.3809V5.02173Z" fill="#1C96F9"/>
<path d="M31.499 54.6685V49.9084H42.348V54.6685C42.348 55.2881 41.853 55.7902 41.2423 55.7902H32.6047C31.9941 55.7902 31.499 55.2881 31.499 54.6685Z" fill="#FFE8D8"/>
<path d="M38.3813 49.9084H42.3484V54.669C42.3484 54.6825 42.3484 54.6949 42.3473 54.7072C42.3175 55.2915 41.8575 55.7593 41.2815 55.7896C41.2681 55.7907 41.256 55.7907 41.2428 55.7907H37.2559C37.8784 55.7907 38.3814 55.2791 38.3814 54.6488V49.9084H38.3813Z" fill="#FDDBBF"/>
<path d="M31.499 46.2627H42.3477V47.9453H31.499V46.2627Z" fill="#FFE8D8"/>
<path d="M42.348 1.16325V5.9233H31.499V1.16325C31.499 0.543685 31.994 0.0415039 32.6047 0.0415039H41.2423C41.853 0.0415039 42.348 0.543685 42.348 1.16325Z" fill="#D9ECFD"/>
<path d="M42.3475 1.1829V5.92324H38.3804V1.1829C38.3804 0.552561 37.8774 0.0410156 37.2549 0.0410156H41.2231C41.2429 0.0410156 41.2618 0.0410156 41.2806 0.0421045C41.8566 0.0723747 42.3166 0.540148 42.3464 1.12454C42.3475 1.1437 42.3475 1.16276 42.3475 1.1829Z" fill="#C4E1FF"/>
<path d="M31.499 7.88477H42.3477V9.56738H31.499V7.88477Z" fill="#D9ECFD"/>
<path d="M38.3809 7.88477H42.348V9.56738H38.3809V7.88477Z" fill="#C4E1FF"/>
<path d="M38.3809 46.2627H42.348V47.9453H38.3809V46.2627Z" fill="#FDDBBF"/>
<path d="M0.770508 5.02173H11.6195V29.1198H0.770508V5.02173Z" fill="#FB8627"/>
<path d="M0.770508 5.02173H11.6195V29.1198H0.770508V5.02173Z" fill="#FB8627"/>
<path d="M7.65234 5.02173H11.6195V29.1198H7.65234V5.02173Z" fill="#FB7722"/>
<path d="M0.770508 27.9153H11.6195V51.1133H0.770508V27.9153Z" fill="#31A7FB"/>
<path d="M7.65234 27.9153H11.6195V51.1134H7.65234V27.9153Z" fill="#1C96F9"/>
<path d="M0.770508 1.16276V5.92281H11.6195V1.16276C11.6195 0.543197 11.1245 0.0410156 10.5138 0.0410156H1.87618C1.2655 0.0410156 0.770508 0.543197 0.770508 1.16276Z" fill="#FFE8D8"/>
<path d="M7.6519 5.92335H11.619V1.16276C11.619 1.14925 11.619 1.13695 11.6179 1.12465C11.5881 0.540257 11.1281 0.0724836 10.5521 0.0422134C10.5388 0.0410156 10.5265 0.0410156 10.5133 0.0410156H6.52637C7.14886 0.0410156 7.6519 0.552561 7.6519 1.1829V5.92335Z" fill="#FDDBBF"/>
<path d="M0.770508 7.88574H11.6192V9.56835H0.770508V7.88574Z" fill="#FFE8D8"/>
<path d="M11.6195 54.668V49.908H0.770508V54.668C0.770508 55.2876 1.2655 55.7898 1.87618 55.7898H10.5138C11.1244 55.7898 11.6195 55.2876 11.6195 54.668Z" fill="#D9ECFD"/>
<path d="M11.619 54.6483V49.908H7.6519V54.6483C7.6519 55.2787 7.14886 55.7902 6.52637 55.7902H10.4945C10.5144 55.7902 10.5333 55.7902 10.5521 55.7891C11.1281 55.7588 11.5881 55.2911 11.6179 54.7067C11.619 54.6875 11.619 54.6685 11.619 54.6483Z" fill="#C4E1FF"/>
<path d="M0.770508 46.2637H11.6192V47.9463H0.770508V46.2637Z" fill="#D9ECFD"/>
<path d="M7.65234 46.2637H11.6194V47.9463H7.65234V46.2637Z" fill="#C4E1FF"/>
<path d="M7.65234 7.88574H11.6194V9.56835H7.65234V7.88574Z" fill="#FDDBBF"/>
</svg>
