<svg width="51" height="56" viewBox="0 0 51 56" fill="none" xmlns="http://www.w3.org/2000/svg">
<path d="M25.727 55.7905C22.1523 55.7905 18.8454 52.8061 16.4156 47.3868C14.0776 42.1723 12.79 35.2574 12.79 27.9158C12.79 20.5741 14.0776 13.6591 16.4156 8.44471C18.8455 3.02547 22.1523 0.0410156 25.727 0.0410156C29.3018 0.0410156 32.6085 3.02547 35.0384 8.44471C37.3764 13.6592 38.6639 20.5741 38.6639 27.9158C38.6639 35.2574 37.3764 42.1724 35.0384 47.3868C32.6086 52.8061 29.3018 55.7905 25.727 55.7905ZM25.727 1.6743C22.8205 1.6743 20.0341 4.31892 17.8811 9.121C15.6362 14.1276 14.3999 20.8024 14.3999 27.9158C14.3999 35.0292 15.6362 41.704 17.8811 46.7105C20.0341 51.5126 22.8205 54.1572 25.727 54.1572C28.6334 54.1572 31.4199 51.5126 33.5729 46.7105C35.8179 41.704 37.0542 35.0291 37.0542 27.9158C37.0542 20.8025 35.8179 14.1276 33.5729 9.121C31.4199 4.31892 28.6336 1.6743 25.727 1.6743Z" fill="white"/>
<path d="M40.1421 45.9583C39.3617 45.9584 38.5445 45.9168 37.6918 45.833C32.0715 45.28 25.525 42.9538 19.258 39.283C12.991 35.6122 7.73197 31.0234 4.44983 26.3619C1.03878 21.5174 0.144539 17.1198 1.93195 13.979C3.71926 10.8382 7.92044 9.42552 13.7611 9.99978C19.3814 10.5528 25.928 12.8789 32.1949 16.5498C38.4619 20.2206 43.721 24.8093 47.0031 29.4708C50.4141 34.3153 51.3083 38.713 49.521 41.8538C47.9946 44.5361 44.7071 45.9582 40.1421 45.9583ZM11.2791 11.5057C7.33583 11.5057 4.55082 12.6436 3.32612 14.7957C1.87292 17.3492 2.73722 21.1197 5.75975 25.4125C8.91117 29.8882 13.9907 34.3118 20.0629 37.8686C26.1351 41.4253 32.4509 43.6764 37.8471 44.2074C43.0223 44.7163 46.6735 43.5909 48.1267 41.0372C49.5799 38.4837 48.7156 34.7132 45.6931 30.4204C42.5417 25.9447 37.462 21.5211 31.3898 17.9643C25.3176 14.4076 19.0019 12.1565 13.6055 11.6254C12.7916 11.5453 12.015 11.5057 11.2791 11.5057Z" fill="white"/>
<path d="M11.3108 45.9577C6.74522 45.9578 3.45845 44.5355 1.93195 41.8531C0.144539 38.7123 1.03878 34.3148 4.44983 29.4702C7.73208 24.8087 12.991 20.2199 19.258 16.5492L19.6604 17.2564L19.258 16.5492C25.525 12.8783 32.0715 10.5522 37.6918 9.99915C43.5325 9.42456 47.7337 10.8377 49.521 13.9784C51.3083 17.1192 50.4141 21.5168 47.0031 26.3613C43.721 31.0228 38.4619 35.6116 32.1949 39.2823C25.9279 42.9532 19.3813 45.2793 13.7611 45.8324C12.9088 45.9162 12.0909 45.9577 11.3108 45.9577ZM20.0629 17.9637C13.9908 21.5204 8.91117 25.9439 5.75975 30.4198C2.73722 34.7124 1.87292 38.4829 3.32612 41.0365C4.77932 43.5901 8.43002 44.7158 13.6056 44.2067C19.0019 43.6757 25.3177 41.4244 31.3899 37.8678C37.4621 34.3112 42.5417 29.8876 45.6932 25.4117C48.7157 21.119 49.58 17.3485 48.1268 14.7949C46.6735 12.2413 43.0224 11.1158 37.8472 11.6247C32.4509 12.1558 26.135 14.4071 20.0629 17.9637Z" fill="white"/>
<path d="M40.0838 37.5273H11.3686C10.9186 37.5273 10.5537 37.1572 10.5537 36.7005V21.2413C10.5537 20.7848 10.9185 20.4146 11.3686 20.4146H40.0838C40.5338 20.4146 40.8987 20.7847 40.8987 21.2413V36.7006C40.8987 37.1572 40.5339 37.5273 40.0838 37.5273Z" fill="#5169CD"/>
<path d="M40.8987 21.2406V36.7004C40.8987 37.1567 40.5335 37.5272 40.0837 37.5272H37.3877C37.8375 37.5272 38.2026 37.1567 38.2026 36.7004V21.2406C38.2026 20.7842 37.8375 20.4138 37.3877 20.4138H40.0837C40.5335 20.4138 40.8987 20.7842 40.8987 21.2406Z" fill="#3351C5"/>
<path d="M25.7279 34.285H14.0669C13.6169 34.285 13.252 33.9149 13.252 33.4582V19.1315C13.252 18.6749 13.6168 18.3047 14.0669 18.3047H22.4682C24.2685 18.3047 25.7279 19.7853 25.7279 21.6118V34.285Z" fill="#F2EFF2"/>
<path d="M25.7278 21.6132V34.2867H23.1591V21.6132C23.1591 19.7869 21.6996 18.3062 19.8994 18.3062H22.4681C24.2682 18.3062 25.7278 19.7869 25.7278 21.6132Z" fill="#E1DDE1"/>
<path d="M13.252 33.4586V31.805C13.252 31.3485 13.6168 30.9783 14.0669 30.9783H22.4682C24.2685 30.9783 25.7279 32.4589 25.7279 34.2854H14.0669C13.6169 34.2852 13.252 33.9151 13.252 33.4586Z" fill="#CBC5CB"/>
<path d="M25.7284 34.2853H23.247C23.247 32.459 21.7883 30.9783 19.9873 30.9783H22.4687C24.2689 30.9784 25.7284 32.4591 25.7284 34.2853Z" fill="#B5ADB6"/>
<path d="M25.7285 34.2855H37.3895C37.8395 34.2855 38.2045 33.9154 38.2045 33.4587V19.1319C38.2045 18.6754 37.8396 18.3052 37.3895 18.3052H28.9882C27.1879 18.3052 25.7285 19.7858 25.7285 21.6123V34.2855Z" fill="#F2EFF2"/>
<path d="M38.2038 19.1334V33.4604C38.2038 33.9167 37.8395 34.2872 37.3888 34.2872H34.8691C35.3189 34.2872 35.6841 33.9167 35.6841 33.4604V19.1334C35.6841 18.6771 35.3189 18.3066 34.8691 18.3066H37.3888C37.8395 18.3066 38.2038 18.6771 38.2038 19.1334Z" fill="#E1DDE1"/>
<path d="M38.2045 33.4591V31.8055C38.2045 31.349 37.8396 30.9788 37.3895 30.9788H28.9882C27.1879 30.9788 25.7285 32.4594 25.7285 34.2858H37.3895C37.8395 34.2857 38.2045 33.9156 38.2045 33.4591Z" fill="#CBC5CB"/>
<path d="M38.2038 31.8055V33.4591C38.2038 33.9154 37.8395 34.2858 37.3888 34.2858H34.8691C35.3189 34.2858 35.6841 33.9154 35.6841 33.4591V31.8055C35.6841 31.3483 35.3189 30.9788 34.8691 30.9788H37.3888C37.8395 30.9788 38.2038 31.3483 38.2038 31.8055Z" fill="#B5ADB6"/>
<path d="M21.6493 22.2656H16.5442C16.0997 22.2656 15.7393 21.9001 15.7393 21.449C15.7393 20.9979 16.0997 20.6323 16.5442 20.6323H21.6493C22.0938 20.6323 22.4542 20.9979 22.4542 21.449C22.4542 21.9001 22.0938 22.2656 21.6493 22.2656Z" fill="#CBC5CB"/>
<path d="M21.6493 25.1306H16.5442C16.0997 25.1306 15.7393 24.7651 15.7393 24.314C15.7393 23.8628 16.0997 23.4973 16.5442 23.4973H21.6493C22.0938 23.4973 22.4542 23.8628 22.4542 24.314C22.4542 24.7651 22.0938 25.1306 21.6493 25.1306Z" fill="#CBC5CB"/>
<path d="M21.6493 27.9953H16.5442C16.0997 27.9953 15.7393 27.6298 15.7393 27.1787C15.7393 26.7276 16.0997 26.3621 16.5442 26.3621H21.6493C22.0938 26.3621 22.4542 26.7276 22.4542 27.1787C22.4542 27.6298 22.0938 27.9953 21.6493 27.9953Z" fill="#CBC5CB"/>
<path d="M34.9109 22.2656H29.8059C29.3613 22.2656 29.001 21.9001 29.001 21.449C29.001 20.9979 29.3613 20.6323 29.8059 20.6323H34.9109C35.3556 20.6323 35.7158 20.9979 35.7158 21.449C35.7158 21.9001 35.3556 22.2656 34.9109 22.2656Z" fill="#CBC5CB"/>
<path d="M34.9109 25.1306H29.8059C29.3613 25.1306 29.001 24.7651 29.001 24.314C29.001 23.8628 29.3613 23.4973 29.8059 23.4973H34.9109C35.3556 23.4973 35.7158 23.8628 35.7158 24.314C35.7158 24.7651 35.3556 25.1306 34.9109 25.1306Z" fill="#CBC5CB"/>
<path d="M34.9109 27.9953H29.8059C29.3613 27.9953 29.001 27.6298 29.001 27.1787C29.001 26.7276 29.3613 26.3621 29.8059 26.3621H34.9109C35.3556 26.3621 35.7158 26.7276 35.7158 27.1787C35.7158 27.6298 35.3556 27.9953 34.9109 27.9953Z" fill="#CBC5CB"/>
<path d="M46.9645 15.3087C48.5672 15.3087 49.8665 13.9906 49.8665 12.3646C49.8665 10.7386 48.5672 9.42041 46.9645 9.42041C45.3618 9.42041 44.0625 10.7386 44.0625 12.3646C44.0625 13.9906 45.3618 15.3087 46.9645 15.3087Z" fill="#FDDD45"/>
<path d="M49.8655 12.3647C49.8655 13.9903 48.5669 15.309 46.9634 15.309C46.4751 15.309 46.0168 15.187 45.6133 14.9703C46.8969 14.7928 47.8854 13.6757 47.8854 12.3255C47.8854 11.0167 46.9559 9.92673 45.7303 9.70025C46.1038 9.52059 46.5223 9.42041 46.9634 9.42041C48.5669 9.42041 49.8655 10.739 49.8655 12.3647Z" fill="#F8C52D"/>
<path d="M16.192 47.6124C17.7948 47.6124 19.094 46.2943 19.094 44.6683C19.094 43.0423 17.7948 41.7241 16.192 41.7241C14.5893 41.7241 13.29 43.0423 13.29 44.6683C13.29 46.2943 14.5893 47.6124 16.192 47.6124Z" fill="#FDDD45"/>
<path d="M19.0941 44.6669C19.0941 46.2926 17.7954 47.6112 16.192 47.6112C15.7036 47.6112 15.2453 47.4892 14.8418 47.2726C16.1254 47.0951 17.1139 45.9779 17.1139 44.6277C17.1139 43.3189 16.1844 42.229 14.9588 42.0025C15.3323 41.8228 15.7509 41.7227 16.192 41.7227C17.7954 41.7227 19.0941 43.0413 19.0941 44.6669Z" fill="#F8C52D"/>
<path d="M3.1686 25.5673C4.77133 25.5673 6.07059 24.2491 6.07059 22.6231C6.07059 20.9971 4.77133 19.679 3.1686 19.679C1.56587 19.679 0.266602 20.9971 0.266602 22.6231C0.266602 24.2491 1.56587 25.5673 3.1686 25.5673Z" fill="#FDDD45"/>
<path d="M6.07063 22.623C6.07063 24.2486 4.77198 25.5673 3.16852 25.5673C2.68019 25.5673 2.22191 25.4453 1.81836 25.2286C3.10198 25.0511 4.09046 23.934 4.09046 22.5838C4.09046 21.275 3.16101 20.185 1.93535 19.9585C2.30884 19.7789 2.72741 19.6787 3.16852 19.6787C4.77198 19.6787 6.07063 20.9973 6.07063 22.623Z" fill="#F8C52D"/>
</svg>
