<svg width="45" height="56" viewBox="0 0 45 56" fill="none" xmlns="http://www.w3.org/2000/svg">
<path d="M44.6484 33.6739V54.597C44.6484 55.2555 44.1223 55.7903 43.4722 55.7903H1.85099C1.20092 55.7903 0.674805 55.2555 0.674805 54.597V33.6739C0.674805 33.0154 1.20092 32.4817 1.85099 32.4817H43.4722C44.1223 32.4817 44.6484 33.0154 44.6484 33.6739Z" fill="#64B9FC"/>
<path d="M6.77845 32.4817C6.43179 34.4233 4.75718 35.8963 2.74255 35.8963H2.0005C1.53642 35.8963 1.09005 35.8177 0.674805 35.6739V33.6739C0.674805 33.0154 1.20092 32.4817 1.85099 32.4817H6.77845Z" fill="#31A7FB"/>
<path d="M44.6491 33.6744V54.5976C44.6491 55.2563 44.1222 55.7908 43.473 55.7908H40.1113C40.7605 55.7908 41.2874 55.2563 41.2874 54.5976V33.6744C41.2874 33.0157 40.7605 32.4812 40.1113 32.4812H43.473C44.1221 32.4812 44.6491 33.0157 44.6491 33.6744Z" fill="#31A7FB"/>
<path d="M44.6486 33.6739V35.6739C44.2332 35.8177 43.7868 35.8963 43.3229 35.8963H42.5808C40.5662 35.8963 38.8916 34.4232 38.5449 32.4817H43.4724C44.1225 32.4817 44.6486 33.0154 44.6486 33.6739Z" fill="#1C96F9"/>
<path d="M22.6606 34.2085V52.499H5.21135C4.56234 52.499 4.03516 51.9652 4.03516 51.3057V30.6298C4.03516 29.9703 4.56234 29.4365 5.21135 29.4365H17.9558C20.5541 29.4365 22.6606 31.5736 22.6606 34.2085Z" fill="#F2EFF2"/>
<path d="M22.6607 37.9109V46.9797H22.6507C14.0639 46.9752 6.71542 41.2155 4.03516 33.3546V30.6298C4.03516 29.9703 4.56234 29.4365 5.21135 29.4365H12.1855C13.3119 34.248 17.525 37.8817 22.5975 37.911H22.6607V37.9109Z" fill="#E1DDE1"/>
<path d="M6.84389 29.4365V31.7343C6.84389 33.5748 5.6677 35.1356 4.03516 35.685V30.6298C4.03516 29.9703 4.56234 29.4365 5.21135 29.4365H6.84389Z" fill="#E1DDE1"/>
<path d="M22.6614 34.2092V52.4994H18.9543V34.2092C18.9543 31.5735 16.8479 29.4365 14.25 29.4365H17.9571C20.555 29.4364 22.6614 31.5734 22.6614 34.2092Z" fill="#E1DDE1"/>
<path d="M4.03516 51.3061V48.9197C4.03516 48.2608 4.5617 47.7266 5.21124 47.7266H17.9556C20.5537 47.7266 22.6599 49.8633 22.6599 52.4992H5.21135C4.56181 52.4992 4.03516 51.965 4.03516 51.3061Z" fill="#CBC5CB"/>
<path d="M22.6615 52.499H19.0803C19.0803 49.8633 16.9751 47.7263 14.376 47.7263H17.9571C20.5551 47.7263 22.6615 49.8633 22.6615 52.499Z" fill="#B5ADB6"/>
<path d="M41.2855 30.6298V51.3057C41.2855 51.9653 40.7594 52.499 40.1093 52.499H22.6611V34.2085C22.6611 31.5736 24.7676 29.4365 27.366 29.4365H40.1093C40.7595 29.4365 41.2855 29.9703 41.2855 30.6298Z" fill="#F2EFF2"/>
<path d="M41.2835 30.6298V33.5299C38.6055 41.3504 31.268 46.9798 22.6592 46.9798V37.911C27.7672 37.911 32.0555 34.285 33.1564 29.4365H40.1073C40.7575 29.4365 41.2835 29.9703 41.2835 30.6298Z" fill="#E1DDE1"/>
<path d="M41.2843 30.6302V51.3068C41.2843 51.9655 40.7586 52.5 40.1082 52.5H36.4717C37.1209 52.5 37.6478 51.9655 37.6478 51.3068V30.6302C37.6478 29.9715 37.1209 29.437 36.4717 29.437H40.1081C40.7585 29.437 41.2843 29.9715 41.2843 30.6302Z" fill="#E1DDE1"/>
<path d="M41.2859 51.3061V48.9197C41.2859 48.2608 40.7594 47.7266 40.1098 47.7266H27.3655C24.7673 47.7266 22.6611 49.8633 22.6611 52.4992H40.1098C40.7594 52.4992 41.2859 51.965 41.2859 51.3061Z" fill="#CBC5CB"/>
<path d="M41.2843 48.9207V51.307C41.2843 51.9657 40.7586 52.5002 40.1082 52.5002H36.4717C37.1209 52.5002 37.6478 51.9657 37.6478 51.307V48.9207C37.6478 48.2609 37.1209 47.7275 36.4717 47.7275H40.1081C40.7585 47.7275 41.2843 48.2609 41.2843 48.9207Z" fill="#B5ADB6"/>
<path d="M16.7758 37.5311H8.16905C7.71098 37.5311 7.33984 37.1545 7.33984 36.6899C7.33984 36.2253 7.71109 35.8486 8.16905 35.8486H16.7758C17.2338 35.8486 17.605 36.2253 17.605 36.6899C17.605 37.1545 17.2338 37.5311 16.7758 37.5311Z" fill="#CBC5CB"/>
<path d="M16.7758 40.8751H8.16905C7.71098 40.8751 7.33984 40.4985 7.33984 40.0339C7.33984 39.5693 7.71109 39.1926 8.16905 39.1926H16.7758C17.2338 39.1926 17.605 39.5693 17.605 40.0339C17.605 40.4985 17.2338 40.8751 16.7758 40.8751Z" fill="#CBC5CB"/>
<path d="M16.7758 44.2186H8.16905C7.71098 44.2186 7.33984 43.842 7.33984 43.3774C7.33984 42.9128 7.71109 42.5361 8.16905 42.5361H16.7758C17.2338 42.5361 17.605 42.9128 17.605 43.3774C17.605 43.842 17.2338 44.2186 16.7758 44.2186Z" fill="#CBC5CB"/>
<path d="M37.1556 37.5311H28.5489C28.0909 37.5311 27.7197 37.1545 27.7197 36.6899C27.7197 36.2253 28.091 35.8486 28.5489 35.8486H37.1556C37.6137 35.8486 37.9848 36.2253 37.9848 36.6899C37.9848 37.1545 37.6137 37.5311 37.1556 37.5311Z" fill="#CBC5CB"/>
<path d="M37.1556 40.8751H28.5489C28.0909 40.8751 27.7197 40.4985 27.7197 40.0339C27.7197 39.5693 28.091 39.1926 28.5489 39.1926H37.1556C37.6137 39.1926 37.9848 39.5693 37.9848 40.0339C37.9848 40.4985 37.6137 40.8751 37.1556 40.8751Z" fill="#CBC5CB"/>
<path d="M37.1556 44.2186H28.5489C28.0909 44.2186 27.7197 43.842 27.7197 43.3774C27.7197 42.9128 28.091 42.5361 28.5489 42.5361H37.1556C37.6137 42.5361 37.9848 42.9128 37.9848 43.3774C37.9848 43.842 37.6137 44.2186 37.1556 44.2186Z" fill="#CBC5CB"/>
<path d="M11.8908 24.3652V6.2522H2.95215V24.3125C2.95215 35.3053 11.8167 44.4761 22.6519 44.4816C23.1385 44.4818 23.6208 44.4634 24.0987 44.4282V35.3153C23.6083 35.382 23.1077 35.4158 22.599 35.4129C16.6555 35.3783 11.8908 30.3953 11.8908 24.3652Z" fill="#64B9FC"/>
<path d="M11.8903 24.3648V6.2522H7.3916V24.3648C7.3916 30.3957 12.1565 35.3779 18.1001 35.4131H22.5978C16.6543 35.3779 11.8903 30.3958 11.8903 24.3648Z" fill="#31A7FB"/>
<path d="M11.8917 0.944223V7.1395H2.95312V0.944223C2.95312 0.445635 3.35109 0.0410156 3.8434 0.0410156H11.0014C11.4929 0.0410156 11.8917 0.445635 11.8917 0.944223Z" fill="#EEF4F5"/>
<path d="M11.8909 0.944223V7.1395H7.39223V0.944223C7.39223 0.445635 6.99426 0.0410156 6.50195 0.0410156H11.0006C11.4921 0.0410156 11.8909 0.445635 11.8909 0.944223Z" fill="#CBE5E7"/>
<path d="M33.4327 6.2522V24.4854C33.4327 30.5322 28.5666 35.4476 22.5986 35.4129L22.6515 44.4816C33.524 44.487 42.3712 35.5147 42.3712 24.4854V6.2522H33.4327Z" fill="#FB7722"/>
<path d="M37.902 6.2522V24.4859C37.902 33.9571 31.3779 41.912 22.6494 43.9659L22.6521 44.4817C33.5244 44.4871 42.3713 35.5144 42.3713 24.486V6.2522H37.902Z" fill="#F2671F"/>
<path d="M42.3712 0.944223V7.1395H33.4326V0.944223C33.4326 0.445635 33.8314 0.0410156 34.3229 0.0410156H41.4809C41.9732 0.0410156 42.3712 0.445635 42.3712 0.944223Z" fill="#EEF4F5"/>
<path d="M42.3713 0.944223V7.1395H37.902V0.944223C37.902 0.445635 37.504 0.0410156 37.0117 0.0410156H41.481C41.9733 0.0410156 42.3713 0.445635 42.3713 0.944223Z" fill="#CBE5E7"/>
<path d="M27.6238 8.50529H24.2813L26.8944 3.40051C27.0772 3.04358 26.8218 2.61719 26.4254 2.61719H22.0352C21.6357 2.61719 21.2703 2.84574 21.0908 3.20778L17.2279 11.0005C17.0512 11.3571 17.3067 11.7776 17.7002 11.7776H21.3836L19.8016 17.0138C19.6364 17.5607 20.3171 17.9549 20.6973 17.5326L28.0142 9.40306C28.3239 9.05887 28.0832 8.50529 27.6238 8.50529Z" fill="#FEE265"/>
<path d="M26.8945 3.40165L24.2808 8.50589H22.2818C21.9866 8.50589 21.7965 8.18838 21.9325 7.92259L24.2465 3.40165C24.4291 3.04385 24.1746 2.61768 23.7774 2.61768H26.4254C26.8214 2.61768 27.077 3.04385 26.8945 3.40165Z" fill="#FDD330"/>
<path d="M28.0138 9.40378L20.6965 17.5337C20.3165 17.9564 19.6361 17.5615 19.8006 17.015L20.45 14.867L25.3659 9.40378C25.6764 9.05992 25.4355 8.50635 24.9755 8.50635H27.6235C28.0823 8.50635 28.3231 9.05981 28.0138 9.40378Z" fill="#FDD330"/>
</svg>
