<svg width="56" height="56" viewBox="0 0 56 56" fill="none" xmlns="http://www.w3.org/2000/svg">
<g clip-path="url(#clip0_1_9587)">
<path d="M35.4328 17.5396V54.7605C35.4328 55.3801 34.9378 55.8823 34.3271 55.8823H12.842C12.2313 55.8823 11.7363 55.3801 11.7363 54.7605V17.5396H35.4328Z" fill="#CBC5CB"/>
<path d="M35.4319 30.5823V36.5038H19.9383C19.3247 36.5038 18.8271 35.999 18.8271 35.3765V33.9632C18.8271 32.0967 20.3197 30.5823 22.1596 30.5823H35.4319Z" fill="#B5ADB6"/>
<path d="M31.7441 17.5393V55.8817H34.3258C34.9365 55.8817 35.4314 55.3795 35.4314 54.7599V17.5393H31.7441Z" fill="#B5ADB6"/>
<path d="M11.7354 17.5393H35.4317V21.2429H11.7354V17.5393Z" fill="#B5ADB6"/>
<path d="M10.0693 3.58252H37.0981V15.3627H10.0693V3.58252Z" fill="#B5ADB6"/>
<path d="M10.0693 3.58252H37.0981V7.74424H10.0693V3.58252Z" fill="#A69CA7"/>
<path d="M15.3547 8.34453C15.3547 11.3061 12.9884 13.708 10.0693 13.708V3.58252H12.5019C14.1966 4.47582 15.3547 6.27254 15.3547 8.34453Z" fill="#A69CA7"/>
<path d="M37.0979 3.58252V13.708C34.1787 13.708 31.8125 11.306 31.8125 8.34453C31.8125 6.27243 32.9707 4.47571 34.6653 3.58252H37.0979Z" fill="#A69CA7"/>
<path d="M33.3076 3.58228H37.0987V15.3626H33.3076V3.58228Z" fill="#A69CA7"/>
<path d="M10.0684 0.133057H37.0981V5.09759H10.0684V0.133057Z" fill="#E1DDE1"/>
<path d="M37.6232 18.5653H9.54364C8.85289 18.5653 8.29297 17.9972 8.29297 17.2964V15.6653C8.29297 14.9645 8.85289 14.3965 9.54364 14.3965H37.6232C38.314 14.3965 38.8739 14.9645 38.8739 15.6653V17.2964C38.874 17.9972 38.314 18.5653 37.6232 18.5653Z" fill="#E1DDE1"/>
<path d="M38.8734 15.6648V17.2966C38.8734 17.997 38.3131 18.5654 37.6227 18.5654H34.1133C34.8037 18.5654 35.364 17.997 35.364 17.2966V15.6648C35.364 14.9644 34.8036 14.396 34.1133 14.396H37.6227C38.3131 14.3959 38.8734 14.9644 38.8734 15.6648Z" fill="#CBC5CB"/>
<path d="M10.0688 10.8579C12.988 10.8579 15.3544 8.45704 15.3544 5.49546C15.3544 2.53389 12.988 0.133057 10.0688 0.133057C7.14965 0.133057 4.7832 2.53389 4.7832 5.49546C4.7832 8.45704 7.14965 10.8579 10.0688 10.8579Z" fill="#F2EFF2"/>
<path d="M37.0981 10.8579C40.0173 10.8579 42.3837 8.45704 42.3837 5.49546C42.3837 2.53389 40.0173 0.133057 37.0981 0.133057C34.1789 0.133057 31.8125 2.53389 31.8125 5.49546C31.8125 8.45704 34.1789 10.8579 37.0981 10.8579Z" fill="#F2EFF2"/>
<path d="M10.0686 7.44474C11.1296 7.44474 11.9897 6.57212 11.9897 5.49569C11.9897 4.41925 11.1296 3.54663 10.0686 3.54663C9.00758 3.54663 8.14746 4.41925 8.14746 5.49569C8.14746 6.57212 9.00758 7.44474 10.0686 7.44474Z" fill="#CBC5CB"/>
<path d="M37.0979 7.44474C38.1589 7.44474 39.019 6.57212 39.019 5.49569C39.019 4.41925 38.1589 3.54663 37.0979 3.54663C36.0369 3.54663 35.1768 4.41925 35.1768 5.49569C35.1768 6.57212 36.0369 7.44474 37.0979 7.44474Z" fill="#CBC5CB"/>
<path d="M21.3169 27.23V55.8821H16.3193V27.23C16.3193 25.8301 17.4382 24.696 18.8181 24.696C19.508 24.696 20.1327 24.9798 20.5849 25.4386C21.0371 25.8963 21.3169 26.5301 21.3169 27.23Z" fill="#7A6E79"/>
<path d="M21.317 30.6931V36.5048H19.9383C19.3247 36.5048 18.8271 36 18.8271 35.3775V33.9642C18.827 32.3926 19.8852 31.0712 21.317 30.6931Z" fill="#685E67"/>
<path d="M30.8466 55.8827H25.8496V27.2309C25.8496 25.831 26.9683 24.696 28.3482 24.696C29.7281 24.696 30.8467 25.831 30.8467 27.2309V55.8827H30.8466Z" fill="#7A6E79"/>
<path d="M40.8935 32.4167V27.6226H22.16C20.3193 27.6226 18.8271 29.1364 18.8271 31.0038V32.4167C18.8271 33.0392 19.3245 33.5438 19.9381 33.5438H39.7826C40.3962 33.5438 40.8935 33.0392 40.8935 32.4167Z" fill="#FEE265"/>
<path d="M40.8942 27.6221V32.4163C40.8942 33.0388 40.3966 33.5425 39.783 33.5425H23.239V31.003C23.239 29.5369 22.3191 28.2895 21.0332 27.8207C21.3848 27.6916 21.7641 27.6222 22.1599 27.6222H40.8942V27.6221Z" fill="#FDD330"/>
<path d="M45.0951 50.0335V31.0035C45.0951 29.1359 43.603 27.6223 41.7623 27.6223H22.5176C24.3584 27.6223 25.8504 29.136 25.8504 31.0035V50.0335C25.8504 51.9011 27.3424 53.4147 29.1832 53.4147H48.4279C46.587 53.4149 45.0951 51.9011 45.0951 50.0335Z" fill="#FEF5C8"/>
<path d="M44.9326 29.9608C43.9286 30.9704 42.0468 30.9345 40.9588 30.8122L39.6298 34.5139C39.5071 34.856 39.1898 35.068 38.8503 35.068C38.7563 35.068 38.6612 35.0512 38.5673 35.0164C38.1372 34.8583 37.9149 34.3747 38.072 33.9384L39.3998 30.2367C38.6259 29.714 37.4539 28.7695 37.0381 27.6221H41.7614C43.2442 27.6221 44.5013 28.6036 44.9326 29.9608Z" fill="#FDE784"/>
<path d="M48.4279 53.4149H45.0479C43.2069 53.4149 41.7154 51.9007 41.7154 50.0329V31.0041C41.7154 29.1363 40.2228 27.6221 38.3818 27.6221H41.7619C43.6028 27.6221 45.0954 29.1363 45.0954 31.0041V50.0329C45.0954 51.9007 46.5869 53.4149 48.4279 53.4149Z" fill="#FDE784"/>
<path d="M52.1178 48.62V50.0333C52.1178 51.9007 50.6257 53.4146 48.785 53.4146H29.6074C31.4483 53.4146 32.9402 51.9008 32.9402 50.0333V48.62C32.9402 47.9975 33.4376 47.4929 34.0512 47.4929H51.0069C51.6204 47.4928 52.1178 47.9975 52.1178 48.62Z" fill="#FEE265"/>
<path d="M52.118 48.6189V50.0322C52.118 51.8999 50.6254 53.4142 48.7844 53.4142H45.3945C47.2354 53.4142 48.7281 51.8999 48.7281 50.0322V48.6189C48.7281 47.9975 48.2305 47.4927 47.6169 47.4927H51.0068C51.6204 47.4927 52.118 47.9975 52.118 48.6189Z" fill="#FDD330"/>
<path d="M35.8575 33.39H29.8653C29.4074 33.39 29.0361 33.0134 29.0361 32.5488C29.0361 32.0842 29.4074 31.7075 29.8653 31.7075H35.8575C36.3154 31.7075 36.6867 32.0842 36.6867 32.5488C36.6867 33.0133 36.3154 33.39 35.8575 33.39Z" fill="#FC9744"/>
<path d="M41.1894 38.5031H29.8644C29.4064 38.5031 29.0352 38.1264 29.0352 37.6618C29.0352 37.1972 29.4064 36.8206 29.8644 36.8206H41.1894C41.6474 36.8206 42.0186 37.1972 42.0186 37.6618C42.0186 38.1264 41.6474 38.5031 41.1894 38.5031Z" fill="#FDD330"/>
<path d="M41.1894 41.5839H29.8644C29.4064 41.5839 29.0352 41.2072 29.0352 40.7426C29.0352 40.278 29.4064 39.9014 29.8644 39.9014H41.1894C41.6474 39.9014 42.0186 40.278 42.0186 40.7426C42.0186 41.2071 41.6474 41.5839 41.1894 41.5839Z" fill="#FDD330"/>
<path d="M41.1894 44.6649H29.8644C29.4064 44.6649 29.0352 44.2883 29.0352 43.8237C29.0352 43.3591 29.4064 42.9824 29.8644 42.9824H41.1894C41.6474 42.9824 42.0186 43.3591 42.0186 43.8237C42.0186 44.2883 41.6474 44.6649 41.1894 44.6649Z" fill="#FDD330"/>
<path d="M47.9124 13.4073C44.9276 13.6527 43.0454 15.7491 42.3457 16.6865C42.158 16.938 42.0087 17.2159 41.9024 17.5123L38.7873 26.195C37.8783 28.7289 41.8922 30.8449 41.8922 30.8449C41.8922 30.8449 46.3076 31.8415 47.2166 29.3076L50.3317 20.6249C50.438 20.3285 50.4997 20.0182 50.5152 19.7032C50.5731 18.5288 50.4595 15.6955 48.3284 13.5609C48.2183 13.4506 48.0666 13.3946 47.9124 13.4073Z" fill="#FC9744"/>
<path d="M50.332 20.6247L47.2171 29.3071C46.3081 31.841 41.892 30.844 41.892 30.844C41.892 30.844 41.7919 30.7914 41.627 30.6925C42.8277 30.6152 44.1209 30.2221 44.5676 28.9769L47.6824 20.2946C47.789 19.9975 47.8507 19.6873 47.8657 19.3722C47.919 18.2967 47.8276 15.8281 46.1732 13.7802C46.7031 13.5925 47.2834 13.4582 47.9121 13.4065C48.0663 13.3942 48.2181 13.4501 48.3284 13.5602C50.4595 15.6948 50.573 18.5281 50.5152 19.7025C50.4999 20.0185 50.4382 20.3288 50.332 20.6247Z" fill="#FB7722"/>
<path d="M40.6194 35.232C40.5252 35.232 40.4295 35.2157 40.3359 35.181C39.9055 35.0221 39.6837 34.5394 39.8403 34.1027L45.2913 18.9087C45.4479 18.4721 45.924 18.2471 46.3541 18.4059C46.7845 18.5649 47.0063 19.0475 46.8497 19.4842L41.3987 34.6782C41.2762 35.0198 40.9581 35.232 40.6194 35.232Z" fill="#FCCA9F"/>
<path d="M50.2643 20.8076L49.5434 22.8178L48.9297 23.0219C48.8434 23.0511 48.7573 23.0645 48.671 23.0645C48.3227 23.0645 47.9976 22.839 47.8837 22.4846C47.74 22.0437 47.9777 21.5681 48.4134 21.4235L50.2643 20.8076Z" fill="#FCCA9F"/>
<path d="M41.3088 24.1266C41.1728 24.2129 41.0214 24.2533 40.8721 24.2533C40.5957 24.2533 40.3248 24.1131 40.1678 23.8562L39.8262 23.2987L40.5482 21.2886L41.5764 22.9689C41.8174 23.3627 41.6979 23.8821 41.3088 24.1266Z" fill="#FB7722"/>
<path d="M48.6515 25.3054L47.9306 27.3156L47.317 27.5197C47.2307 27.5489 47.1435 27.5623 47.0582 27.5623C46.7089 27.5623 46.3849 27.3368 46.2699 26.9824C46.1273 26.5415 46.365 26.0659 46.7996 25.9213L48.6515 25.3054Z" fill="#FC9744"/>
</g>
<defs>
<clipPath id="clip0_1_9587">
<rect width="54.9511" height="55.7495" fill="white" transform="translate(0.975586 0.133057)"/>
</clipPath>
</defs>
</svg>
