<svg width="58" height="56" viewBox="0 0 58 56" fill="none" xmlns="http://www.w3.org/2000/svg">
<path d="M18.2299 49.2432C16.6064 47.6272 15.2718 45.8268 14.2261 43.9076C12.3091 40.3891 15.0293 36.1438 18.9842 36.3983C24.2987 36.7403 29.8332 35.6455 33.4624 31.9635C37.0916 28.2817 38.1707 22.6672 37.8331 17.2757C37.5807 13.245 41.7894 10.5069 45.2701 12.467C47.133 13.5161 48.882 14.8501 50.4551 16.4688C59.2763 25.5462 59.2228 40.0708 50.3383 49.0845C41.4658 58.0859 27.1864 58.1585 18.2299 49.2432Z" fill="#FCCA9F"/>
<path d="M40.6166 37.5382C40.6166 38.7482 39.819 39.8489 38.6203 40.1745C37.2204 40.556 35.7738 39.7432 35.3488 38.3376L33.4316 31.9934C33.4413 31.9837 33.452 31.9728 33.4616 31.963C35.677 29.7155 36.9428 26.7462 37.514 23.5474L40.5472 36.9247C40.5938 37.13 40.6166 37.3352 40.6166 37.5382Z" fill="#FCB982"/>
<path d="M33.1889 32.2312L32.5064 36.1614C31.2083 43.6331 26.2051 49.3358 20.2211 51.0111C19.5326 50.4669 18.8668 49.8776 18.2284 49.2422C16.6058 47.6264 15.2706 45.8259 14.2252 43.9064C12.308 40.388 15.0287 36.1431 18.9829 36.3971C24.1657 36.7311 29.558 35.6986 33.1889 32.2312Z" fill="#FCB982"/>
<path d="M50.3367 49.0845C44.0162 55.4968 34.9512 57.3774 27.0225 54.7058C33.7166 56.1224 40.9494 54.1822 46.1574 48.8986C54.3315 40.6057 54.3806 27.2417 46.2652 18.8904C44.8174 17.401 43.2079 16.1739 41.4943 15.208C40.4501 14.62 39.3352 14.4925 38.3149 14.7148C39.498 12.2255 42.5972 10.9619 45.2688 12.466C47.1322 13.5156 48.8805 14.8496 50.454 16.4679C59.2749 25.5456 59.2209 40.0698 50.3367 49.0845Z" fill="#FCB982"/>
<path d="M45.6093 46.7352C47.3298 46.7352 48.7245 45.3202 48.7245 43.5747C48.7245 41.8293 47.3298 40.4143 45.6093 40.4143C43.8889 40.4143 42.4941 41.8293 42.4941 43.5747C42.4941 45.3202 43.8889 46.7352 45.6093 46.7352Z" fill="#FB8627"/>
<path d="M48.725 43.5742C48.725 45.3195 47.3302 46.7345 45.6087 46.7345C44.9891 46.7345 44.4111 46.5506 43.9263 46.2338C45.2793 46.1257 46.3458 44.9755 46.3458 43.5742C46.3458 42.1716 45.2781 41.0225 43.9238 40.9157C44.4087 40.5977 44.9879 40.4138 45.6087 40.4138C47.3302 40.4137 48.725 41.8287 48.725 43.5742Z" fill="#FB7722"/>
<path d="M49.9267 36.9593C51.6472 36.9593 53.0419 35.5443 53.0419 33.7989C53.0419 32.0534 51.6472 30.6384 49.9267 30.6384C48.2062 30.6384 46.8115 32.0534 46.8115 33.7989C46.8115 35.5443 48.2062 36.9593 49.9267 36.9593Z" fill="#FEE265"/>
<path d="M53.0424 33.7983C53.0424 35.5436 51.6476 36.9586 49.9261 36.9586C49.3064 36.9586 48.7285 36.7747 48.2436 36.458C49.5967 36.3498 50.6632 35.1996 50.6632 33.7983C50.6632 32.3957 49.5955 31.2466 48.2412 31.1398C48.7261 30.8218 49.3053 30.6379 49.9261 30.6379C51.6476 30.6379 53.0424 32.0528 53.0424 33.7983Z" fill="#FDD330"/>
<path d="M35.9746 51.1141C37.695 51.1141 39.0897 49.6991 39.0897 47.9537C39.0897 46.2082 37.695 44.7932 35.9746 44.7932C34.2541 44.7932 32.8594 46.2082 32.8594 47.9537C32.8594 49.6991 34.2541 51.1141 35.9746 51.1141Z" fill="#64B9FC"/>
<path d="M39.0902 47.9531C39.0902 49.6984 37.6955 51.1134 35.9739 51.1134C35.3543 51.1134 34.7763 50.9295 34.2915 50.6127C35.6445 50.5046 36.7111 49.3544 36.7111 47.9531C36.7111 46.5505 35.6433 45.4014 34.2891 45.2946C34.7739 44.9766 35.3532 44.7927 35.9739 44.7927C37.6956 44.7927 39.0902 46.2077 39.0902 47.9531Z" fill="#1C96F9"/>
<path d="M47.0722 26.8402C48.7927 26.8402 50.1874 25.4252 50.1874 23.6797C50.1874 21.9343 48.7927 20.5193 47.0722 20.5193C45.3517 20.5193 43.957 21.9343 43.957 23.6797C43.957 25.4252 45.3517 26.8402 47.0722 26.8402Z" fill="#27D1B3"/>
<path d="M50.1879 23.6791C50.1879 25.4245 48.7931 26.8395 47.0716 26.8395C46.4519 26.8395 45.874 26.6556 45.3891 26.3388C46.7422 26.2307 47.8087 25.0804 47.8087 23.6791C47.8087 22.2766 46.741 21.1275 45.3867 21.0207C45.8716 20.7027 46.4508 20.5188 47.0716 20.5188C48.7932 20.5188 50.1879 21.9337 50.1879 23.6791Z" fill="#20B69F"/>
<path d="M25.997 48.2205C27.7175 48.2205 29.1122 46.8056 29.1122 45.0601C29.1122 43.3146 27.7175 41.8997 25.997 41.8997C24.2765 41.8997 22.8818 43.3146 22.8818 45.0601C22.8818 46.8056 24.2765 48.2205 25.997 48.2205Z" fill="#685E67"/>
<path d="M29.1127 45.0595C29.1127 46.8048 27.7179 48.2198 25.9964 48.2198C25.3767 48.2198 24.7988 48.036 24.314 47.7192C25.667 47.6111 26.7335 46.4608 26.7335 45.0595C26.7335 43.657 25.6658 42.5078 24.3115 42.401C24.7964 42.083 25.3756 41.8992 25.9964 41.8992C27.7181 41.8992 29.1127 43.3142 29.1127 45.0595Z" fill="#554E55"/>
<path d="M32.1057 14.1612C33.1556 14.1112 33.9803 15.0587 33.7977 16.109L31.0138 32.1268C29.2999 41.9881 21.1332 48.7695 12.7745 47.2742C4.41424 45.7785 -0.972149 36.5726 0.741787 26.7114L3.5257 10.6938C3.70825 9.64364 4.80256 9.03935 5.77236 9.4507C9.42104 10.9984 13.8531 12.3108 18.7006 13.178C23.5483 14.0451 28.1545 14.3494 32.1057 14.1612Z" fill="#F2EFF2"/>
<path d="M33.7975 16.1084L31.0135 32.127C29.2996 41.9883 21.1329 48.7697 12.7744 47.2744C12.1098 47.1555 11.462 46.9873 10.8369 46.7742C18.4664 46.9695 25.5107 40.5021 27.0883 31.4248L29.7585 16.0609C29.9034 15.2277 29.4132 14.4583 28.6793 14.2021C29.8657 14.2287 31.011 14.2142 32.1063 14.1621C33.1564 14.112 33.98 15.0592 33.7975 16.1084Z" fill="#E1DDE1"/>
<path d="M19.9941 25.1359C20.762 23.8279 22.0368 22.4624 24.136 21.8032C25.597 21.3444 27.0847 22.4437 27.1368 23.9944C27.1756 25.1487 26.3897 26.1633 25.2745 26.396C24.2437 26.611 22.9248 26.9146 21.6364 27.2914C20.3789 27.6592 19.3244 26.2767 19.9941 25.1359Z" fill="#685E67"/>
<path d="M13.4521 23.9658C13.1715 22.4702 12.434 20.7447 10.6835 19.3968C9.46533 18.4588 7.69667 18.9756 7.12491 20.4146C6.69933 21.4859 7.09583 22.712 8.06531 23.3175C8.96136 23.8771 10.0985 24.6201 11.1821 25.4212C12.24 26.2033 13.6968 25.2701 13.4521 23.9658Z" fill="#685E67"/>
<path d="M25.1163 32.8284C25.5987 32.6668 26.0449 33.1512 25.8587 33.6306C24.8641 36.1912 23.3502 38.4036 21.4349 40.0566C19.0059 42.1504 16.22 43.0453 13.5911 42.5751C10.9603 42.1045 8.64401 40.2968 7.06741 37.4865C5.82494 35.2686 5.14969 32.6645 5.07738 29.9132C5.06389 29.398 5.64637 29.0975 6.0453 29.4166C8.4692 31.3553 11.6147 32.8081 15.1778 33.4454C18.7409 34.0829 22.1863 33.8092 25.1163 32.8284Z" fill="#685E67"/>
<path d="M25.858 33.6303C24.8633 36.1911 23.3492 38.4035 21.4338 40.0558C19.005 42.1503 16.2195 43.0447 13.5907 42.5744C12.4561 42.3715 11.3807 41.92 10.3984 41.2472C12.8574 41.5045 15.4199 40.5923 17.6752 38.6493C19.2274 37.3097 20.5164 35.6022 21.4788 33.6402C22.7535 33.4845 23.9735 33.2093 25.116 32.8277C25.5976 32.6658 26.0448 33.1505 25.858 33.6303Z" fill="#554E55"/>
<path d="M36.1249 12.148C35.2932 8.99915 38.4897 3.70546 31.4198 0.258631C30.8604 -0.0140691 30.1839 0.169787 29.8338 0.689835C25.4097 7.26121 30.7869 10.2242 31.6186 13.3731L36.1249 12.148Z" fill="#FDDD45"/>
<path d="M36.1254 12.1484L33.3979 12.8899C32.922 9.78195 35.4195 4.95334 29.2363 1.65851C29.412 1.34408 29.6098 1.02124 29.8337 0.689534C30.1842 0.169374 30.8608 -0.0135846 31.42 0.259003C38.4895 3.70527 35.294 8.99953 36.1254 12.1484Z" fill="#F8C52D"/>
<path d="M36.1257 12.1485L31.62 13.3733C31.0496 11.2135 28.3399 9.14015 28.1221 5.93035C29.1139 7.57934 30.9074 8.47417 32.6179 8.0092C34.3272 7.54456 35.4386 5.86148 35.4863 3.93115C36.8793 6.82002 35.5553 9.98854 36.1257 12.1485Z" fill="#FC9744"/>
<path d="M36.1244 12.1484L33.397 12.8899C33.1714 11.4131 33.6163 9.54685 33.4827 7.64278C34.6937 6.92721 35.4451 5.51244 35.4848 3.93188C36.8776 6.81997 35.5543 9.98804 36.1244 12.1484Z" fill="#FB7722"/>
<path d="M42.3062 34.1471L38.8675 18.9775L32.6104 20.6785L37.1084 35.5601C37.5333 36.966 38.9791 37.7782 40.3792 37.3976C41.7792 37.017 42.631 35.5801 42.3062 34.1471Z" fill="#3351C5"/>
<path d="M38.8669 18.9775L42.3055 34.1466C42.4687 34.8629 42.3367 35.5802 41.9896 36.1673C41.6422 36.753 41.0795 37.2071 40.3788 37.3976C39.7509 37.5683 39.1128 37.4989 38.5636 37.2429C38.6046 37.1859 38.6412 37.1275 38.6774 37.0677C39.0245 36.4807 39.1552 35.7637 38.9933 35.0471L35.5547 19.878L38.8669 18.9775Z" fill="#2944AE"/>
<path d="M39.758 22.9059L38.8675 18.9775L32.6104 20.6785L33.7752 24.5324L39.758 22.9059Z" fill="#2944AE"/>
<path d="M38.9185 20.437L33.2856 21.9683C32.9467 22.0604 32.5985 21.8565 32.5076 21.5127L30.307 13.1803C30.2162 12.8365 30.4172 12.4833 30.7561 12.3911L36.389 10.8598C36.7279 10.7677 37.0761 10.9716 37.167 11.3154L39.3677 19.6477C39.4585 19.9916 39.2573 20.3449 38.9185 20.437Z" fill="#EEF4F5"/>
<path d="M37.167 11.3152L39.3678 19.6477C39.4586 19.9913 39.2573 20.3449 38.9187 20.437L36.1517 21.1891C36.4903 21.097 36.6916 20.7434 36.6008 20.3998L34.4 12.0673C34.3093 11.7237 33.9607 11.5195 33.6221 11.6116L36.3891 10.8595C36.7279 10.7674 37.0764 10.9716 37.167 11.3152Z" fill="#CBE5E7"/>
<path d="M31.0708 16.4611C30.6936 16.4611 30.3484 16.2056 30.2461 15.8184C30.124 15.356 30.3944 14.8808 30.8502 14.7569L37.4088 12.9739C37.8648 12.8504 38.3331 13.1245 38.4551 13.5869C38.5773 14.0493 38.3069 14.5244 37.8511 14.6484L31.2925 16.4313C31.2184 16.4514 31.144 16.4611 31.0708 16.4611Z" fill="#A9D3D8"/>
</svg>
