<svg width="56" height="50" viewBox="0 0 56 50" fill="none" xmlns="http://www.w3.org/2000/svg">
<path d="M18.3917 33.2124H8.17058C3.71117 33.2124 0.0830078 36.8932 0.0830078 41.4175C0.0830078 45.9418 3.71117 49.6226 8.17058 49.6226H18.3917V33.2124Z" fill="#31A7FB"/>
<path d="M18.3915 33.2126V49.6223H8.17085C8.04485 49.6223 7.91982 49.6189 7.79607 49.6133C5.57817 47.5965 4.18164 44.6699 4.18164 41.4181C4.18164 38.1662 5.57806 35.2385 7.79596 33.2216C7.91982 33.2159 8.04474 33.2126 8.17075 33.2126H18.3915Z" fill="#1C96F9"/>
<path d="M52.1557 47.2738H15.5969C12.4087 47.2738 9.82422 44.6518 9.82422 41.4173C9.82422 38.1829 12.4087 35.5608 15.5969 35.5608H52.1557V47.2738Z" fill="#F2EFF2"/>
<path d="M42.2154 43.1615H38.0069C37.5489 43.1615 37.1777 42.7849 37.1777 42.3203C37.1777 41.8556 37.549 41.479 38.0069 41.479H42.2154C42.6735 41.479 43.0446 41.8556 43.0446 42.3203C43.0446 42.7849 42.6735 43.1615 42.2154 43.1615Z" fill="#E1DDE1"/>
<path d="M33.7493 43.1615H10.9347C10.4767 43.1615 10.1055 42.7849 10.1055 42.3203C10.1055 41.8556 10.4767 41.479 10.9347 41.479H33.7493C34.2074 41.479 34.5785 41.8556 34.5785 42.3203C34.5785 42.7849 34.2074 43.1615 33.7493 43.1615Z" fill="#E1DDE1"/>
<path d="M48.2764 35.5613H52.1556V47.2745H48.2764V35.5613Z" fill="#E1DDE1"/>
<path d="M53.0317 49.6226H15.0329C10.5734 49.6226 6.94531 45.9417 6.94531 41.4175C6.94531 36.8933 10.5735 33.2124 15.0329 33.2124H53.0317C54.1371 33.2124 55.0333 34.1216 55.0333 35.2431C55.0333 36.3646 54.1371 37.2738 53.0317 37.2738H15.0329C12.7808 37.2738 10.9486 39.1326 10.9486 41.4174C10.9486 43.7022 12.7808 45.561 15.0329 45.561H53.0317C54.1371 45.561 55.0333 46.4702 55.0333 47.5917C55.0333 48.7135 54.1371 49.6226 53.0317 49.6226Z" fill="#64B9FC"/>
<path d="M55.0333 35.2429C55.0333 36.3649 54.1366 37.2736 53.0317 37.2736H49.2949C50.3998 37.2736 51.2966 36.3649 51.2966 35.2429C51.2966 34.1219 50.3998 33.2122 49.2949 33.2122H53.0317C54.1366 33.2122 55.0333 34.1219 55.0333 35.2429Z" fill="#31A7FB"/>
<path d="M55.0333 47.5927C55.0333 48.7137 54.1366 49.6234 53.0317 49.6234H49.2949C50.3998 49.6234 51.2966 48.7137 51.2966 47.5927C51.2966 46.4707 50.3998 45.562 49.2949 45.562H53.0317C54.1366 45.562 55.0333 46.4706 55.0333 47.5927Z" fill="#1C96F9"/>
<path d="M20.6029 16.8022H8.17058C3.71117 16.8022 0.0830078 20.483 0.0830078 25.0073C0.0830078 29.5316 3.71117 33.2124 8.17058 33.2124H20.6029V16.8022Z" fill="#3351C5"/>
<path d="M20.6028 16.8025V33.2133H8.17085C8.04485 33.2133 7.91982 33.2099 7.79607 33.2044C5.57806 31.1875 4.18164 28.2598 4.18164 25.0079C4.18164 21.756 5.57806 18.8283 7.79607 16.8115C7.91992 16.806 8.04485 16.8026 8.17085 16.8026H20.6028V16.8025Z" fill="#2944AE"/>
<path d="M52.1557 30.8642H15.5969C12.4087 30.8642 9.82422 28.2421 9.82422 25.0076C9.82422 21.7732 12.4087 19.1511 15.5969 19.1511H52.1557V30.8642Z" fill="#F2EFF2"/>
<path d="M48.2754 19.1519H52.1546V30.865H48.2754V19.1519Z" fill="#E1DDE1"/>
<path d="M53.0317 33.2124H15.0329C10.5734 33.2124 6.94531 29.5315 6.94531 25.0073C6.94531 20.4831 10.5735 16.8022 15.0329 16.8022H53.0317C54.1371 16.8022 55.0333 17.7114 55.0333 18.833C55.0333 19.9545 54.1371 20.8637 53.0317 20.8637H15.0329C12.7808 20.8637 10.9486 22.7225 10.9486 25.0072C10.9486 27.2921 12.7808 29.1509 15.0329 29.1509H53.0317C54.1371 29.1509 55.0333 30.0601 55.0333 31.1816C55.0333 32.3032 54.1371 33.2124 53.0317 33.2124Z" fill="#5169CD"/>
<path d="M55.0333 31.1831C55.0333 32.304 54.1366 33.2138 53.0317 33.2138H49.2949C50.3998 33.2138 51.2966 32.304 51.2966 31.1831C51.2966 30.061 50.3998 29.1523 49.2949 29.1523H53.0317C54.1366 29.1523 55.0333 30.061 55.0333 31.1831Z" fill="#3351C5"/>
<path d="M23.4776 0.392334H13.2565C8.797 0.392334 5.16895 4.07311 5.16895 8.59742C5.16895 13.1217 8.79711 16.8025 13.2565 16.8025H23.4776V0.392334Z" fill="#27D1B3"/>
<path d="M23.4775 0.392822V16.8025H13.2568C13.1308 16.8025 13.0058 16.7991 12.882 16.7935C10.6641 14.7766 9.26758 11.849 9.26758 8.59715C9.26758 5.34527 10.664 2.41875 12.882 0.40186C13.0059 0.396198 13.1308 0.392931 13.2568 0.392931H23.4775V0.392822Z" fill="#20B69F"/>
<path d="M48.3964 14.4538H20.6828C17.4947 14.4538 14.9102 11.8317 14.9102 8.59726C14.9102 5.3628 17.4947 2.74072 20.6828 2.74072H48.3963V14.4538H48.3964Z" fill="#F2EFF2"/>
<path d="M44.5166 2.74121H48.3958V14.4544H44.5166V2.74121Z" fill="#E1DDE1"/>
<path d="M49.2734 16.8025H20.1198C15.6603 16.8025 12.0322 13.1216 12.0322 8.59742C12.0322 4.07322 15.6604 0.392334 20.1198 0.392334H49.2733C50.3787 0.392334 51.2749 1.30153 51.2749 2.42305C51.2749 3.54458 50.3787 4.45377 49.2733 4.45377H20.1198C17.8677 4.45377 16.0355 6.31256 16.0355 8.59731C16.0355 10.8822 17.8677 12.741 20.1198 12.741H49.2733C50.3787 12.741 51.2749 13.6502 51.2749 14.7717C51.275 15.8933 50.3788 16.8025 49.2734 16.8025Z" fill="#64E0C4"/>
<path d="M51.2746 2.42281C51.2746 3.54488 50.3778 4.45353 49.2729 4.45353H45.5361C46.6411 4.45353 47.5378 3.54488 47.5378 2.42281C47.5378 1.30183 46.6411 0.39209 45.5361 0.39209H49.2729C50.3778 0.39209 51.2746 1.30183 51.2746 2.42281Z" fill="#27D1B3"/>
<path d="M51.2746 14.7727C51.2746 15.8936 50.3778 16.8034 49.2729 16.8034H45.5361C46.6411 16.8034 47.5378 15.8936 47.5378 14.7727C47.5378 13.6506 46.6411 12.7419 45.5361 12.7419H49.2729C50.3778 12.7418 51.2746 13.6505 51.2746 14.7727Z" fill="#27D1B3"/>
<path d="M48.3964 8.94202H29.3399C28.8819 8.94202 28.5107 8.56539 28.5107 8.10077C28.5107 7.63616 28.882 7.25952 29.3399 7.25952H48.3964V8.94202Z" fill="#E1DDE1"/>
<path d="M25.7603 8.94202H21.7521C21.2941 8.94202 20.9229 8.56539 20.9229 8.10077C20.9229 7.63616 21.2941 7.25952 21.7521 7.25952H25.7603C26.2182 7.25952 26.5895 7.63616 26.5895 8.10077C26.5895 8.56539 26.2183 8.94202 25.7603 8.94202Z" fill="#E1DDE1"/>
</svg>
